<svg width="48" height="48" fill="none" xmlns="http://www.w3.org/2000/svg"><rect width="48" height="48" rx="2" fill="#157AF1"/><path d="M4.232 7.248h6.888c1.392 0 2.48.392 3.264 1.176.8.784 1.2 1.832 1.2 3.144 0 .624-.088 1.152-.264 1.584-.176.432-.4.792-.672 1.08a2.99 2.99 0 0 1-.888.624c-.32.128-.616.216-.888.264v.144c.304.016.64.096 1.008.24.384.144.744.376 1.08.696.336.304.616.704.84 1.2.24.48.36 1.064.36 1.752s-.112 1.328-.336 1.92a4.556 4.556 0 0 1-.888 1.536 4.35 4.35 0 0 1-1.368 1.032c-.528.24-1.104.36-1.728.36H4.232V7.248Zm2.016 14.976h4.968c.864 0 1.544-.216 2.04-.648.496-.448.744-1.096.744-1.944v-.816c0-.848-.248-1.488-.744-1.92-.496-.448-1.176-.672-2.04-.672H6.248v6Zm0-7.728h4.632c.8 0 1.424-.2 1.872-.6.448-.4.672-.976.672-1.728v-.816c0-.752-.224-1.328-.672-1.728-.448-.4-1.072-.6-1.872-.6H6.248v5.472Zm17.72-.72-2.016-3.72h-.072V24h-1.968V7.248h2.328l6.12 10.224 2.016 3.72h.072V7.248h1.968V24h-2.328l-6.12-10.224Zm-9 28.224H3.792v-1.672l8.866-12.056H4.254v-1.628H14.66v1.672L5.772 40.372h9.196V42Zm8.26.264c-.998 0-1.9-.169-2.707-.506a5.788 5.788 0 0 1-2.046-1.518c-.557-.675-.99-1.503-1.298-2.486-.308-.997-.462-2.141-.462-3.432 0-1.29.154-2.427.462-3.41.308-.983.741-1.811 1.299-2.486a5.456 5.456 0 0 1 2.046-1.518c.806-.352 1.708-.528 2.706-.528.982 0 1.877.176 2.683.528a5.237 5.237 0 0 1 2.046 1.518c.572.675 1.012 1.503 1.32 2.486.308.983.462 2.12.462 3.41s-.154 2.435-.462 3.432c-.308.983-.748 1.811-1.32 2.486a5.54 5.54 0 0 1-2.046 1.518c-.806.337-1.7.506-2.684.506Zm0-1.65c.66 0 1.268-.117 1.825-.352a3.972 3.972 0 0 0 1.43-1.012c.411-.44.726-.968.947-1.584.22-.616.33-1.305.33-2.068v-2.552c0-.763-.11-1.452-.33-2.068a4.515 4.515 0 0 0-.947-1.584 3.972 3.972 0 0 0-1.43-1.012 4.658 4.658 0 0 0-1.826-.352c-.66 0-1.268.117-1.826.352a4.185 4.185 0 0 0-1.451 1.012c-.396.44-.704.968-.924 1.584-.22.616-.33 1.305-.33 2.068v2.552c0 .763.11 1.452.33 2.068.22.616.527 1.144.924 1.584.41.44.894.777 1.451 1.012a4.657 4.657 0 0 0 1.826.352Zm13.552-7.986-1.848-3.41h-.066V42h-1.804V26.644h2.134l5.61 9.372 1.848 3.41h.066V26.644h1.804V42H42.39l-5.61-9.372Z" fill="#fff"/></svg>