<svg width="54" height="43" fill="none" xmlns="http://www.w3.org/2000/svg"><path d="M29.592 9.488c.378.012.534-.12.56-.465.13-1.655.927-3.202 2.228-4.329a7.194 7.194 0 0 1 2.774-1.705 7.59 7.59 0 0 1 3.297-.346c1.37.175 2.615.836 3.478 1.847a4.827 4.827 0 0 1 1.16 3.583l-.146 1.4c.86 0 1.669.01 2.477-.012.093-.003.24-.175.26-.284a7.434 7.434 0 0 0-1.027-5.495c-.945-1.43-2.36-2.535-4.032-3.148a8.824 8.824 0 0 0-5.243-.25 10.735 10.735 0 0 0-4.277 2.01A9.87 9.87 0 0 0 28.23 5.88a8.212 8.212 0 0 0-.858 3.603c.762-.002 1.49-.018 2.22.005ZM8.568 28.058a3.13 3.13 0 0 0 1.13-.228c.272-.098.512-.262.695-.476a1.5 1.5 0 0 0 .342-.74 1.45 1.45 0 0 0-.104-.801 1.556 1.556 0 0 0-.522-.642 2.586 2.586 0 0 0-1.411-.478c-2.203-.05-4.408-.025-6.612-.02a2.548 2.548 0 0 0-.603.069 1.933 1.933 0 0 0-.886.429 1.752 1.752 0 0 0-.528.792c-.093.283-.092.585.002.868.094.282.278.531.526.714.408.352.946.54 1.5.524h3.236c1.078 0 2.158.019 3.235-.01ZM9.872 14.34c.497.028 1-.029 1.496.002a2.31 2.31 0 0 0 1.572-.555 1.4 1.4 0 0 0 .491-.687c.086-.27.083-.559-.01-.827a1.684 1.684 0 0 0-.53-.813 1.865 1.865 0 0 0-.913-.419 8.718 8.718 0 0 0-1.208-.108l-.002.03c-.268 0-.535-.013-.798 0a2.043 2.043 0 0 0-1.255.416 1.816 1.816 0 0 0-.681 1.073c-.02.238.013.478.097.704.083.226.215.434.387.61.172.177.38.32.614.418.232.098.484.151.74.155Z" fill="#fff"/><path d="M9.872 14.34c.497.028 1-.029 1.496.002a2.31 2.31 0 0 0 1.572-.555 1.4 1.4 0 0 0 .491-.687c.086-.27.083-.559-.01-.827a1.684 1.684 0 0 0-.53-.813 1.865 1.865 0 0 0-.913-.419 8.718 8.718 0 0 0-1.208-.108l-.002.03c-.268 0-.535-.013-.798 0a2.043 2.043 0 0 0-1.255.416 1.816 1.816 0 0 0-.681 1.073c-.02.238.013.478.097.704.083.226.215.434.387.61.172.177.38.32.614.418.232.098.484.151.74.155Zm41.533-2.862a11.85 11.85 0 0 0-1.578-.008c-1.669-.02-3.337-.061-5.006-.063-7.756-.008-15.511-.01-23.267-.005-1.032 0-2.064-.005-3.096 0a2.019 2.019 0 0 0-.913.16c-.286.123-.534.31-.724.545-.887 1.201-.14 2.546 1.439 2.68a4.33 4.33 0 0 1 1.096.197c.281.095.53.257.725.469.195.212.327.468.384.742.057.275.037.559-.058.824a1.611 1.611 0 0 1-.484.689c-.417.364-.97.558-1.54.54-1.845.002-3.69 0-5.535.005a4.106 4.106 0 0 0-.792.07c-.26.035-.509.124-.727.262-.219.137-.4.32-.533.532a1.538 1.538 0 0 0-.115 1.419c.161.346.432.637.776.835.344.198.744.292 1.147.27 2.424.011 4.848-.013 7.271.02.481.01.954.125 1.38.334.223.11.415.266.564.456a1.453 1.453 0 0 1 .252 1.337c-.07.227-.194.435-.362.61a2.154 2.154 0 0 1-.784.543 2.29 2.29 0 0 1-.96.166c-1.22.004-2.439 0-3.659.004a4.163 4.163 0 0 0-.748.057c-.405.06-.777.244-1.059.524-.28.279-.455.638-.496 1.02-.015.377.108.748.348 1.05.24.304.583.521.972.618.272.059.547.1.825.126.401.036.796.114 1.179.233.261.093.493.246.675.445.183.198.31.436.369.692.059.256.05.522-.029.773a1.55 1.55 0 0 1-.417.667 2.237 2.237 0 0 1-.81.51 2.36 2.36 0 0 1-.966.136c-2.143-.002-4.285 0-6.427.003a3.758 3.758 0 0 0-.792.064 1.871 1.871 0 0 0-.92.412 1.689 1.689 0 0 0-.54.81 1.397 1.397 0 0 0 0 .87c.092.283.273.534.518.721a2.402 2.402 0 0 0 1.595.524c4.707-.008 9.413-.01 14.12-.003.328-.002.655.024.977.08.386.076.737.262 1.004.533.268.271.438.614.488.98.024.33-.062.661-.245.945-.183.285-.455.51-.779.645a3.638 3.638 0 0 1-1.306.264c-2.126.026-4.253.02-6.38.004a1.902 1.902 0 0 0-1.163.306 1.74 1.74 0 0 0-.648.62 1.592 1.592 0 0 0-.23.84c.027.308.143.603.334.854.192.25.453.448.755.571.72.373 1.507.2 2.257.204 4.878.026 9.757.013 14.636.013v-.005h1.536L35.5 33.5l1.061-18.795c11.056-5.746-.164-.156 0 0-.102-.324-10.567.165-12.24 0-.02-.498.691 3.754.734 3.257.033-.515.098-1.03.195-1.538.06-.348.167-.687.317-1.01.093-.211.24-.398.427-.544.506 5.13 10.366-.17 10.567-.165h16.45a299 299 0 0 0 .05-1.338 1.746 1.746 0 0 0-.439-1.244 1.977 1.977 0 0 0-1.217-.645Zm-26.2 17.091a1.91 1.91 0 0 1 1.201.533c.317.31.5.72.514 1.148a1.799 1.799 0 0 1-.584 1.165c-.337.31-.782.497-1.254.525-.464.042-.936.007-1.404.007l-.011.096a13.378 13.378 0 0 1-1.968-.275 1.761 1.761 0 0 1-.91-.625 1.577 1.577 0 0 1-.319-1.012c.036-.384.21-.745.494-1.024.284-.28.66-.46 1.069-.513a19.667 19.667 0 0 1 3.172-.023v-.002Z" fill="#fff"/><path d="M42 25.998h4.894c.304.006.61-.005.896-.032.286-.027.547-.069.765-.124.218-.055.388-.121.499-.195.11-.073.16-.151.145-.23.046-.376.12-.751.19-1.127.12-.646.248-1.292.368-1.939.084-.45.165-.9.243-1.351h-6.647L42 25.998Z" fill="#fff"/><path d="M42 25.998h4.894c.304.006.61-.005.896-.032.286-.027.547-.069.765-.124.218-.055.388-.121.499-.195.11-.073.16-.151.145-.23.046-.376.12-.751.19-1.127.12-.646.248-1.292.368-1.939.084-.45.165-.9.243-1.351h-6.647L42 25.998Zm-1 11h4.894c.304.006.61-.005.896-.032.286-.027.547-.069.765-.124.218-.055.388-.121.499-.195.11-.073.16-.151.145-.23.046-.376.12-.751.19-1.127.12-.646.248-1.292.368-1.939.084-.45.165-.9.243-1.351h-6.647L41 36.998Z" fill="#fff"/><path d="M41 36.998h4.894c.304.006.61-.005.896-.032.286-.027.547-.069.765-.124.218-.055.388-.121.499-.195.11-.073.16-.151.145-.23.046-.376.12-.751.19-1.127.12-.646.248-1.292.368-1.939.084-.45.165-.9.243-1.351h-6.647L41 36.998Z" fill="#fff"/></svg>