<svg width="134" height="47" fill="none" xmlns="http://www.w3.org/2000/svg"><path d="M29.592 9.488c.378.012.534-.12.56-.465.13-1.655.927-3.202 2.228-4.329a7.194 7.194 0 0 1 2.774-1.705 7.59 7.59 0 0 1 3.297-.346c1.37.175 2.615.836 3.478 1.847a4.827 4.827 0 0 1 1.16 3.583 1.27 1.27 0 0 0 1.263 1.403c.359-.002.714-.005 1.068-.015.093-.003.24-.175.26-.284a7.434 7.434 0 0 0-1.027-5.495c-.945-1.43-2.36-2.535-4.032-3.148a8.824 8.824 0 0 0-5.243-.25 10.735 10.735 0 0 0-4.277 2.01A9.87 9.87 0 0 0 28.23 5.88a8.326 8.326 0 0 0-.546 1.411c-.335 1.177.685 2.159 1.908 2.197ZM8.568 28.058a3.13 3.13 0 0 0 1.13-.228c.272-.098.512-.262.695-.476a1.5 1.5 0 0 0 .342-.74 1.45 1.45 0 0 0-.104-.801 1.556 1.556 0 0 0-.522-.642 2.586 2.586 0 0 0-1.411-.478c-2.203-.05-4.408-.025-6.612-.02a2.548 2.548 0 0 0-.603.069 1.933 1.933 0 0 0-.886.429 1.752 1.752 0 0 0-.528.792c-.093.283-.092.585.002.868.094.282.278.531.526.714.408.352.946.54 1.5.524h3.236c1.078 0 2.158.019 3.235-.01ZM9.872 14.34c.497.028 1-.029 1.496.002a2.31 2.31 0 0 0 1.572-.555 1.4 1.4 0 0 0 .491-.687c.086-.27.083-.559-.01-.827a1.684 1.684 0 0 0-.53-.813 1.865 1.865 0 0 0-.913-.419 8.537 8.537 0 0 0-1.192-.108.016.016 0 0 0-.017.015.016.016 0 0 1-.016.015c-.262 0-.524-.013-.783 0a2.043 2.043 0 0 0-1.255.416 1.816 1.816 0 0 0-.681 1.073c-.02.238.013.478.097.704.083.226.215.434.387.61.172.177.38.32.614.418.232.098.484.151.74.155Z" fill="#3B82F6"/><path d="M9.872 14.34c.497.028 1-.029 1.496.002a2.31 2.31 0 0 0 1.572-.555 1.4 1.4 0 0 0 .491-.687c.086-.27.083-.559-.01-.827a1.684 1.684 0 0 0-.53-.813 1.865 1.865 0 0 0-.913-.419 8.537 8.537 0 0 0-1.192-.108.016.016 0 0 0-.017.015.016.016 0 0 1-.016.015c-.262 0-.524-.013-.783 0a2.043 2.043 0 0 0-1.255.416 1.816 1.816 0 0 0-.681 1.073c-.02.238.013.478.097.704.083.226.215.434.387.61.172.177.38.32.614.418.232.098.484.151.74.155Zm41.533-2.862a11.85 11.85 0 0 0-1.578-.008c-1.669-.02-3.337-.061-5.006-.063-7.756-.008-15.511-.01-23.267-.005-1.032 0-2.064-.005-3.096 0a2.019 2.019 0 0 0-.913.16c-.286.123-.534.31-.724.545-.887 1.201-.14 2.546 1.439 2.68a4.33 4.33 0 0 1 1.096.197c.281.095.53.257.725.469.195.212.327.468.384.742.057.275.037.559-.058.824a1.611 1.611 0 0 1-.484.689c-.417.364-.97.558-1.54.54-1.845.002-3.69 0-5.535.005a4.106 4.106 0 0 0-.792.07c-.26.035-.509.124-.727.262-.219.137-.4.32-.533.532a1.538 1.538 0 0 0-.115 1.419c.161.346.432.637.776.835.344.198.744.292 1.147.27 2.424.011 4.848-.013 7.271.02.481.01.954.125 1.38.334.223.11.415.266.564.456a1.453 1.453 0 0 1 .252 1.337c-.07.227-.194.435-.362.61a2.154 2.154 0 0 1-.784.543 2.29 2.29 0 0 1-.96.166c-1.22.004-2.439 0-3.659.004a4.163 4.163 0 0 0-.748.057c-.405.06-.777.244-1.059.524-.28.279-.455.638-.496 1.02-.015.377.108.748.348 1.05.24.304.583.521.972.618.272.059.547.1.825.126.401.036.796.114 1.179.233.261.093.493.246.675.445.183.198.31.436.369.692.059.256.05.522-.029.773a1.55 1.55 0 0 1-.417.667 2.237 2.237 0 0 1-.81.51 2.36 2.36 0 0 1-.966.136c-2.143-.002-4.285 0-6.427.003a3.758 3.758 0 0 0-.792.064 1.871 1.871 0 0 0-.92.412 1.689 1.689 0 0 0-.54.81 1.397 1.397 0 0 0 0 .87c.092.283.273.534.518.721a2.402 2.402 0 0 0 1.595.524c4.707-.008 9.413-.01 14.12-.003.328-.002.655.024.977.08.386.076.737.262 1.004.533.268.271.438.614.488.98.024.33-.062.661-.245.945-.183.285-.455.51-.779.645a3.638 3.638 0 0 1-1.306.264c-2.126.026-4.253.02-6.38.004a1.902 1.902 0 0 0-1.163.306 1.74 1.74 0 0 0-.648.62 1.592 1.592 0 0 0-.23.84c.027.308.143.603.334.854.192.25.453.448.755.571.72.373 1.507.2 2.257.204 4.877.026 9.755.013 14.633.013a.002.002 0 0 0 .003-.002c0-.002 0-.003.002-.003h.79a.793.793 0 0 0 .792-.742L35.5 33.5l1.061-18.795c11.056-5.746-.164-.156 0 0-.07-.224-5.09-.06-8.738.009-2.01.037-2.939 5.252-2.768 3.248.033-.515.349-.953.445-1.462.061-.348-.083-.763.067-1.087.403-.909-1.205 2.999-.25 3.276 3.203.93 11.08-3.988 11.244-3.984h15.112c.747 0 1.362-.59 1.388-1.338a1.746 1.746 0 0 0-.439-1.244 1.977 1.977 0 0 0-1.217-.645Zm-26.2 17.092a1.91 1.91 0 0 1 1.201.532c.317.31.5.72.514 1.148a1.799 1.799 0 0 1-.584 1.165c-.337.31-.782.497-1.254.525-.448.04-.904.01-1.357.007-.027 0-.05.02-.052.047a.052.052 0 0 1-.056.046 13.369 13.369 0 0 1-1.918-.272 1.761 1.761 0 0 1-.91-.625 1.577 1.577 0 0 1-.319-1.012c.036-.384.21-.745.494-1.024.284-.28.66-.46 1.069-.513a19.669 19.669 0 0 1 3.172-.024Z" fill="#3B82F6"/><path d="M42.853 22.846a2.5 2.5 0 0 0 2.413 3.152h1.628c.304.006.61-.005.896-.032.286-.027.547-.069.765-.124.218-.055.388-.121.499-.195.16-.105.155-.327.184-.516.044-.28.099-.56.15-.84.12-.647.249-1.293.37-1.94A1.145 1.145 0 0 0 48.626 21h-3.361a2.5 2.5 0 0 0-2.413 1.846Z" fill="#3B82F6"/><path d="M42.853 22.846a2.5 2.5 0 0 0 2.413 3.152h1.628c.304.006.61-.005.896-.032.286-.027.547-.069.765-.124.218-.055.388-.121.499-.195.16-.105.155-.327.184-.516.044-.28.099-.56.15-.84.12-.647.249-1.293.37-1.94A1.145 1.145 0 0 0 48.626 21h-3.361a2.5 2.5 0 0 0-2.413 1.846Zm-1 11A2.5 2.5 0 0 0 44.266 37h1.628c.304.005.61-.006.896-.033.286-.027.547-.069.765-.124.218-.055.388-.121.499-.195.16-.105.155-.327.184-.516.044-.28.099-.56.15-.84.12-.647.249-1.293.37-1.94A1.145 1.145 0 0 0 47.626 32h-3.361a2.5 2.5 0 0 0-2.413 1.846Z" fill="#3B82F6"/><path d="M41.853 33.846A2.5 2.5 0 0 0 44.266 37h1.628c.304.005.61-.006.896-.033.286-.027.547-.069.765-.124.218-.055.388-.121.499-.195.16-.105.155-.327.184-.516.044-.28.099-.56.15-.84.12-.647.249-1.293.37-1.94A1.145 1.145 0 0 0 47.626 32h-3.361a2.5 2.5 0 0 0-2.413 1.846ZM71.06 41h-4.113L59.62 28.776h-.261v5.981L59.47 41h-3.477l.224-5.308-.15-12.71h4.076l7.327 12.186h.261l-.15-12.037 3.552-.224-.224 12.523.15 5.57Zm9.927-2.879h6.056l3.066-.261.112.224-.262 2.99L85.847 41H78.67l-2.169.112v-2.729l9.084-12.523h-5.757l-3.028.262-.186-.187.299-2.991 11.29.037 1.756-.037v2.766l-8.972 12.411Zm21.524-15.401c2.642 0 4.648.772 6.019 2.317 1.371 1.546 2.056 3.801 2.056 6.767s-.748 5.296-2.243 6.99c-1.47 1.67-3.526 2.505-6.168 2.505-2.617 0-4.61-.785-5.981-2.355-1.371-1.595-2.057-3.876-2.057-6.841 0-2.966.736-5.271 2.206-6.916 1.495-1.645 3.551-2.467 6.168-2.467Zm-.149 3.065c-1.496 0-2.58.474-3.253 1.42-.672.923-1.009 2.505-1.009 4.748 0 2.243.324 3.876.972 4.897.673.997 1.769 1.496 3.29 1.496 1.52 0 2.604-.461 3.252-1.383.673-.947 1.009-2.542 1.009-4.785 0-2.268-.336-3.9-1.009-4.898-.648-.997-1.732-1.495-3.252-1.495ZM130.955 41h-4.112l-7.328-12.224h-.261v5.981l.112 6.243h-3.477l.225-5.308-.15-12.71h4.075l7.327 12.186h.262l-.15-12.037 3.552-.224-.225 12.523.15 5.57Z" fill="#3B82F6"/></svg>