<svg width="21" height="20" viewBox="0 0 21 20" fill="none" xmlns="http://www.w3.org/2000/svg">
<path d="M6.02637 0.00537109C8.44303 0.00537109 10.8597 0.00537109 13.2764 0.00537109C13.2087 0.0730794 13.0837 0.0574544 13.042 0.161621C12.7764 0.281413 12.6774 0.510579 12.6566 0.781413C12.6462 0.968912 12.6514 1.15641 12.6514 1.34391C12.5732 1.3387 12.4951 1.3335 12.417 1.3335C11.0732 1.3335 9.7347 1.3335 8.39095 1.3335C7.81283 1.3335 7.2347 1.3387 6.66178 1.3387C6.66178 1.26058 6.66178 1.18245 6.65658 1.10954C6.64616 0.948079 6.67741 0.786621 6.63574 0.630371C6.5472 0.302246 6.31283 0.130371 6.02637 0.00537109Z" fill="#FEFEFE"/>
<path d="M6.0262 0.00537109C6.31266 0.130371 6.54704 0.307455 6.63037 0.630371C6.67204 0.79183 6.64079 0.94808 6.6512 1.10954C6.65641 1.18766 6.65641 1.26579 6.65641 1.3387C6.65641 1.68766 6.66162 2.03662 6.66162 2.38037C6.65641 2.5835 6.63558 2.78141 6.53141 2.96371C6.49495 3.00016 6.4637 3.04183 6.42725 3.07829C6.13558 3.38037 5.66162 3.42204 5.34912 3.16683C5.61475 3.04704 5.7085 2.82308 5.7085 2.55746C5.71891 1.99495 5.70329 1.43245 5.7137 0.869955C5.71891 0.562663 5.59912 0.333496 5.35954 0.161621C5.42725 0.0730794 5.55225 0.0782878 5.63037 0.00537109C5.76579 0.00537109 5.896 0.00537109 6.0262 0.00537109Z" fill="#D3DBFA"/>
<path d="M13.042 0.161621C13.0889 0.0574544 13.2087 0.0730794 13.2764 0.00537109C13.4066 0.00537109 13.5368 0.00537109 13.667 0.00537109C13.943 0.135579 14.2035 0.286621 14.2712 0.609538C14.3076 0.770996 14.2816 0.942871 14.292 1.11475C14.2972 1.18766 14.266 1.271 14.3285 1.3335C14.3285 1.68245 14.3285 2.03141 14.3232 2.38037C14.3128 2.5835 14.2816 2.78141 14.1774 2.96371C13.818 3.38037 13.3545 3.4585 12.9951 3.16683C13.3024 3.03141 13.3753 2.75537 13.3857 2.46891C13.4066 1.93245 13.3962 1.396 13.391 0.859538C13.3857 0.57308 13.2712 0.333496 13.042 0.161621Z" fill="#D3DBFA"/>
<path d="M1 14.1929C1 11.5106 1 8.82829 1 6.146C1 6.09391 1.00521 6.04183 1.00521 5.98975C1.0625 5.98975 1.11979 5.99495 1.18229 5.99495C6.52084 5.99495 11.8594 5.99495 17.1979 5.99495C17.2552 5.99495 17.3125 5.98975 17.375 5.98975L17.3698 6.00537C17.3698 7.59391 17.3646 9.18245 17.3646 10.7762C17.3385 10.7658 17.3177 10.7554 17.2969 10.745C16.3906 10.1772 15.401 9.92725 14.3333 9.98975C13.8125 10.0262 13.3125 10.1408 12.8281 10.3231C12.4063 10.4845 12.0365 10.7293 11.651 10.9533C11.651 10.7345 11.651 10.5158 11.6458 10.297C11.6406 10.1043 11.5208 9.98454 11.3281 9.98454C11.0833 9.97933 10.8385 9.98454 10.5938 9.98975C10.401 10.0366 10.3229 10.1668 10.3177 10.3595C10.3177 10.5522 10.3177 10.7502 10.3177 10.9429C10.3177 11.1147 10.3854 11.2397 10.5573 11.3022C10.776 11.3075 11 11.3127 11.2188 11.3179C11.1979 11.3491 11.1823 11.3856 11.1563 11.4116C10.625 11.9272 10.2396 12.5314 9.97396 13.2241C9.71355 13.9012 9.63542 14.6043 9.65625 15.3231C7.48959 15.3231 5.32292 15.3231 3.15625 15.3231C2.82813 15.3231 2.5 15.3387 2.16667 15.2918C1.79688 15.2345 1.5 15.0679 1.27083 14.771C1.13542 14.5939 1.08333 14.3856 1 14.1929ZM5.28646 8.6512C5.52083 8.6512 5.75521 8.65641 5.98438 8.65641C6.19271 8.6512 6.32292 8.5262 6.32813 8.31787C6.33854 8.09912 6.33854 7.87516 6.32813 7.65641C6.32292 7.44808 6.20313 7.32829 6 7.32308C5.76042 7.31787 5.52083 7.32829 5.28125 7.32829C5.08333 7.34391 4.99479 7.46891 4.98958 7.6512C4.97917 7.87516 4.97917 8.10433 4.98958 8.3335C5 8.51058 5.09375 8.63037 5.28646 8.6512ZM15.8854 7.3335C15.7083 7.36475 15.6406 7.48454 15.6354 7.6512C15.6302 7.87516 15.6302 8.10433 15.6354 8.32829C15.6406 8.51579 15.7344 8.62516 15.9219 8.6512C16.1563 8.6512 16.3906 8.66162 16.6198 8.65641C16.8281 8.6512 16.9583 8.5262 16.9635 8.31787C16.9688 8.09912 16.9688 7.87516 16.9635 7.65641C16.9583 7.4585 16.849 7.3335 16.6563 7.32308C16.4063 7.31266 16.1458 7.29704 15.8854 7.3335ZM7.9375 8.6512C8.17709 8.6512 8.41667 8.66162 8.65625 8.65641C8.84896 8.6512 8.97917 8.53141 8.98438 8.34912C8.98959 8.10954 8.99479 7.86995 8.98438 7.63037C8.97917 7.45329 8.875 7.3387 8.69271 7.32829C8.42709 7.31787 8.16146 7.30225 7.90104 7.3387C7.72917 7.38037 7.66146 7.49495 7.66146 7.66162C7.66146 7.88037 7.66146 8.09912 7.66146 8.32308C7.66146 8.50537 7.75 8.61995 7.9375 8.6512ZM5.25 9.98975C5.07813 10.0262 5 10.146 4.99479 10.3075C4.98438 10.5314 4.98438 10.7606 4.99479 10.9897C5.00521 11.1668 5.08854 11.297 5.29167 11.3075C5.52604 11.3075 5.75521 11.3179 5.98958 11.3127C6.20313 11.3075 6.32813 11.1929 6.33854 10.9793C6.34896 10.7606 6.34896 10.5366 6.33854 10.3179C6.32813 10.1043 6.20313 9.98454 5.99479 9.98454C5.73958 9.97933 5.49479 9.98454 5.25 9.98975ZM7.90104 11.297C8.16667 11.3022 8.43229 11.3127 8.69792 11.3022C8.88021 11.297 8.97917 11.1772 8.98959 11.0002C9 10.7606 8.99479 10.521 8.98959 10.2814C8.98438 10.12 8.89063 9.99495 8.73438 9.98454C8.44792 9.97412 8.15625 9.94287 7.86459 10.0002C7.71875 10.0418 7.66146 10.1512 7.66146 10.2918C7.65625 10.5158 7.66146 10.745 7.66146 10.9689C7.65625 11.1408 7.72917 11.2554 7.90104 11.297ZM10.5521 7.3387C10.3802 7.38558 10.3177 7.50537 10.3177 7.67204C10.3177 7.88558 10.3177 8.09912 10.3177 8.31266C10.3177 8.49495 10.4063 8.61475 10.5938 8.65641C10.8385 8.65641 11.0833 8.66683 11.3333 8.66162C11.5208 8.65641 11.6406 8.54704 11.6458 8.36475C11.6563 8.11995 11.651 7.87516 11.6458 7.62516C11.6406 7.45329 11.5417 7.34391 11.3698 7.3335C11.0938 7.31266 10.8177 7.29704 10.5521 7.3387ZM2.5625 11.297C2.83333 11.3283 3.10417 11.3127 3.375 11.3075C3.55208 11.3022 3.65104 11.1877 3.66146 11.021C3.67708 10.771 3.67708 10.5158 3.66146 10.2658C3.65104 10.0783 3.52604 9.97933 3.33854 9.97933C3.09375 9.97933 2.84896 9.98454 2.60417 9.98454C2.41146 10.021 2.33854 10.1512 2.33333 10.3335C2.32813 10.5418 2.33333 10.7502 2.33333 10.9585C2.32813 11.12 2.39583 11.245 2.5625 11.297ZM7.89584 13.9533C8.17188 14.0054 8.44792 13.995 8.72396 13.9637C8.89063 13.9429 8.97917 13.8179 8.98438 13.6512C8.98959 13.422 8.98959 13.1981 8.98438 12.9689C8.97917 12.771 8.85417 12.6408 8.65625 12.6356C8.41667 12.6304 8.17709 12.6356 7.9375 12.6408C7.75 12.672 7.66146 12.7866 7.65625 12.9741C7.65625 13.1981 7.65625 13.4272 7.65625 13.6512C7.66146 13.8127 7.73438 13.922 7.89584 13.9533ZM5.24479 13.9585C5.51563 14.0106 5.78646 13.995 6.05729 13.9689C6.22917 13.9533 6.32292 13.8283 6.32813 13.6616C6.33854 13.4272 6.33854 13.1929 6.32813 12.9585C6.31771 12.771 6.1875 12.6408 6.00521 12.6356C5.75 12.6304 5.5 12.6408 5.24479 12.6408C5.0625 12.6877 4.98438 12.8179 4.98438 13.0002C4.98438 13.2085 4.97917 13.4168 4.98438 13.62C4.99479 13.7918 5.05729 13.9272 5.24479 13.9585ZM13.2396 8.646C13.474 8.646 13.7083 8.65641 13.9375 8.6512C14.1771 8.6512 14.3021 8.53662 14.3125 8.30225C14.3229 8.0887 14.3229 7.87516 14.3125 7.66162C14.3073 7.48454 14.2292 7.3387 14.0313 7.32308C13.7552 7.30225 13.474 7.28662 13.1979 7.3335C13.0365 7.38037 12.974 7.49495 12.9688 7.6512C12.9635 7.86475 12.9635 8.07829 12.9688 8.29183C12.974 8.47933 13.0521 8.60433 13.2396 8.646ZM2.59896 8.646C2.83854 8.646 3.07813 8.65641 3.31771 8.6512C3.52604 8.6512 3.65104 8.54704 3.66667 8.3387C3.68229 8.09912 3.67708 7.85954 3.66667 7.61995C3.65625 7.45329 3.56771 7.3335 3.39583 7.31787C3.11979 7.29704 2.84375 7.28141 2.56771 7.32829C2.39583 7.37516 2.33854 7.50016 2.33854 7.66683C2.33854 7.87516 2.33333 8.0835 2.33854 8.28662C2.33333 8.47933 2.41146 8.60433 2.59896 8.646ZM2.59896 12.6408C2.40625 12.6877 2.32813 12.8231 2.32813 13.0106C2.32813 13.2137 2.32813 13.4116 2.32813 13.6147C2.32813 13.7762 2.38542 13.9064 2.55729 13.9533C2.83854 14.0158 3.125 13.995 3.40625 13.9637C3.57813 13.9429 3.66146 13.8127 3.66667 13.646C3.67708 13.422 3.67708 13.1929 3.66667 12.9637C3.65625 12.7554 3.53125 12.6356 3.33333 12.6304C3.09375 12.6304 2.84375 12.6408 2.59896 12.6408Z" fill="#E9F4FB"/>
<path d="M12.9952 3.1665C13.3546 3.45817 13.8181 3.38004 14.1775 2.96338C14.4431 2.96338 14.7087 2.9738 14.9744 2.96338C15.1567 2.95817 15.2712 2.81755 15.2608 2.64046C15.2556 2.46859 15.1567 2.38525 14.9639 2.38005C14.7504 2.37484 14.5369 2.38005 14.3233 2.38005C14.3233 2.03109 14.3233 1.68213 14.3285 1.33317C14.9796 1.33317 15.6254 1.33838 16.2764 1.33838C16.3285 1.35921 16.3806 1.38525 16.4379 1.40609C17.0212 1.604 17.365 2.07796 17.365 2.69775C17.365 3.19254 17.3598 3.68734 17.3702 4.17692C17.3754 4.33317 17.3285 4.39046 17.1723 4.36963C17.1046 4.35921 17.0317 4.36963 16.9587 4.36963C11.641 4.36963 6.32332 4.36963 1.00561 4.36963C1.00561 3.78629 0.99519 3.20296 1.00561 2.61963C1.02123 1.90609 1.60456 1.34359 2.32852 1.33317C3.20873 1.32275 4.09415 1.32796 4.97436 1.32796C5.0004 1.67692 4.98998 2.02588 4.97957 2.37484C4.76082 2.37484 4.53686 2.37484 4.31811 2.37484C4.16707 2.37484 4.06811 2.44255 4.04207 2.59359C4.01082 2.75505 4.0629 2.90088 4.22436 2.93213C4.51082 2.98421 4.80769 2.99984 5.09936 2.92171C5.17748 3.01025 5.23477 3.11963 5.34936 3.1665C5.66186 3.4165 6.13582 3.38004 6.42748 3.07796C6.46394 3.0415 6.49519 3.00505 6.53165 2.96338C6.79207 2.96338 7.04728 2.96859 7.30769 2.96338C7.49519 2.95817 7.6254 2.82796 7.6254 2.6665C7.62019 2.49984 7.48998 2.38005 7.30769 2.38005C7.09415 2.38005 6.88061 2.38005 6.66707 2.38005C6.66707 2.03109 6.66186 1.68213 6.66186 1.33838C7.23998 1.33838 7.81811 1.33317 8.39103 1.33317C9.73478 1.33317 11.0733 1.33317 12.4171 1.33317C12.4952 1.33317 12.5733 1.33838 12.6514 1.34359C12.6462 1.67692 12.641 2.01546 12.641 2.3488C12.4223 2.354 12.2035 2.33317 11.9848 2.38005C11.7973 2.4165 11.6827 2.51546 11.6879 2.67171C11.6931 2.854 11.8181 2.96859 12.0212 2.96859C12.2764 2.9738 12.5264 2.96859 12.7817 2.96859C12.8494 3.02588 12.8962 3.12484 12.9952 3.1665Z" fill="#FE4155"/>
<path d="M11.6461 10.9533C12.0263 10.7241 12.4013 10.4793 12.8232 10.3231C13.3128 10.1408 13.8128 10.0262 14.3284 9.98975C14.3857 10.0106 14.443 10.047 14.5055 10.0575C15.5471 10.2085 16.4326 10.6825 17.1878 11.396C17.6721 11.8543 18.0367 12.4012 18.2971 13.021C18.6982 13.9793 18.8024 14.9689 18.5888 15.9845C18.3596 17.0679 17.8336 17.9793 16.9951 18.7189C16.4274 19.2189 15.7763 19.5627 15.0524 19.7762C14.8128 19.8491 14.5524 19.8439 14.3232 19.9585C12.2711 19.7554 10.8284 18.7137 9.99506 16.8283C9.96902 16.771 9.94298 16.7085 9.91694 16.6512C9.77631 16.2189 9.69298 15.7762 9.64089 15.3283C9.62006 14.6095 9.69819 13.9064 9.9586 13.2293C10.2242 12.5418 10.6096 11.9325 11.1409 11.4168C11.1669 11.3908 11.1826 11.3543 11.2034 11.3231C11.3753 11.2189 11.5107 11.0835 11.6461 10.9533ZM14.3232 18.6095C14.6513 18.6668 14.9794 18.6304 15.3024 18.5731C16.1409 18.4168 16.844 18.0158 17.3961 17.37C18.1513 16.4897 18.4378 15.4637 18.2399 14.3179C18.094 13.4637 17.6721 12.7502 17.0159 12.1877C16.2399 11.5262 15.3388 11.2345 14.3232 11.3179C14.2659 11.3231 14.2086 11.3335 14.1513 11.3387C12.1253 11.6043 10.6982 13.5158 11.0211 15.5314C11.2867 17.1981 12.6461 18.4637 14.3232 18.6095Z" fill="#4FABF6"/>
<path d="M17.3698 5.98942C17.3125 5.98942 17.2552 5.99463 17.1927 5.99463C11.8542 5.99463 6.51562 5.99463 1.17708 5.99463C1.11979 5.99463 1.0625 5.99463 1 5.98942C1 5.64046 1 5.29671 1 4.94775C5.26562 4.94775 9.53645 4.94775 13.8021 4.94775C14.9062 4.94775 16.0104 4.94775 17.1146 4.94775C17.3646 4.94775 17.3594 4.94775 17.3646 5.20296C17.3698 5.46859 17.3698 5.72901 17.3698 5.98942Z" fill="#FE4357"/>
<path d="M17.3698 5.98956C17.3698 5.72914 17.3646 5.46872 17.3646 5.20831C17.3646 4.9531 17.3646 4.9531 17.1146 4.9531C16.0104 4.9531 14.9062 4.9531 13.8021 4.9531C9.53645 4.9531 5.26562 4.9531 1 4.9531C1 4.76039 1 4.56247 1 4.36976C6.31771 4.36976 11.6354 4.36976 16.9531 4.36976C17.026 4.36976 17.099 4.36456 17.1667 4.36976C17.3229 4.3906 17.3646 4.3281 17.3646 4.17705C17.3542 3.68226 17.3594 3.19268 17.3594 2.69789C17.3594 2.0781 17.0156 1.60414 16.4323 1.40622C16.3802 1.38539 16.3281 1.36455 16.2708 1.33851C16.6042 1.33851 16.9427 1.29685 17.276 1.36976C17.8385 1.49997 18.2865 2.0208 18.2865 2.59372C18.2969 3.72914 18.2865 4.85935 18.2865 5.99476C17.9792 5.99997 17.6667 5.99997 17.3594 6.00518C17.3698 6.00518 17.3698 5.98956 17.3698 5.98956Z" fill="#E70054"/>
<path d="M9.65104 15.3177C9.70833 15.7656 9.78646 16.2135 9.92708 16.6406C7.41146 16.6406 4.89583 16.6406 2.375 16.6406C1.59896 16.6406 1 16.0365 1 15.2604C1 14.901 1 14.5469 1 14.1875C1.08333 14.3802 1.13542 14.5885 1.26562 14.7604C1.49479 15.0573 1.79167 15.224 2.16146 15.2813C2.48958 15.3333 2.81771 15.3125 3.15104 15.3125C5.31771 15.3229 7.48437 15.3177 9.65104 15.3177Z" fill="#D3DBFA"/>
<path d="M14.3335 19.9532C14.5627 19.8386 14.8179 19.8439 15.0627 19.7709C15.7866 19.5574 16.4377 19.2136 17.0054 18.7136C17.8439 17.9793 18.37 17.0626 18.5991 15.9793C18.8127 14.9636 18.7085 13.9741 18.3075 13.0157C18.047 12.4011 17.6825 11.8491 17.1981 11.3907C16.4429 10.6772 15.5575 10.2032 14.5158 10.0522C14.4533 10.0418 14.396 10.0105 14.3387 9.98447C15.4064 9.92197 16.396 10.172 17.3022 10.7397C17.3231 10.7553 17.3491 10.7605 17.37 10.7709C17.6981 11.0105 18.0106 11.2657 18.297 11.5522C18.797 12.1251 19.1825 12.7605 19.4116 13.4897C20.3023 16.3491 18.4533 19.3803 15.5158 19.8855C15.12 19.9532 14.7293 19.9689 14.3335 19.9532Z" fill="#1A87E9"/>
<path d="M18.2918 11.5522C18.0054 11.2658 17.6929 11.0106 17.3647 10.771C17.3647 9.18246 17.37 7.59391 17.37 6.00016C17.6772 5.99495 17.9897 5.99495 18.297 5.98975C18.297 7.84912 18.297 9.70329 18.2918 11.5522Z" fill="#D3DBFA"/>
<path d="M5.35449 3.16683C5.2347 3.11996 5.18262 3.00537 5.10449 2.92204C5.01595 2.75016 4.99512 2.56787 4.9847 2.38037C4.99512 2.03141 5.00553 1.68245 4.97949 1.3335C4.98991 1.14079 4.9847 0.953288 5.00553 0.76058C5.03678 0.494954 5.16178 0.307454 5.37012 0.161621C5.6097 0.338704 5.72949 0.562663 5.72428 0.869955C5.71387 1.43245 5.72428 1.99495 5.71907 2.55745C5.70866 2.82308 5.61491 3.05225 5.35449 3.16683Z" fill="#E9F4FB"/>
<path d="M12.9951 3.16667C12.8962 3.13021 12.8493 3.02604 12.7712 2.96354C12.6618 2.77083 12.641 2.5625 12.6357 2.34375C12.641 2.01042 12.6462 1.67188 12.6462 1.33854C12.6462 1.15104 12.641 0.963542 12.6514 0.776042C12.667 0.505208 12.7712 0.276042 13.0368 0.15625C13.2712 0.328125 13.3805 0.572917 13.3857 0.854167C13.3962 1.39062 13.4014 1.92708 13.3805 2.46354C13.3753 2.75 13.3024 3.03125 12.9951 3.16667Z" fill="#E9F4FB"/>
<path d="M6.66178 2.38024C6.87533 2.38024 7.08887 2.37504 7.30241 2.38024C7.4847 2.38024 7.62012 2.50524 7.62012 2.6667C7.62533 2.83337 7.48991 2.95837 7.30241 2.96358C7.04199 2.96879 6.78678 2.96358 6.52637 2.96358C6.63574 2.78129 6.66178 2.58337 6.66178 2.38024Z" fill="#E70054"/>
<path d="M14.3285 2.38024C14.542 2.38024 14.7555 2.37504 14.9691 2.38024C15.1618 2.38545 15.2555 2.46879 15.266 2.64066C15.2764 2.81775 15.1566 2.95837 14.9795 2.96358C14.7139 2.974 14.4482 2.96358 14.1826 2.96358C14.2816 2.78129 14.318 2.58337 14.3285 2.38024Z" fill="#E70054"/>
<path d="M2.59896 12.6407C2.84375 12.6355 3.08854 12.6302 3.33854 12.6355C3.53646 12.6407 3.66146 12.7605 3.67187 12.9688C3.68229 13.1927 3.68229 13.4219 3.67187 13.6511C3.66667 13.8125 3.58333 13.948 3.41146 13.9688C3.13021 14 2.84375 14.0209 2.5625 13.9584C2.59896 13.875 2.70312 13.8386 2.71354 13.7396C2.76562 13.3594 2.80729 12.9896 2.59896 12.6407Z" fill="#2C448D"/>
<path d="M2.5625 7.33874C2.83854 7.29187 3.11458 7.30749 3.39063 7.32833C3.56771 7.33874 3.65625 7.46374 3.66146 7.63041C3.67188 7.86999 3.67708 8.10958 3.66146 8.34916C3.65104 8.55228 3.52083 8.65645 3.3125 8.66166C3.07292 8.66166 2.83333 8.65645 2.59375 8.65645C2.59896 8.63562 2.59896 8.61478 2.60938 8.59916C2.83854 8.25541 2.8125 7.63562 2.5625 7.33874Z" fill="#2C448D"/>
<path d="M13.1982 7.33874C13.4743 7.28665 13.7555 7.30228 14.0316 7.32832C14.2295 7.34394 14.3024 7.48978 14.3128 7.66686C14.3232 7.8804 14.3232 8.09394 14.3128 8.30748C14.3024 8.54186 14.1722 8.65644 13.9378 8.65644C13.7035 8.65644 13.4691 8.65123 13.2399 8.65123C13.2451 8.6304 13.2451 8.60956 13.2555 8.59394C13.4795 8.2554 13.4535 7.63561 13.1982 7.33874Z" fill="#2C448D"/>
<path d="M5.25 12.6459C5.50521 12.6407 5.75521 12.6303 6.01042 12.6407C6.19271 12.6459 6.32292 12.7761 6.33334 12.9636C6.34375 13.198 6.34375 13.4324 6.33334 13.6667C6.32292 13.8334 6.23438 13.9584 6.0625 13.974C5.79167 14.0001 5.52083 14.0157 5.25 13.9636C5.30208 13.8751 5.40625 13.8126 5.40104 13.7032C5.375 13.3438 5.50521 12.9636 5.25 12.6459Z" fill="#2C448D"/>
<path d="M7.93766 12.6405C8.17724 12.6405 8.41683 12.63 8.65641 12.6352C8.85432 12.6405 8.97932 12.7707 8.98453 12.9686C8.98974 13.1978 8.98974 13.4217 8.98453 13.6509C8.97932 13.8228 8.89599 13.9426 8.72412 13.9634C8.44808 13.9946 8.17204 14.0103 7.896 13.953C8.021 13.828 8.06266 13.6769 8.05225 13.4946C8.04183 13.2082 8.09912 12.9113 7.93766 12.6405Z" fill="#2C448D"/>
<path d="M2.59928 9.98421C2.84408 9.98421 3.08887 9.979 3.33366 9.979C3.52116 9.979 3.64616 10.078 3.65657 10.2655C3.6722 10.5155 3.6722 10.7707 3.65657 11.0207C3.64616 11.1873 3.5472 11.3019 3.37012 11.3071C3.09928 11.3123 2.82845 11.328 2.55762 11.2967C2.66699 11.1925 2.74512 11.0675 2.74512 10.9113C2.75033 10.5936 2.80762 10.2707 2.59928 9.98421Z" fill="#2C448D"/>
<path d="M10.5522 7.33875C10.8231 7.29708 11.0939 7.31271 11.3647 7.32833C11.5366 7.33875 11.6356 7.44812 11.6408 7.62C11.646 7.86479 11.6512 8.10958 11.6408 8.35958C11.6356 8.54188 11.5106 8.65646 11.3283 8.65646C11.0835 8.66167 10.8387 8.65125 10.5887 8.65125C10.6772 8.50021 10.7241 8.33875 10.7085 8.15646C10.6981 8.02625 10.6981 7.89604 10.7085 7.77104C10.7241 7.59396 10.6825 7.45333 10.5522 7.33875Z" fill="#2B438C"/>
<path d="M7.86475 10.005C8.15121 9.94773 8.44287 9.97377 8.73454 9.98939C8.89079 9.9946 8.98454 10.1248 8.98975 10.2863C8.99496 10.5259 9.00017 10.7654 8.98975 11.005C8.98454 11.1821 8.88037 11.3019 8.69808 11.3071C8.43246 11.3175 8.16683 11.3019 7.9012 11.3019C8.0262 11.1821 8.06787 11.0363 8.05745 10.8644C8.04704 10.6821 8.05225 10.4998 8.05745 10.3175C8.05225 10.1717 8.00537 10.0623 7.86475 10.005Z" fill="#2B438C"/>
<path d="M5.25 9.98958C5.49479 9.98958 5.73958 9.98438 5.98958 9.98438C6.19792 9.98438 6.32813 10.1042 6.33334 10.3177C6.34375 10.5365 6.34375 10.7604 6.33334 10.9792C6.32292 11.1927 6.20313 11.3073 5.98438 11.3125C5.75 11.3177 5.52083 11.3073 5.28646 11.3073C5.45833 10.8594 5.49479 10.4167 5.25 9.98958Z" fill="#2B438C"/>
<path d="M7.90137 7.33339C8.16699 7.29693 8.43262 7.31255 8.69304 7.32297C8.87533 7.33339 8.9795 7.44797 8.9847 7.62505C8.99512 7.86464 8.99512 8.10422 8.9847 8.34381C8.9795 8.5261 8.84929 8.6511 8.65658 8.6511C8.41699 8.65631 8.17741 8.64589 7.93783 8.64589C8.02637 8.49485 8.07324 8.33339 8.05762 8.1511C8.0472 8.03131 8.0472 7.90631 8.05762 7.78651C8.07324 7.60943 8.02637 7.45839 7.90137 7.33339Z" fill="#2B438C"/>
<path d="M15.8857 7.33339C16.1462 7.29693 16.4014 7.31255 16.6618 7.32297C16.8545 7.32818 16.9639 7.45318 16.9691 7.6563C16.9743 7.87505 16.9743 8.09901 16.9691 8.31776C16.9639 8.52609 16.8337 8.65109 16.6253 8.6563C16.3909 8.66151 16.1566 8.65109 15.9274 8.65109C16.0784 8.38026 16.0316 8.08339 16.0472 7.79172C16.0524 7.60943 16.016 7.45839 15.8857 7.33339Z" fill="#2B438C"/>
<path d="M5.28662 7.32802C5.5262 7.32282 5.76579 7.3124 6.00537 7.32282C6.2085 7.32802 6.32829 7.44782 6.3335 7.65615C6.34392 7.8749 6.34392 8.09886 6.3335 8.31761C6.32829 8.52594 6.19808 8.65615 5.98975 8.65615C5.75537 8.66136 5.5262 8.65615 5.29183 8.65094C5.2762 8.53115 5.41162 8.46344 5.40641 8.34886C5.38037 8.00511 5.48454 7.65094 5.28662 7.32802Z" fill="#2B438C"/>
<path d="M11.6458 10.9531C11.5104 11.0833 11.375 11.2135 11.2083 11.3125C10.9896 11.3073 10.7656 11.3021 10.5469 11.2969C10.5885 11.2239 10.6979 11.1823 10.6927 11.0989C10.6667 10.7292 10.8073 10.3385 10.5833 9.98958C10.8281 9.98958 11.0729 9.97916 11.3177 9.98437C11.5104 9.98958 11.6302 10.1042 11.6354 10.2969C11.651 10.5156 11.6458 10.7344 11.6458 10.9531Z" fill="#2B438C"/>
<path d="M5.28662 7.32812C5.48454 7.65104 5.38037 8.00521 5.40121 8.34896C5.40641 8.46354 5.271 8.53125 5.28662 8.65104C5.09391 8.63021 5.00016 8.51042 4.98975 8.32813C4.97933 8.10417 4.97933 7.875 4.98975 7.64583C5.00016 7.46875 5.0887 7.33854 5.28662 7.32812Z" fill="#425DA2"/>
<path d="M5.25016 9.98975C5.49495 10.422 5.45849 10.8595 5.28662 11.3075C5.0887 11.297 5.00016 11.1668 4.98975 10.9897C4.97933 10.7658 4.97933 10.5366 4.98975 10.3075C4.99495 10.1408 5.07829 10.0262 5.25016 9.98975Z" fill="#425DA2"/>
<path d="M5.25004 12.646C5.50525 12.9689 5.37504 13.3439 5.39587 13.6981C5.40108 13.8075 5.29691 13.87 5.24483 13.9585C5.05733 13.9272 4.99483 13.7918 4.98962 13.6252C4.98441 13.4168 4.98962 13.2085 4.98962 13.0054C4.98962 12.8179 5.06774 12.6929 5.25004 12.646Z" fill="#425DA2"/>
<path d="M13.1979 7.33838C13.4531 7.63525 13.4739 8.25505 13.25 8.59359C13.2396 8.60921 13.2396 8.63005 13.2344 8.65088C13.0469 8.60921 12.9687 8.479 12.9687 8.30192C12.9635 8.08838 12.9635 7.87484 12.9687 7.6613C12.974 7.49984 13.0365 7.38525 13.1979 7.33838Z" fill="#3F5BA1"/>
<path d="M2.59932 9.98438C2.80765 10.2656 2.75036 10.5937 2.75036 10.9062C2.75036 11.0625 2.67224 11.1875 2.56286 11.2917C2.3962 11.2396 2.32849 11.1198 2.32849 10.9531C2.32849 10.7448 2.32328 10.5365 2.32849 10.3281C2.3337 10.1562 2.40661 10.0208 2.59932 9.98438Z" fill="#3F5BA1"/>
<path d="M2.56286 7.33838C2.81807 7.63525 2.8389 8.25505 2.61495 8.59359C2.60453 8.60921 2.60453 8.63005 2.59932 8.65088C2.41182 8.60921 2.3337 8.48421 2.32849 8.30192C2.32328 8.09359 2.32849 7.88525 2.32849 7.68213C2.3337 7.51025 2.39099 7.38525 2.56286 7.33838Z" fill="#3F5BA1"/>
<path d="M2.59936 12.6406C2.80249 12.9844 2.76603 13.3594 2.71395 13.7292C2.69832 13.8281 2.59936 13.8646 2.56291 13.9479C2.39103 13.901 2.33374 13.776 2.33374 13.6094C2.33374 13.4063 2.33374 13.2083 2.33374 13.0052C2.32853 12.8229 2.40666 12.6927 2.59936 12.6406Z" fill="#3F5BA1"/>
<path d="M7.90104 7.3335C8.03125 7.4585 8.07292 7.60954 8.05729 7.78662C8.04687 7.90641 8.04687 8.03141 8.05729 8.1512C8.07812 8.3335 8.02604 8.48975 7.9375 8.646C7.75 8.61475 7.66146 8.50016 7.65625 8.31266C7.65625 8.09391 7.65625 7.87516 7.65625 7.6512C7.65625 7.48975 7.72917 7.37516 7.90104 7.3335Z" fill="#3D59A0"/>
<path d="M15.8858 7.3335C16.0108 7.4585 16.0524 7.60954 16.042 7.78662C16.0264 8.07829 16.0785 8.37516 15.9222 8.646C15.7347 8.61995 15.641 8.51058 15.6357 8.32308C15.6305 8.09912 15.6305 7.86995 15.6357 7.646C15.641 7.48454 15.7139 7.36475 15.8858 7.3335Z" fill="#3D59A0"/>
<path d="M7.93754 12.6406C8.099 12.9115 8.0417 13.2083 8.05733 13.5C8.06775 13.6823 8.02608 13.8281 7.90108 13.9583C7.73962 13.9219 7.66149 13.8125 7.66149 13.6563C7.65629 13.4323 7.66149 13.2031 7.66149 12.9792C7.66149 12.7865 7.75004 12.6719 7.93754 12.6406Z" fill="#3D59A0"/>
<path d="M10.5521 7.33838C10.6875 7.45296 10.724 7.5988 10.7083 7.77067C10.6979 7.90088 10.6979 8.03109 10.7083 8.15609C10.7292 8.33838 10.6771 8.49984 10.5885 8.65088C10.401 8.61442 10.3177 8.49463 10.3125 8.30713C10.3125 8.09359 10.3125 7.88005 10.3125 7.6665C10.3125 7.49984 10.3802 7.38005 10.5521 7.33838Z" fill="#3D59A0"/>
<path d="M7.86491 10.0054C8.00553 10.0627 8.0524 10.172 8.0524 10.3127C8.0524 10.495 8.04199 10.6772 8.0524 10.8595C8.06282 11.0314 8.02116 11.1772 7.89616 11.297C7.72949 11.2554 7.65658 11.1408 7.65137 10.9741C7.65137 10.7502 7.65137 10.521 7.65137 10.297C7.66178 10.1564 7.71908 10.0522 7.86491 10.0054Z" fill="#3D59A0"/>
<path d="M10.5885 9.98438C10.8073 10.3333 10.6719 10.724 10.6979 11.0937C10.7031 11.1823 10.5938 11.2187 10.5521 11.2917C10.3854 11.2292 10.3125 11.1042 10.3125 10.9323C10.3125 10.7396 10.3125 10.5417 10.3125 10.349C10.3125 10.1667 10.3958 10.0365 10.5885 9.98438Z" fill="#3D59A0"/>
<path d="M12.6358 2.34918C12.641 2.56272 12.6618 2.77626 12.7712 2.96897C12.516 2.96897 12.266 2.97418 12.0108 2.96897C11.8076 2.96897 11.6826 2.84918 11.6774 2.6721C11.6722 2.51585 11.7868 2.4221 11.9743 2.38043C12.1983 2.33355 12.417 2.34918 12.6358 2.34918Z" fill="#E70054"/>
<path d="M4.97933 2.37484C4.98974 2.56234 5.01058 2.74984 5.09912 2.9165C4.80745 2.99984 4.51058 2.98421 4.22412 2.92692C4.06266 2.89567 4.01058 2.74984 4.04183 2.58838C4.07308 2.43734 4.17204 2.36963 4.31787 2.36963C4.54183 2.38005 4.76058 2.38005 4.97933 2.37484Z" fill="#E70054"/>
<path d="M14.3233 18.6092C12.641 18.4634 11.2816 17.1978 11.0212 15.5363C10.6983 13.5155 12.1254 11.6092 14.1514 11.3436C14.2087 11.3384 14.266 11.328 14.3233 11.3228C14.3337 11.354 14.3546 11.3748 14.391 11.3853C15.2087 11.5259 15.8806 11.9269 16.4327 12.5363C16.99 13.1457 17.2973 13.8696 17.365 14.6873C17.4223 15.4165 17.2764 16.104 16.9118 16.7446C16.4118 17.6144 15.6931 18.2082 14.7243 18.4894C14.5889 18.5259 14.4379 18.5103 14.3233 18.6092ZM15.2452 14.6717C15.1671 14.5467 15.0577 14.4478 14.9379 14.3644C14.9431 13.8019 14.9483 13.2394 14.9431 12.6769C14.9431 12.4738 14.8129 12.3436 14.641 12.3436C14.4691 12.3436 14.3389 12.479 14.3389 12.6769C14.3389 13.2394 14.3441 13.8019 14.3441 14.3644C14.0785 14.5311 13.9379 14.7655 13.99 15.0832C14.0316 15.3384 14.1879 15.5155 14.4379 15.604C14.74 15.7082 15.0004 15.604 15.2504 15.2707C15.5941 15.2707 15.9379 15.2811 16.2816 15.2759C16.4848 15.2707 16.6045 15.1457 16.6045 14.9634C16.5993 14.7915 16.4796 14.6717 16.2816 14.6717C15.9327 14.6613 15.5889 14.6665 15.2452 14.6717Z" fill="#EAF4FB"/>
<path d="M14.3231 18.6093C14.4377 18.5103 14.5887 18.5259 14.7189 18.4843C15.6877 18.203 16.4064 17.6041 16.9064 16.7395C17.271 16.1041 17.4168 15.4114 17.3595 14.6822C17.2918 13.8645 16.9845 13.1457 16.4272 12.5312C15.8752 11.9218 15.2033 11.5207 14.3856 11.3801C14.3491 11.3749 14.3283 11.3541 14.3179 11.3176C15.3387 11.2343 16.2397 11.5259 17.0106 12.1874C17.6668 12.7499 18.0887 13.4582 18.2345 14.3176C18.4324 15.4634 18.1512 16.4895 17.3908 17.3697C16.8387 18.0155 16.1356 18.4218 15.297 18.5728C14.9793 18.6301 14.6564 18.6666 14.3231 18.6093Z" fill="#D2DBFA"/>
<path d="M14.9326 14.3594C15.0576 14.4427 15.1618 14.5417 15.2399 14.6667C15.318 14.8646 15.318 15.0625 15.2399 15.2656C14.9899 15.5938 14.7295 15.7031 14.4274 15.599C14.1774 15.5104 14.0211 15.3385 13.9795 15.0781C13.9274 14.7604 14.068 14.526 14.3336 14.3594C14.5368 14.2917 14.7347 14.2917 14.9326 14.3594Z" fill="#FDDC42"/>
<path d="M14.9324 14.3592C14.7345 14.2863 14.5366 14.2863 14.3387 14.3592C14.3387 13.7967 14.3283 13.2342 14.3335 12.6717C14.3335 12.4738 14.4637 12.3384 14.6356 12.3384C14.8074 12.3384 14.9377 12.4686 14.9377 12.6717C14.9429 13.2342 14.9377 13.7967 14.9324 14.3592Z" fill="#425DA2"/>
<path d="M15.2451 15.2658C15.3232 15.0679 15.3232 14.8699 15.2451 14.6668C15.5889 14.6668 15.9326 14.6564 16.2764 14.6616C16.4743 14.6616 16.5941 14.7814 16.5993 14.9533C16.6045 15.1356 16.4847 15.2658 16.2764 15.2658C15.9326 15.2762 15.5889 15.271 15.2451 15.2658Z" fill="#425DA2"/>
</svg>
