<svg width="202" height="202" viewBox="0 0 202 202" fill="none" xmlns="http://www.w3.org/2000/svg">
<g filter="url(#filter0_d_16391_97351)">
<g clip-path="url(#clip0_16391_97351)">
<path d="M79.3616 48C80.2387 48.3087 80.9492 48.8036 81.2628 49.7248C81.8165 51.3614 80.6013 53.0078 78.803 53.0372C77.4163 53.0617 76.0296 53.0372 74.6429 53.0421C72.3007 53.0421 69.9585 53.0078 67.6163 53.0568C61.7559 53.1744 57.1646 57.7559 57.0666 63.6114C57.0078 67.2913 57.047 70.9712 57.0519 74.656C57.0519 75.6311 56.7138 76.4347 55.8808 76.9786C54.5284 77.8606 52.7693 77.2677 52.1666 75.7487C52.1127 75.6164 52.0539 75.489 52 75.3616C52 71.1525 52 66.9434 52 62.7343C52.0294 62.6118 52.0686 62.4893 52.0833 62.3668C52.7301 55.4186 57.6595 49.8522 64.4852 48.3773C65.2251 48.2156 65.9846 48.1225 66.7343 48H79.3616Z" fill="#2C333A"/>
<path d="M135.231 48C136.015 48.1274 136.804 48.2254 137.579 48.392C144.316 49.8375 149.339 55.5803 149.882 62.4501C149.931 63.0871 149.956 63.7241 149.961 64.3611C149.966 67.8548 149.971 71.3436 149.961 74.8373C149.961 76.077 149.113 77.1011 147.937 77.3461C146.805 77.5813 145.629 76.9933 145.164 75.8859C144.997 75.489 144.929 75.0235 144.929 74.5874C144.909 71.079 144.919 67.5706 144.919 64.0671C144.919 60.7498 143.748 57.9323 141.254 55.7224C139.416 54.0907 137.24 53.1499 134.786 53.096C130.964 53.0078 127.132 53.0568 123.31 53.0568C122.33 53.0568 121.526 52.7187 120.987 51.8857C120.105 50.5333 120.698 48.7742 122.217 48.1715C122.349 48.1176 122.477 48.0637 122.604 48.0049C126.813 48.0049 131.022 48.0049 135.231 48.0049V48Z" fill="#2C333A"/>
<path d="M52 118.604C52.3087 117.727 52.8036 117.016 53.7297 116.703C55.3663 116.149 57.0176 117.364 57.0421 119.167C57.0666 120.887 57.0421 122.612 57.047 124.332C57.047 126.341 57.0176 128.35 57.0617 130.359C57.1842 136.219 61.7657 140.806 67.631 140.904C71.3109 140.963 74.9957 140.919 78.6805 140.923C79.9398 140.923 80.91 141.59 81.2677 142.663C81.7969 144.27 80.6062 145.946 78.8912 145.961C76.3726 145.98 73.854 145.975 71.3354 145.961C69.7086 145.951 68.0769 145.995 66.4599 145.872C59.5852 145.353 53.8473 140.316 52.3969 133.578C52.2303 132.804 52.1323 132.01 52.0049 131.231V118.604H52Z" fill="#2C333A"/>
<path d="M129.067 140.914C130.836 140.914 132.61 140.948 134.379 140.909C140.21 140.782 144.801 136.205 144.904 130.369C144.968 126.689 144.919 123.004 144.924 119.32C144.924 118.065 145.541 117.124 146.594 116.732C148.133 116.164 149.931 117.276 149.946 118.918C149.975 123.112 150.098 127.311 149.853 131.491C149.461 138.136 144.772 143.677 138.343 145.368C136.986 145.726 135.55 145.912 134.148 145.941C130.469 146.02 126.784 145.976 123.099 145.966C121.894 145.966 120.879 145.113 120.634 143.952C120.394 142.81 121.002 141.605 122.124 141.149C122.496 140.997 122.927 140.938 123.334 140.933C125.245 140.914 127.161 140.924 129.072 140.924V140.914H129.067Z" fill="#2C333A"/>
<path d="M101.804 127.051C94.4732 127.056 88.7696 124.925 83.9284 120.515C82.7573 119.447 82.6005 117.888 83.5756 116.771C84.536 115.664 86.1628 115.585 87.329 116.644C89.6271 118.736 92.2045 120.373 95.2327 121.122C102.328 122.891 108.825 121.789 114.421 116.815C115.215 116.11 116.058 115.703 117.116 115.987C119.061 116.507 119.703 118.932 118.233 120.319C115.543 122.862 112.446 124.739 108.909 125.866C106.336 126.684 103.7 127.061 101.804 127.051Z" fill="#2C333A"/>
<path d="M106.145 94.1629C106.145 97.0637 106.155 99.9645 106.145 102.865C106.135 105.232 105.327 107.226 103.347 108.642C102.196 109.466 100.887 109.828 99.4859 109.863C98.6921 109.882 97.8836 109.912 97.0996 109.809C95.7962 109.632 94.8652 108.393 94.973 107.109C95.0808 105.8 96.1588 104.762 97.4671 104.727C98.0257 104.713 98.5843 104.727 99.1429 104.722C100.471 104.708 100.985 104.193 100.985 102.851C100.985 96.9363 100.985 91.022 100.985 85.1077C100.985 84.1032 101.367 83.3045 102.215 82.7704C103.048 82.2461 103.93 82.2167 104.802 82.7067C105.699 83.2114 106.145 84.0003 106.145 85.0244C106.155 88.0673 106.145 91.1151 106.145 94.158V94.1629Z" fill="#2C333A"/>
<path d="M78.6364 88.4836C78.6364 87.3664 78.6364 86.2541 78.6364 85.1369C78.6364 84.1863 78.9598 83.3827 79.7438 82.8192C81.1648 81.8049 83.1248 82.6477 83.4727 84.4117C83.4874 84.4901 83.507 84.5685 83.507 84.6469C83.507 87.2243 83.5658 89.8066 83.4776 92.384C83.4335 93.707 82.2869 94.6282 81.0521 94.6135C79.8271 94.5988 78.7589 93.6237 78.6854 92.3056C78.6119 91.0365 78.6707 89.7576 78.6707 88.4836H78.6413H78.6364Z" fill="#2C333A"/>
<path d="M119.047 88.4692C119.047 87.2442 119.017 86.0143 119.056 84.7893C119.091 83.6574 119.934 82.6627 120.967 82.4373C122.447 82.1188 123.878 83.2311 123.917 84.8481C123.971 87.2834 123.966 89.7236 123.917 92.1638C123.888 93.5848 122.746 94.6334 121.428 94.6138C120.12 94.5893 119.081 93.4917 119.047 92.056C119.022 90.8604 119.042 89.6648 119.042 88.4692H119.052H119.047Z" fill="#2C333A"/>
</g>
</g>
<defs>
<filter id="filter0_d_16391_97351" x="0" y="0" width="202" height="201.985" filterUnits="userSpaceOnUse" color-interpolation-filters="sRGB">
<feFlood flood-opacity="0" result="BackgroundImageFix"/>
<feColorMatrix in="SourceAlpha" type="matrix" values="0 0 0 0 0 0 0 0 0 0 0 0 0 0 0 0 0 0 127 0" result="hardAlpha"/>
<feOffset dy="4"/>
<feGaussianBlur stdDeviation="2"/>
<feComposite in2="hardAlpha" operator="out"/>
<feColorMatrix type="matrix" values="0 0 0 0 0 0 0 0 0 0 0 0 0 0 0 0 0 0 0.25 0"/>
<feBlend mode="normal" in2="BackgroundImageFix" result="effect1_dropShadow_16391_97351"/>
<feBlend mode="normal" in="SourceGraphic" in2="effect1_dropShadow_16391_97351" result="shape"/>
</filter>
<clipPath id="clip0_16391_97351">
<rect width="98" height="97.9853" fill="white" transform="translate(52 48)"/>
</clipPath>
</defs>
</svg>
