<svg width="202" height="202" viewBox="0 0 202 202" fill="none" xmlns="http://www.w3.org/2000/svg">
<g filter="url(#filter0_d_16391_97373)">
<g clip-path="url(#clip0_16391_97373)">
<path d="M79.3616 48C80.2387 48.3087 80.9492 48.8036 81.2628 49.7248C81.8165 51.3614 80.6013 53.0078 78.803 53.0372C77.4163 53.0617 76.0296 53.0372 74.6429 53.0421C72.3007 53.0421 69.9585 53.0078 67.6163 53.0568C61.7559 53.1744 57.1646 57.7559 57.0666 63.6114C57.0078 67.2913 57.047 70.9712 57.0519 74.656C57.0519 75.6311 56.7138 76.4347 55.8808 76.9786C54.5284 77.8606 52.7693 77.2677 52.1666 75.7487C52.1127 75.6164 52.0539 75.489 52 75.3616C52 71.1525 52 66.9434 52 62.7343C52.0294 62.6118 52.0686 62.4893 52.0833 62.3668C52.7301 55.4186 57.6595 49.8522 64.4852 48.3773C65.2251 48.2156 65.9846 48.1225 66.7343 48H79.3616Z" fill="#2C333A"/>
<path d="M135.231 48C136.015 48.1274 136.804 48.2254 137.578 48.392C144.316 49.8375 149.338 55.5803 149.882 62.4501C149.931 63.0871 149.956 63.7241 149.961 64.3611C149.966 67.8548 149.971 71.3436 149.961 74.8373C149.961 76.077 149.113 77.1011 147.937 77.3461C146.805 77.5813 145.629 76.9933 145.164 75.8859C144.997 75.489 144.928 75.0235 144.928 74.5874C144.909 71.079 144.919 67.5706 144.919 64.0671C144.919 60.7498 143.748 57.9323 141.253 55.7224C139.416 54.0907 137.24 53.1499 134.785 53.096C130.963 53.0078 127.132 53.0568 123.31 53.0568C122.33 53.0568 121.526 52.7187 120.987 51.8857C120.105 50.5333 120.698 48.7742 122.217 48.1715C122.349 48.1176 122.477 48.0637 122.604 48.0049C126.813 48.0049 131.022 48.0049 135.231 48.0049V48Z" fill="#2C333A"/>
<path d="M52 118.604C52.3087 117.727 52.8036 117.016 53.7297 116.703C55.3663 116.149 57.0176 117.364 57.0421 119.167C57.0666 120.887 57.0421 122.612 57.047 124.332C57.047 126.341 57.0176 128.35 57.0617 130.359C57.1842 136.219 61.7657 140.806 67.631 140.904C71.3109 140.963 74.9957 140.919 78.6805 140.923C79.9398 140.923 80.91 141.59 81.2677 142.663C81.7969 144.27 80.6062 145.946 78.8912 145.961C76.3726 145.98 73.854 145.975 71.3354 145.961C69.7086 145.951 68.0769 145.995 66.4599 145.872C59.5852 145.353 53.8473 140.316 52.3969 133.578C52.2303 132.804 52.1323 132.01 52.0049 131.231V118.604H52Z" fill="#2C333A"/>
<path d="M129.067 140.914C130.836 140.914 132.61 140.948 134.379 140.909C140.21 140.782 144.801 136.205 144.904 130.369C144.968 126.689 144.919 123.004 144.924 119.32C144.924 118.065 145.541 117.124 146.594 116.732C148.133 116.164 149.931 117.276 149.946 118.918C149.975 123.112 150.098 127.311 149.853 131.491C149.461 138.136 144.772 143.677 138.343 145.368C136.986 145.726 135.55 145.912 134.148 145.941C130.469 146.02 126.784 145.976 123.099 145.966C121.894 145.966 120.879 145.113 120.634 143.952C120.394 142.81 121.002 141.605 122.124 141.149C122.496 140.997 122.927 140.938 123.334 140.933C125.245 140.914 127.161 140.924 129.072 140.924V140.914H129.067Z" fill="#2C333A"/>
<path d="M101.804 136.852C94.4733 136.857 88.7697 134.725 83.9285 130.315C82.7574 129.247 82.6006 127.689 83.5757 126.572C84.5361 125.464 86.1629 125.386 87.3291 126.444C89.6272 128.536 92.2046 130.173 95.2328 130.923C102.328 132.692 108.825 131.589 114.421 126.616C115.215 125.91 116.058 125.503 117.116 125.788C119.061 126.307 119.703 128.732 118.233 130.119C115.543 132.662 112.446 134.539 108.909 135.666C106.336 136.484 103.7 136.862 101.804 136.852Z" fill="#2C333A"/>
<path d="M106.145 103.963C106.145 106.864 106.155 109.764 106.145 112.665C106.135 115.032 105.327 117.026 103.347 118.442C102.196 119.265 100.887 119.628 99.4859 119.662C98.6921 119.682 97.8836 119.711 97.0996 119.608C95.7962 119.432 94.8652 118.192 94.973 116.909C95.0808 115.6 96.1588 114.561 97.4671 114.527C98.0257 114.512 98.5843 114.527 99.1429 114.522C100.471 114.508 100.985 113.993 100.985 112.65C100.985 106.736 100.985 100.822 100.985 94.9075C100.985 93.903 101.367 93.1043 102.215 92.5702C103.048 92.0459 103.93 92.0165 104.802 92.5065C105.699 93.0112 106.145 93.8001 106.145 94.8242C106.155 97.8671 106.145 100.915 106.145 103.958V103.963Z" fill="#2C333A"/>
<path d="M78.6364 98.2839C78.6364 97.1667 78.6364 96.0544 78.6364 94.9372C78.6364 93.9866 78.9598 93.183 79.7438 92.6195C81.1648 91.6052 83.1248 92.448 83.4727 94.212C83.4874 94.2904 83.507 94.3688 83.507 94.4472C83.507 97.0246 83.5658 99.6069 83.4776 102.184C83.4335 103.507 82.2869 104.428 81.0521 104.414C79.8271 104.399 78.7589 103.424 78.6854 102.106C78.6119 100.837 78.6707 99.5579 78.6707 98.2839H78.6413H78.6364Z" fill="#2C333A"/>
<path d="M119.047 98.269C119.047 97.044 119.017 95.8141 119.057 94.5891C119.091 93.4572 119.934 92.4625 120.968 92.2371C122.447 91.9186 123.878 93.0309 123.917 94.6479C123.971 97.0832 123.966 99.5234 123.917 101.964C123.888 103.385 122.746 104.433 121.428 104.414C120.12 104.389 119.081 103.292 119.047 101.856C119.022 100.66 119.042 99.4646 119.042 98.269H119.052H119.047Z" fill="#2C333A"/>
</g>
</g>
<defs>
<filter id="filter0_d_16391_97373" x="0" y="0" width="202" height="201.985" filterUnits="userSpaceOnUse" color-interpolation-filters="sRGB">
<feFlood flood-opacity="0" result="BackgroundImageFix"/>
<feColorMatrix in="SourceAlpha" type="matrix" values="0 0 0 0 0 0 0 0 0 0 0 0 0 0 0 0 0 0 127 0" result="hardAlpha"/>
<feOffset dy="4"/>
<feGaussianBlur stdDeviation="2"/>
<feComposite in2="hardAlpha" operator="out"/>
<feColorMatrix type="matrix" values="0 0 0 0 0 0 0 0 0 0 0 0 0 0 0 0 0 0 0.25 0"/>
<feBlend mode="normal" in2="BackgroundImageFix" result="effect1_dropShadow_16391_97373"/>
<feBlend mode="normal" in="SourceGraphic" in2="effect1_dropShadow_16391_97373" result="shape"/>
</filter>
<clipPath id="clip0_16391_97373">
<rect width="98" height="97.9853" fill="white" transform="translate(52 48)"/>
</clipPath>
</defs>
</svg>
