<svg width="202" height="202" viewBox="0 0 202 202" fill="none" xmlns="http://www.w3.org/2000/svg">
<g filter="url(#filter0_d_16391_97362)">
<g clip-path="url(#clip0_16391_97362)">
<path d="M79.3616 48C80.2387 48.3087 80.9492 48.8036 81.2628 49.7248C81.8165 51.3614 80.6013 53.0078 78.803 53.0372C77.4163 53.0617 76.0296 53.0372 74.6429 53.0421C72.3007 53.0421 69.9585 53.0078 67.6163 53.0568C61.7559 53.1744 57.1646 57.7559 57.0666 63.6114C57.0078 67.2913 57.047 70.9712 57.0519 74.656C57.0519 75.6311 56.7138 76.4347 55.8808 76.9786C54.5284 77.8606 52.7693 77.2677 52.1666 75.7487C52.1127 75.6164 52.0539 75.489 52 75.3616C52 71.1525 52 66.9434 52 62.7343C52.0294 62.6118 52.0686 62.4893 52.0833 62.3668C52.7301 55.4186 57.6595 49.8522 64.4852 48.3773C65.2251 48.2156 65.9846 48.1225 66.7343 48H79.3616Z" fill="#2C333A"/>
<path d="M135.231 48C136.015 48.1274 136.804 48.2254 137.578 48.392C144.316 49.8375 149.338 55.5803 149.882 62.4501C149.931 63.0871 149.956 63.7241 149.961 64.3611C149.966 67.8548 149.971 71.3436 149.961 74.8373C149.961 76.077 149.113 77.1011 147.937 77.3461C146.805 77.5813 145.629 76.9933 145.164 75.8859C144.997 75.489 144.928 75.0235 144.928 74.5874C144.909 71.079 144.919 67.5706 144.919 64.0671C144.919 60.7498 143.748 57.9323 141.253 55.7224C139.416 54.0907 137.24 53.1499 134.785 53.096C130.963 53.0078 127.132 53.0568 123.31 53.0568C122.33 53.0568 121.526 52.7187 120.987 51.8857C120.105 50.5333 120.698 48.7742 122.217 48.1715C122.349 48.1176 122.477 48.0637 122.604 48.0049C126.813 48.0049 131.022 48.0049 135.231 48.0049V48Z" fill="#2C333A"/>
<path d="M52 118.604C52.3087 117.727 52.8036 117.016 53.7297 116.703C55.3663 116.149 57.0176 117.364 57.0421 119.167C57.0666 120.887 57.0421 122.612 57.047 124.332C57.047 126.341 57.0176 128.35 57.0617 130.359C57.1842 136.219 61.7657 140.806 67.631 140.904C71.3109 140.963 74.9957 140.919 78.6805 140.923C79.9398 140.923 80.91 141.59 81.2677 142.663C81.7969 144.27 80.6062 145.946 78.8912 145.961C76.3726 145.98 73.854 145.975 71.3354 145.961C69.7086 145.951 68.0769 145.995 66.4599 145.872C59.5852 145.353 53.8473 140.316 52.3969 133.578C52.2303 132.804 52.1323 132.01 52.0049 131.231V118.604H52Z" fill="#2C333A"/>
<path d="M129.067 140.914C130.836 140.914 132.61 140.948 134.379 140.909C140.21 140.782 144.801 136.205 144.904 130.369C144.968 126.689 144.919 123.004 144.924 119.32C144.924 118.065 145.541 117.124 146.595 116.732C148.133 116.164 149.931 117.276 149.946 118.918C149.976 123.112 150.098 127.311 149.853 131.491C149.461 138.136 144.772 143.677 138.343 145.368C136.986 145.726 135.55 145.912 134.149 145.941C130.469 146.02 126.784 145.976 123.099 145.966C121.894 145.966 120.879 145.113 120.634 143.952C120.394 142.81 121.002 141.605 122.124 141.149C122.496 140.997 122.928 140.938 123.334 140.933C125.245 140.914 127.161 140.924 129.072 140.924V140.914H129.067Z" fill="#2C333A"/>
<path d="M101.804 117.252C94.4732 117.257 88.7696 115.125 83.9284 110.715C82.7573 109.647 82.6005 108.089 83.5756 106.971C84.536 105.864 86.1628 105.786 87.329 106.844C89.6271 108.936 92.2045 110.573 95.2327 111.323C102.328 113.092 108.825 111.989 114.421 107.016C115.215 106.31 116.058 105.903 117.116 106.187C119.061 106.707 119.703 109.132 118.233 110.519C115.543 113.062 112.446 114.939 108.909 116.066C106.336 116.884 103.7 117.261 101.804 117.252Z" fill="#2C333A"/>
<path d="M106.145 79.4627C106.145 82.3635 106.155 85.2643 106.145 88.1651C106.135 90.5318 105.327 92.5261 103.347 93.9422C102.196 94.7654 100.887 95.128 99.4859 95.1623C98.6921 95.1819 97.8836 95.2113 97.0996 95.1084C95.7962 94.932 94.8652 93.6923 94.973 92.4085C95.0808 91.1002 96.1588 90.0614 97.4671 90.0271C98.0257 90.0124 98.5843 90.0271 99.1429 90.0222C100.471 90.0075 100.985 89.493 100.985 88.1504C100.985 82.2361 100.985 76.3218 100.985 70.4075C100.985 69.403 101.368 68.6043 102.215 68.0702C103.048 67.5459 103.93 67.5165 104.802 68.0065C105.699 68.5112 106.145 69.3001 106.145 70.3242C106.155 73.3671 106.145 76.4149 106.145 79.4578V79.4627Z" fill="#2C333A"/>
<path d="M78.6364 78.6838C78.6364 77.5666 78.6364 76.4543 78.6364 75.3371C78.6364 74.3865 78.9598 73.5829 79.7438 73.0194C81.1648 72.0051 83.1248 72.8479 83.4727 74.6119C83.4874 74.6903 83.507 74.7687 83.507 74.8471C83.507 77.4245 83.5658 80.0068 83.4776 82.5842C83.4335 83.9072 82.2869 84.8284 81.0521 84.8137C79.8271 84.799 78.7589 83.8239 78.6854 82.5058C78.6119 81.2367 78.6707 79.9578 78.6707 78.6838H78.6413H78.6364Z" fill="#2C333A"/>
<path d="M119.047 78.6689C119.047 77.4439 119.017 76.214 119.056 74.989C119.091 73.8571 119.934 72.8624 120.967 72.637C122.447 72.3185 123.878 73.4308 123.917 75.0478C123.971 77.4831 123.966 79.9233 123.917 82.3635C123.888 83.7845 122.746 84.8331 121.428 84.8135C120.12 84.789 119.081 83.6914 119.047 82.2557C119.022 81.0601 119.042 79.8645 119.042 78.6689H119.052H119.047Z" fill="#2C333A"/>
</g>
</g>
<defs>
<filter id="filter0_d_16391_97362" x="0" y="0" width="202" height="201.985" filterUnits="userSpaceOnUse" color-interpolation-filters="sRGB">
<feFlood flood-opacity="0" result="BackgroundImageFix"/>
<feColorMatrix in="SourceAlpha" type="matrix" values="0 0 0 0 0 0 0 0 0 0 0 0 0 0 0 0 0 0 127 0" result="hardAlpha"/>
<feOffset dy="4"/>
<feGaussianBlur stdDeviation="2"/>
<feComposite in2="hardAlpha" operator="out"/>
<feColorMatrix type="matrix" values="0 0 0 0 0 0 0 0 0 0 0 0 0 0 0 0 0 0 0.25 0"/>
<feBlend mode="normal" in2="BackgroundImageFix" result="effect1_dropShadow_16391_97362"/>
<feBlend mode="normal" in="SourceGraphic" in2="effect1_dropShadow_16391_97362" result="shape"/>
</filter>
<clipPath id="clip0_16391_97362">
<rect width="98" height="97.9853" fill="white" transform="translate(52 48)"/>
</clipPath>
</defs>
</svg>
