<svg width="202" height="202" viewBox="0 0 202 202" fill="none" xmlns="http://www.w3.org/2000/svg">
<g filter="url(#filter0_d_16391_97384)">
<g clip-path="url(#clip0_16391_97384)">
<path d="M79.3616 48C80.2387 48.3087 80.9492 48.8036 81.2628 49.7248C81.8165 51.3614 80.6013 53.0078 78.803 53.0372C77.4163 53.0617 76.0296 53.0372 74.6429 53.0421C72.3007 53.0421 69.9585 53.0078 67.6163 53.0568C61.7559 53.1744 57.1646 57.7559 57.0666 63.6114C57.0078 67.2913 57.047 70.9712 57.0519 74.656C57.0519 75.6311 56.7138 76.4347 55.8808 76.9786C54.5284 77.8606 52.7693 77.2677 52.1666 75.7487C52.1127 75.6164 52.0539 75.489 52 75.3616C52 71.1525 52 66.9434 52 62.7343C52.0294 62.6118 52.0686 62.4893 52.0833 62.3668C52.7301 55.4186 57.6595 49.8522 64.4852 48.3773C65.2251 48.2156 65.9846 48.1225 66.7343 48H79.3616Z" fill="#2C333A"/>
<path d="M135.231 48C136.015 48.1274 136.804 48.2254 137.578 48.392C144.316 49.8375 149.338 55.5803 149.882 62.4501C149.931 63.0871 149.956 63.7241 149.961 64.3611C149.966 67.8548 149.971 71.3436 149.961 74.8373C149.961 76.077 149.113 77.1011 147.937 77.3461C146.805 77.5813 145.629 76.9933 145.164 75.8859C144.997 75.489 144.928 75.0235 144.928 74.5874C144.909 71.079 144.919 67.5706 144.919 64.0671C144.919 60.7498 143.748 57.9323 141.253 55.7224C139.416 54.0907 137.24 53.1499 134.785 53.096C130.963 53.0078 127.132 53.0568 123.31 53.0568C122.33 53.0568 121.526 52.7187 120.987 51.8857C120.105 50.5333 120.698 48.7742 122.217 48.1715C122.349 48.1176 122.477 48.0637 122.604 48.0049C126.813 48.0049 131.022 48.0049 135.231 48.0049V48Z" fill="#2C333A"/>
<path d="M52 118.604C52.3087 117.727 52.8036 117.016 53.7297 116.703C55.3663 116.149 57.0176 117.364 57.0421 119.167C57.0666 120.887 57.0421 122.612 57.047 124.332C57.047 126.341 57.0176 128.35 57.0617 130.359C57.1842 136.219 61.7657 140.806 67.631 140.904C71.3109 140.963 74.9957 140.919 78.6805 140.923C79.9398 140.923 80.91 141.59 81.2677 142.663C81.7969 144.27 80.6062 145.946 78.8912 145.961C76.3726 145.98 73.854 145.975 71.3354 145.961C69.7086 145.951 68.0769 145.995 66.4599 145.872C59.5852 145.353 53.8473 140.316 52.3969 133.578C52.2303 132.804 52.1323 132.01 52.0049 131.231V118.604H52Z" fill="#2C333A"/>
<path d="M129.067 140.914C130.836 140.914 132.61 140.948 134.379 140.909C140.21 140.782 144.801 136.205 144.904 130.369C144.968 126.689 144.919 123.004 144.924 119.32C144.924 118.065 145.541 117.124 146.595 116.732C148.133 116.164 149.931 117.276 149.946 118.918C149.976 123.112 150.098 127.311 149.853 131.491C149.461 138.136 144.772 143.677 138.343 145.368C136.986 145.726 135.55 145.912 134.149 145.941C130.469 146.02 126.784 145.976 123.099 145.966C121.894 145.966 120.879 145.113 120.634 143.952C120.394 142.81 121.002 141.605 122.124 141.149C122.496 140.997 122.928 140.938 123.334 140.933C125.245 140.914 127.161 140.924 129.072 140.924V140.914H129.067Z" fill="#2C333A"/>
<path d="M111.604 127.052C104.273 127.057 98.5696 124.925 93.7284 120.515C92.5573 119.447 92.4005 117.889 93.3756 116.772C94.336 115.664 95.9628 115.586 97.129 116.644C99.4271 118.737 102.004 120.373 105.033 121.123C112.128 122.892 118.625 121.789 124.221 116.816C125.015 116.11 125.858 115.704 126.916 115.988C128.861 116.507 129.503 118.933 128.033 120.319C125.343 122.862 122.246 124.739 118.709 125.866C116.136 126.684 113.5 127.062 111.604 127.052Z" fill="#2C333A"/>
<path d="M120.845 94.1629C120.845 97.0637 120.855 99.9645 120.845 102.865C120.835 105.232 120.027 107.226 118.047 108.642C116.896 109.466 115.587 109.828 114.186 109.863C113.392 109.882 112.584 109.912 111.8 109.809C110.496 109.632 109.565 108.393 109.673 107.109C109.781 105.8 110.859 104.762 112.167 104.727C112.726 104.713 113.284 104.727 113.843 104.722C115.171 104.708 115.685 104.193 115.685 102.851C115.685 96.9363 115.685 91.022 115.685 85.1077C115.685 84.1032 116.067 83.3045 116.915 82.7704C117.748 82.2461 118.63 82.2167 119.502 82.7067C120.399 83.2114 120.845 84.0003 120.845 85.0244C120.855 88.0673 120.845 91.1151 120.845 94.158V94.1629Z" fill="#2C333A"/>
<path d="M88.4364 88.4836C88.4364 87.3664 88.4364 86.2541 88.4364 85.1369C88.4364 84.1863 88.7598 83.3827 89.5438 82.8192C90.9648 81.8049 92.9248 82.6477 93.2727 84.4117C93.2874 84.4901 93.307 84.5685 93.307 84.6469C93.307 87.2243 93.3658 89.8066 93.2776 92.384C93.2335 93.707 92.0869 94.6282 90.8521 94.6135C89.6271 94.5988 88.5589 93.6237 88.4854 92.3056C88.4119 91.0365 88.4707 89.7576 88.4707 88.4836H88.4413H88.4364Z" fill="#2C333A"/>
<path d="M128.847 88.4692C128.847 87.2442 128.817 86.0143 128.857 84.7893C128.891 83.6574 129.734 82.6627 130.768 82.4373C132.247 82.1188 133.678 83.2311 133.717 84.8481C133.771 87.2834 133.766 89.7236 133.717 92.1638C133.688 93.5848 132.546 94.6334 131.228 94.6138C129.92 94.5893 128.881 93.4917 128.847 92.056C128.822 90.8604 128.842 89.6648 128.842 88.4692H128.852H128.847Z" fill="#2C333A"/>
</g>
</g>
<defs>
<filter id="filter0_d_16391_97384" x="0" y="0" width="202" height="201.985" filterUnits="userSpaceOnUse" color-interpolation-filters="sRGB">
<feFlood flood-opacity="0" result="BackgroundImageFix"/>
<feColorMatrix in="SourceAlpha" type="matrix" values="0 0 0 0 0 0 0 0 0 0 0 0 0 0 0 0 0 0 127 0" result="hardAlpha"/>
<feOffset dy="4"/>
<feGaussianBlur stdDeviation="2"/>
<feComposite in2="hardAlpha" operator="out"/>
<feColorMatrix type="matrix" values="0 0 0 0 0 0 0 0 0 0 0 0 0 0 0 0 0 0 0.25 0"/>
<feBlend mode="normal" in2="BackgroundImageFix" result="effect1_dropShadow_16391_97384"/>
<feBlend mode="normal" in="SourceGraphic" in2="effect1_dropShadow_16391_97384" result="shape"/>
</filter>
<clipPath id="clip0_16391_97384">
<rect width="98" height="97.9853" fill="white" transform="translate(52 48)"/>
</clipPath>
</defs>
</svg>
