<svg width="202" height="202" viewBox="0 0 202 202" fill="none" xmlns="http://www.w3.org/2000/svg">
<g filter="url(#filter0_d_16391_97340)">
<g clip-path="url(#clip0_16391_97340)">
<path d="M79.3616 48C80.2387 48.3087 80.9492 48.8036 81.2628 49.7248C81.8165 51.3614 80.6013 53.0078 78.803 53.0372C77.4163 53.0617 76.0296 53.0372 74.6429 53.0421C72.3007 53.0421 69.9585 53.0078 67.6163 53.0568C61.7559 53.1744 57.1646 57.7559 57.0666 63.6114C57.0078 67.2913 57.047 70.9712 57.0519 74.656C57.0519 75.6311 56.7138 76.4347 55.8808 76.9786C54.5284 77.8606 52.7693 77.2677 52.1666 75.7487C52.1127 75.6164 52.0539 75.489 52 75.3616C52 71.1525 52 66.9434 52 62.7343C52.0294 62.6118 52.0686 62.4893 52.0833 62.3668C52.7301 55.4186 57.6595 49.8522 64.4852 48.3773C65.2251 48.2156 65.9846 48.1225 66.7343 48H79.3616Z" fill="#2C333A"/>
<path d="M135.231 48C136.015 48.1274 136.804 48.2254 137.578 48.392C144.316 49.8375 149.338 55.5803 149.882 62.4501C149.931 63.0871 149.956 63.7241 149.961 64.3611C149.966 67.8548 149.971 71.3436 149.961 74.8373C149.961 76.077 149.113 77.1011 147.937 77.3461C146.805 77.5813 145.629 76.9933 145.164 75.8859C144.997 75.489 144.928 75.0235 144.928 74.5874C144.909 71.079 144.919 67.5706 144.919 64.0671C144.919 60.7498 143.748 57.9323 141.253 55.7224C139.416 54.0907 137.24 53.1499 134.785 53.096C130.963 53.0078 127.132 53.0568 123.31 53.0568C122.33 53.0568 121.526 52.7187 120.987 51.8857C120.105 50.5333 120.698 48.7742 122.217 48.1715C122.349 48.1176 122.477 48.0637 122.604 48.0049C126.813 48.0049 131.022 48.0049 135.231 48.0049V48Z" fill="#2C333A"/>
<path d="M52 118.604C52.3087 117.727 52.8036 117.016 53.7297 116.703C55.3663 116.149 57.0176 117.364 57.0421 119.167C57.0666 120.887 57.0421 122.612 57.047 124.332C57.047 126.341 57.0176 128.35 57.0617 130.359C57.1842 136.219 61.7657 140.806 67.631 140.904C71.3109 140.963 74.9957 140.919 78.6805 140.923C79.9398 140.923 80.91 141.59 81.2677 142.663C81.7969 144.27 80.6062 145.946 78.8912 145.961C76.3726 145.98 73.854 145.975 71.3354 145.961C69.7086 145.951 68.0769 145.995 66.4599 145.872C59.5852 145.353 53.8473 140.316 52.3969 133.578C52.2303 132.804 52.1323 132.01 52.0049 131.231V118.604H52Z" fill="#2C333A"/>
<path d="M129.067 140.914C130.836 140.914 132.61 140.948 134.379 140.909C140.21 140.782 144.801 136.205 144.904 130.369C144.968 126.689 144.919 123.004 144.924 119.32C144.924 118.065 145.541 117.124 146.595 116.732C148.133 116.164 149.931 117.276 149.946 118.918C149.976 123.112 150.098 127.311 149.853 131.491C149.461 138.136 144.772 143.677 138.343 145.368C136.986 145.726 135.55 145.912 134.149 145.941C130.469 146.02 126.784 145.976 123.099 145.966C121.894 145.966 120.879 145.113 120.634 143.952C120.394 142.81 121.002 141.605 122.124 141.149C122.496 140.997 122.928 140.938 123.334 140.933C125.245 140.914 127.161 140.924 129.072 140.924V140.914H129.067Z" fill="#2C333A"/>
<path d="M92.0036 127.052C84.6732 127.057 78.9696 124.925 74.1284 120.515C72.9573 119.447 72.8005 117.889 73.7756 116.772C74.736 115.664 76.3628 115.586 77.529 116.644C79.8271 118.737 82.4045 120.373 85.4327 121.123C92.5279 122.892 99.0253 121.789 104.621 116.816C105.415 116.11 106.258 115.704 107.316 115.988C109.261 116.507 109.903 118.933 108.433 120.319C105.743 122.862 102.646 124.739 99.1086 125.866C96.5361 126.684 93.8999 127.062 92.0036 127.052Z" fill="#2C333A"/>
<path d="M91.445 94.1629C91.445 97.0637 91.4548 99.9645 91.445 102.865C91.4352 105.232 90.6267 107.226 88.6471 108.642C87.4956 109.466 86.1873 109.828 84.7859 109.863C83.9921 109.882 83.1836 109.912 82.3996 109.809C81.0962 109.632 80.1652 108.393 80.273 107.109C80.3808 105.8 81.4588 104.762 82.7671 104.727C83.3257 104.713 83.8843 104.727 84.4429 104.722C85.7708 104.708 86.2853 104.193 86.2853 102.851C86.2853 96.9363 86.2853 91.022 86.2853 85.1077C86.2853 84.1032 86.6675 83.3045 87.5152 82.7704C88.3482 82.2461 89.2302 82.2167 90.1024 82.7067C90.9991 83.2114 91.445 84.0003 91.445 85.0244C91.4548 88.0673 91.445 91.1151 91.445 94.158V94.1629Z" fill="#2C333A"/>
<path d="M68.8364 88.4836C68.8364 87.3664 68.8364 86.2541 68.8364 85.1369C68.8364 84.1863 69.1598 83.3827 69.9438 82.8192C71.3648 81.8049 73.3248 82.6477 73.6727 84.4117C73.6874 84.4901 73.707 84.5685 73.707 84.6469C73.707 87.2243 73.7658 89.8066 73.6776 92.384C73.6335 93.707 72.4869 94.6282 71.2521 94.6135C70.0271 94.5988 68.9589 93.6237 68.8854 92.3056C68.8119 91.0365 68.8707 89.7576 68.8707 88.4836H68.8413H68.8364Z" fill="#2C333A"/>
<path d="M109.247 88.4692C109.247 87.2442 109.217 86.0143 109.256 84.7893C109.291 83.6574 110.134 82.6627 111.167 82.4373C112.647 82.1188 114.078 83.2311 114.117 84.8481C114.171 87.2834 114.166 89.7236 114.117 92.1638C114.088 93.5848 112.946 94.6334 111.628 94.6138C110.32 94.5893 109.281 93.4917 109.247 92.056C109.222 90.8604 109.242 89.6648 109.242 88.4692H109.252H109.247Z" fill="#2C333A"/>
</g>
</g>
<defs>
<filter id="filter0_d_16391_97340" x="0" y="0" width="202" height="201.985" filterUnits="userSpaceOnUse" color-interpolation-filters="sRGB">
<feFlood flood-opacity="0" result="BackgroundImageFix"/>
<feColorMatrix in="SourceAlpha" type="matrix" values="0 0 0 0 0 0 0 0 0 0 0 0 0 0 0 0 0 0 127 0" result="hardAlpha"/>
<feOffset dy="4"/>
<feGaussianBlur stdDeviation="2"/>
<feComposite in2="hardAlpha" operator="out"/>
<feColorMatrix type="matrix" values="0 0 0 0 0 0 0 0 0 0 0 0 0 0 0 0 0 0 0.25 0"/>
<feBlend mode="normal" in2="BackgroundImageFix" result="effect1_dropShadow_16391_97340"/>
<feBlend mode="normal" in="SourceGraphic" in2="effect1_dropShadow_16391_97340" result="shape"/>
</filter>
<clipPath id="clip0_16391_97340">
<rect width="98" height="97.9853" fill="white" transform="translate(52 48)"/>
</clipPath>
</defs>
</svg>
