<svg width="204" height="136" viewBox="0 0 204 136" fill="none" xmlns="http://www.w3.org/2000/svg">
<path d="M111.047 110.448H57.2241C55.364 110.448 53.8525 108.945 53.8525 107.094V28.8533C53.8525 27.0032 55.364 25.5 57.2241 25.5H111.047C112.907 25.5 114.418 27.0032 114.418 28.8533V107.094C114.418 108.945 112.907 110.448 111.047 110.448Z" fill="#86A7FF"/>
<path d="M94.8034 29.2407H73.459V32.8049H94.8034V29.2407Z" fill="#D3DFFF"/>
<path d="M108.38 38.2397H59.8984V48.9322H108.38V38.2397Z" fill="#DADADA"/>
<path d="M106.259 39.7021H62.0181V47.4698H106.259V39.7021Z" fill="white"/>
<path d="M95.7356 58.2098H92.4393C91.4476 58.2098 90.6475 57.414 90.6475 56.4277V55.6727C90.6475 54.6864 91.4476 53.8906 92.4393 53.8906H95.7356C96.7273 53.8906 97.5274 54.6864 97.5274 55.6727V56.4277C97.5206 57.414 96.7205 58.2098 95.7356 58.2098Z" fill="#1F3C88"/>
<path d="M106.59 58.2098H103.294C102.302 58.2098 101.502 57.414 101.502 56.4277V55.6727C101.502 54.6864 102.302 53.8906 103.294 53.8906H106.59C107.582 53.8906 108.382 54.6864 108.382 55.6727V56.4277C108.375 57.414 107.575 58.2098 106.59 58.2098Z" fill="#1F3C88"/>
<path d="M107.526 69.0654H100.912C100.441 69.0654 100.058 68.6845 100.058 68.2152V64.2701C100.058 63.8008 100.441 63.4199 100.912 63.4199H107.526C107.998 63.4199 108.381 63.8008 108.381 64.2701V68.2152C108.374 68.6845 107.991 69.0654 107.526 69.0654Z" fill="#1F3C88"/>
<path d="M94.2445 69.0654H87.6312C87.1593 69.0654 86.7764 68.6845 86.7764 68.2152V64.2701C86.7764 63.8008 87.1593 63.4199 87.6312 63.4199H94.2445C94.7164 63.4199 95.0994 63.8008 95.0994 64.2701V68.2152C95.0994 68.6845 94.7164 69.0654 94.2445 69.0654Z" fill="#1F3C88"/>
<path d="M80.9686 69.0654H74.3554C73.8835 69.0654 73.5005 68.6845 73.5005 68.2152V64.2701C73.5005 63.8008 73.8835 63.4199 74.3554 63.4199H80.9686C81.4405 63.4199 81.8235 63.8008 81.8235 64.2701V68.2152C81.8235 68.6845 81.4405 69.0654 80.9686 69.0654Z" fill="#1F3C88"/>
<path d="M67.6957 69.0654H61.0824C60.6105 69.0654 60.2275 68.6845 60.2275 68.2152V64.2701C60.2275 63.8008 60.6105 63.4199 61.0824 63.4199H67.6957C68.1676 63.4199 68.5505 63.8008 68.5505 64.2701V68.2152C68.5505 68.6845 68.1676 69.0654 67.6957 69.0654Z" fill="#1F3C88"/>
<path d="M107.526 79.2617H100.912C100.441 79.2617 100.058 78.8808 100.058 78.4115V74.4664C100.058 73.9971 100.441 73.6162 100.912 73.6162H107.526C107.998 73.6162 108.381 73.9971 108.381 74.4664V78.4115C108.374 78.8808 107.991 79.2617 107.526 79.2617Z" fill="#1F3C88"/>
<path d="M94.2445 79.2617H87.6312C87.1593 79.2617 86.7764 78.8808 86.7764 78.4115V74.4664C86.7764 73.9971 87.1593 73.6162 87.6312 73.6162H94.2445C94.7164 73.6162 95.0994 73.9971 95.0994 74.4664V78.4115C95.0994 78.8808 94.7164 79.2617 94.2445 79.2617Z" fill="#D3DFFF"/>
<path d="M80.9686 79.2617H74.3554C73.8835 79.2617 73.5005 78.8808 73.5005 78.4115V74.4664C73.5005 73.9971 73.8835 73.6162 74.3554 73.6162H80.9686C81.4405 73.6162 81.8235 73.9971 81.8235 74.4664V78.4115C81.8235 78.8808 81.4405 79.2617 80.9686 79.2617Z" fill="#D3DFFF"/>
<path d="M67.6957 79.2617H61.0824C60.6105 79.2617 60.2275 78.8808 60.2275 78.4115V74.4664C60.2275 73.9971 60.6105 73.6162 61.0824 73.6162H67.6957C68.1676 73.6162 68.5505 73.9971 68.5505 74.4664V78.4115C68.5505 78.8808 68.1676 79.2617 67.6957 79.2617Z" fill="#D3DFFF"/>
<path d="M107.526 89.457H100.912C100.441 89.457 100.058 89.0761 100.058 88.6068V84.6617C100.058 84.1924 100.441 83.8115 100.912 83.8115H107.526C107.998 83.8115 108.381 84.1924 108.381 84.6617V88.6068C108.374 89.0761 107.991 89.457 107.526 89.457Z" fill="#1F3C88"/>
<path d="M94.2445 89.457H87.6312C87.1593 89.457 86.7764 89.0761 86.7764 88.6068V84.6617C86.7764 84.1924 87.1593 83.8115 87.6312 83.8115H94.2445C94.7164 83.8115 95.0994 84.1924 95.0994 84.6617V88.6068C95.0994 89.0761 94.7164 89.457 94.2445 89.457Z" fill="#D3DFFF"/>
<path d="M80.9686 89.457H74.3554C73.8835 89.457 73.5005 89.0761 73.5005 88.6068V84.6617C73.5005 84.1924 73.8835 83.8115 74.3554 83.8115H80.9686C81.4405 83.8115 81.8235 84.1924 81.8235 84.6617V88.6068C81.8235 89.0761 81.4405 89.457 80.9686 89.457Z" fill="#D3DFFF"/>
<path d="M67.6957 89.457H61.0824C60.6105 89.457 60.2275 89.0761 60.2275 88.6068V84.6617C60.2275 84.1924 60.6105 83.8115 61.0824 83.8115H67.6957C68.1676 83.8115 68.5505 84.1924 68.5505 84.6617V88.6068C68.5505 89.0761 68.1676 89.457 67.6957 89.457Z" fill="#D3DFFF"/>
<path d="M107.526 100.014H100.912C100.441 100.014 100.058 99.6328 100.058 99.1634V95.2184C100.058 94.7491 100.441 94.3682 100.912 94.3682H107.526C107.998 94.3682 108.381 94.7491 108.381 95.2184V99.1634C108.374 99.6328 107.991 100.014 107.526 100.014Z" fill="#FBC343"/>
<path d="M94.2445 100.014H87.6312C87.1593 100.014 86.7764 99.6328 86.7764 99.1634V95.2184C86.7764 94.7491 87.1593 94.3682 87.6312 94.3682H94.2445C94.7164 94.3682 95.0994 94.7491 95.0994 95.2184V99.1634C95.0994 99.6328 94.7164 100.014 94.2445 100.014Z" fill="#D3DFFF"/>
<path d="M80.9686 100.014H74.3554C73.8835 100.014 73.5005 99.6328 73.5005 99.1634V95.2184C73.5005 94.7491 73.8835 94.3682 74.3554 94.3682H80.9686C81.4405 94.3682 81.8235 94.7491 81.8235 95.2184V99.1634C81.8235 99.6328 81.4405 100.014 80.9686 100.014Z" fill="#D3DFFF"/>
<path d="M67.6957 100.014H61.0824C60.6105 100.014 60.2275 99.6328 60.2275 99.1634V95.2184C60.2275 94.7491 60.6105 94.3682 61.0824 94.3682H67.6957C68.1676 94.3682 68.5505 94.7491 68.5505 95.2184V99.1634C68.5505 99.6328 68.1676 100.014 67.6957 100.014Z" fill="#D3DFFF"/>
<path d="M96.6237 45.3476C96.7536 45.3612 96.8973 45.3476 97.1024 45.3272C97.4444 45.2796 97.7658 45.1367 98.0188 44.9055C98.3061 44.647 98.5181 44.2661 98.6002 43.7491H98.5796C98.3403 44.0416 97.9846 44.2185 97.5538 44.2185C96.7673 44.2185 96.2612 43.6267 96.2612 42.8853C96.2612 42.0623 96.8631 41.3413 97.7521 41.3413C98.648 41.3413 99.1951 42.0623 99.1951 43.171C99.1951 44.13 98.8737 44.7966 98.4429 45.2115C98.1078 45.538 97.6427 45.7421 97.1708 45.7965C96.9588 45.8305 96.7673 45.8373 96.6237 45.8305V45.3476ZM96.8357 42.8445C96.8357 43.3887 97.164 43.7696 97.6769 43.7696C98.0736 43.7696 98.3813 43.5723 98.5386 43.3138C98.5728 43.2594 98.5933 43.1914 98.5933 43.103C98.5933 42.3616 98.3198 41.7902 97.6974 41.7902C97.1913 41.7834 96.8357 42.2255 96.8357 42.8445Z" fill="#3A6BEA"/>
<path d="M100.077 45.3476C100.207 45.3612 100.35 45.3476 100.556 45.3272C100.897 45.2796 101.219 45.1367 101.472 44.9055C101.759 44.647 101.971 44.2661 102.053 43.7491H102.033C101.793 44.0416 101.438 44.2185 101.007 44.2185C100.22 44.2185 99.7144 43.6267 99.7144 42.8853C99.7144 42.0623 100.316 41.3413 101.205 41.3413C102.094 41.3413 102.648 42.0623 102.648 43.171C102.648 44.13 102.327 44.7966 101.896 45.2115C101.561 45.538 101.096 45.7421 100.624 45.7965C100.412 45.8305 100.22 45.8373 100.077 45.8305V45.3476ZM100.289 42.8445C100.289 43.3887 100.617 43.7696 101.13 43.7696C101.527 43.7696 101.834 43.5723 101.992 43.3138C102.026 43.2594 102.046 43.1914 102.046 43.103C102.046 42.3616 101.773 41.7902 101.151 41.7902C100.644 41.7834 100.289 42.2255 100.289 42.8445Z" fill="#3A6BEA"/>
<path d="M163.38 86.519H130.334V110.625H163.38V86.519Z" fill="#FBC343"/>
<path d="M163.374 91.981H154.572V92.3415H163.374V91.981Z" fill="#E49B31"/>
<path d="M163.381 105.176H148.062V105.537H163.381V105.176Z" fill="#E49B31"/>
<path d="M146.809 95.2589C146.809 98.034 146.392 100.823 145.537 103.53C144.238 107.645 140.408 110.447 136.072 110.447H130.334V86.5254H145.387C146.323 89.3345 146.809 92.2865 146.809 95.2589Z" fill="#E49B31"/>
<path d="M116.588 106.427V108.998C116.588 109.903 115.856 110.631 114.947 110.631H87.7073C86.7977 110.631 86.0659 109.903 86.0659 108.998V106.427C86.0659 105.523 86.7977 104.795 87.7073 104.795H114.947C115.85 104.788 116.588 105.523 116.588 106.427Z" fill="#FBC343"/>
<path d="M113.21 100.585V103.156C113.21 104.061 112.471 104.789 111.568 104.789H84.3288C83.4193 104.789 82.6875 104.061 82.6875 103.156V100.585C82.6875 99.6872 83.4193 98.9526 84.3288 98.9526H111.568C112.471 98.9526 113.21 99.6872 113.21 100.585Z" fill="#FBC343"/>
<path d="M116.588 106.428V108.999C116.588 109.904 115.857 110.631 114.947 110.631H95.4151C94.0678 108.978 93.2403 106.843 92.7479 104.795C92.1734 102.449 92.0298 100.225 91.9956 98.9526H111.576C112.478 98.9526 113.217 99.6872 113.217 100.585V103.156C113.217 104.061 112.478 104.789 111.576 104.789H114.954C115.85 104.789 116.588 105.523 116.588 106.428Z" fill="#E49B31"/>
<path d="M130.904 58.5567L128.701 65.2769L128.537 65.7735L127.518 68.8955L127.512 68.9159L124.222 68.8411L111.604 68.5554L110.681 65.9299L110.524 65.4878L108.082 58.5499C115.66 61.1686 121.904 55.4619 130.904 58.5567Z" fill="#FBC343"/>
<path d="M128.537 65.7736L127.518 68.8957L124.221 68.8481L111.603 68.5624L110.68 65.9369C115.016 65.8553 122.484 65.7532 128.537 65.7736Z" fill="#E49B31"/>
<path d="M142.638 103.714C141.989 105.775 140.703 107.503 139.048 108.713C137.386 109.931 135.341 110.625 133.173 110.625H104.593C100.463 110.625 96.8379 107.877 95.7368 103.911C95.1008 101.619 94.7657 99.2929 94.7109 96.9803C94.7041 96.7559 94.7041 96.5314 94.7041 96.3137C94.7041 96.0485 94.7109 95.7832 94.7178 95.5247C94.9503 87.1381 99.0742 79.3296 105.687 74.1195L112.526 68.7324L128.174 69.0929L136.777 77.2823C137.988 78.4318 139.068 79.7241 139.93 81.1457C140.97 82.853 141.804 84.6623 142.44 86.5259C144.307 92.015 144.43 98.0346 142.638 103.714Z" fill="#FBC343"/>
<path d="M117.19 103.108V100.102C115.056 100.006 112.984 99.4351 111.773 98.7413L112.731 95.0344C114.071 95.7621 115.945 96.4287 118.017 96.4287C119.83 96.4287 121.074 95.7349 121.074 94.463C121.074 93.2591 120.055 92.4973 117.696 91.7083C114.29 90.5656 111.965 88.9875 111.965 85.9131C111.965 83.1244 113.941 80.941 117.347 80.2744V77.2612H120.466V80.05C122.6 80.1452 124.036 80.5873 125.082 81.0975L124.159 84.6752C123.331 84.3283 121.868 83.5937 119.57 83.5937C117.498 83.5937 116.834 84.478 116.834 85.369C116.834 86.4165 117.949 87.0762 120.657 88.0897C124.446 89.4229 125.978 91.1641 125.978 94.0141C125.978 96.83 123.974 99.2379 120.308 99.8772V103.108H117.19Z" fill="white"/>
<path d="M130.753 71.6434H108.615C107.699 71.6434 106.953 70.8952 106.953 69.9906V69.2832C106.953 68.3718 107.705 67.6304 108.615 67.6304H130.753C131.669 67.6304 132.415 68.3786 132.415 69.2832V69.9906C132.415 70.8952 131.669 71.6434 130.753 71.6434Z" fill="#ED7545"/>
<path opacity="0.4" d="M142.637 103.714C141.987 105.775 140.701 107.503 139.046 108.713C137.385 109.931 135.34 110.625 133.172 110.625H104.592C100.461 110.625 96.8364 107.877 95.7353 103.911C95.0993 101.619 94.7642 99.2928 94.7095 96.9802C99.4352 101.463 105.009 107.326 118.037 107.509C134.211 107.734 141.18 100.191 142.432 86.519C144.306 92.0149 144.429 98.0345 142.637 103.714Z" fill="#E49B31"/>
<path d="M31.6195 105.652L28.7266 104.57L22.0039 110.447H29.9576L31.6195 105.652Z" fill="#102048"/>
<path d="M31.6208 105.652H38.0153L37.2903 110.21L29.959 110.448L31.6208 105.652Z" fill="#F9B384"/>
<path d="M57.2793 80.0977L57.0467 81.6893L56.9031 82.6483L55.891 89.5522L55.5011 92.1913L55.1592 94.5447L54.2565 100.68L53.6273 104.931C53.1554 108.128 50.3993 110.502 47.1508 110.502H33.0078L33.0283 110.325L33.4865 105.645L33.5549 104.985L43.4167 103.095L44.7435 93.5312C44.0938 90.7493 44.2511 88.0694 44.5315 86.1921C44.7708 84.5936 45.1059 83.5734 45.1059 83.5734L49.5034 82.315L57.2793 80.0977Z" fill="#1F3C88"/>
<path d="M54.2583 100.68L53.6292 104.931C53.1573 108.128 50.4012 110.502 47.1527 110.502H46.4277C52.9111 109.352 51.639 101.122 54.2583 100.68Z" fill="#102048"/>
<path d="M27.9755 108.139L26.5889 110.357L26.8967 110.547L28.2833 108.329L27.9755 108.139Z" fill="white"/>
<path d="M55.8921 89.5591L55.1603 94.5516C53.1223 93.9735 50.4346 91.0759 50.4346 91.0759L55.8921 89.5591Z" fill="#102048"/>
<path d="M70.8773 102.291C70.8773 102.291 67.4373 104.046 61.2891 102.924L66.3978 99.5503L70.8773 102.291Z" fill="#102048"/>
<path d="M68.982 104.706L63.4903 104.828L63.4561 103.652L63.3672 100.414L68.2502 100.775L68.4827 102.026L68.982 104.706Z" fill="#F9B384"/>
<path d="M68.4827 102.026L63.4561 103.652L63.3672 100.414L68.2502 100.775L68.4827 102.026Z" fill="#E28B6D"/>
<path d="M75.219 110.495L69.1529 105.632L68.9819 104.713L63.4834 104.829L63.6407 110.495H75.219Z" fill="#102048"/>
<path d="M71.0841 106.998L68.9146 108.346L69.1065 108.651L71.276 107.304L71.0841 106.998Z" fill="white"/>
<path d="M45.0942 83.5799L64.7631 80.4715C65.6795 80.3287 66.6233 80.4511 67.4781 80.8252C69.1674 81.5734 70.2821 83.2194 70.3368 85.0559L70.8771 102.292C70.8771 102.292 65.2692 101.122 61.2889 102.924L60.9264 91.1368C58.5191 92.225 54.3542 92.4563 50.1345 92.0346L45.0942 83.5799Z" fill="#1F3C88"/>
<path d="M68.1086 101.754H67.7461C67.7461 98.7752 67.8214 96.2994 67.8829 94.116C68.0402 88.797 68.1223 85.8654 66.7613 84.6275C65.6603 83.6208 63.4581 83.6548 60.2575 84.0289C56.8312 84.4234 55.4634 80.798 55.4565 80.764L55.7985 80.6416C55.8464 80.7776 57.0774 84.0493 60.2233 83.6752C63.6086 83.2807 65.8039 83.2603 67.0144 84.3622C68.4984 85.7157 68.4164 88.5249 68.2522 94.1228C68.177 96.2994 68.1086 98.7752 68.1086 101.754Z" fill="#3A6BEA"/>
<path d="M61.2945 100.748L61.1646 100.415C61.2124 100.394 65.7945 98.7005 70.8622 99.9588L70.7733 100.306C65.8219 99.0746 61.3355 100.734 61.2945 100.748Z" fill="#3A6BEA"/>
<path d="M35.02 110.557C34.4592 109.434 35.3278 104.789 35.3688 104.598L35.7244 104.666C35.4782 105.979 34.9243 109.557 35.3483 110.4L35.02 110.557Z" fill="#3A6BEA"/>
<path d="M55.3246 82.1382C55.3246 82.1382 53.9363 85.0766 50.804 87.0559C49.7372 87.7225 48.6976 88.0285 47.7607 88.0353C46.345 88.0421 45.1687 87.3552 44.5327 86.1989C44.7721 84.6004 45.1072 83.5802 45.1072 83.5802L49.5046 82.3218L53.9431 82.179L55.3246 82.1382Z" fill="#102048"/>
<path d="M51.7881 64.4199V68.5826H55.8915V64.9845L51.7881 64.4199Z" fill="#ED7545"/>
<path d="M55.8915 62.4062H51.7881V64.4196L55.8915 64.9841V62.4062Z" fill="#F9B384"/>
<path d="M53 62.9781C53.0889 62.9781 53.9917 64.3793 55.8929 64.9846L55.8655 62.8013L53 62.9781Z" fill="#102048"/>
<path d="M56.3703 57.4277C56.3703 57.4277 58.634 63.4881 55.707 63.8758C52.7799 64.2635 52.3285 62.944 52.3285 62.944L51.4258 59.7335L53.4433 57.0332L56.3703 57.4277Z" fill="#F9B384"/>
<path d="M57.7616 60.3539C57.7681 60.0046 57.4887 59.7162 57.1375 59.7097C56.7863 59.7032 56.4963 59.9812 56.4898 60.3304C56.4833 60.6797 56.7627 60.9681 57.1139 60.9746C57.4651 60.9811 57.7551 60.7031 57.7616 60.3539Z" fill="#F9B384"/>
<path d="M53.3012 60.3048C53.3012 60.3048 53.4517 57.0671 56.3788 57.4276C56.3788 57.4276 54.4092 54.9109 51.8172 55.8904C50.4973 56.3869 49.6219 57.6385 49.4919 59.0328C49.3278 60.8353 50.381 62.8894 51.8582 63.2499C51.8582 63.2499 52.3438 62.1412 53.1508 60.7333L53.3012 60.3048Z" fill="#102048"/>
<path d="M53.6378 61.4688C54.0821 61.261 54.2444 60.6737 54.0001 60.157C53.7559 59.6402 53.1977 59.3897 52.7533 59.5975C52.309 59.8052 52.1467 60.3925 52.3909 60.9093C52.6352 61.426 53.1934 61.6765 53.6378 61.4688Z" fill="#F9B384"/>
<path opacity="0.4" d="M56.2106 60.7103C56.2172 60.2558 55.852 59.8821 55.395 59.8756C54.938 59.8692 54.5623 60.2323 54.5558 60.6868C54.5492 61.1413 54.9144 61.515 55.3714 61.5215C55.8284 61.528 56.2041 61.1648 56.2106 60.7103Z" fill="#EB5D60"/>
<path d="M53.3757 60.8764C53.3278 60.8764 53.2868 60.8356 53.2868 60.788C53.2868 60.7676 53.2731 60.2643 52.7192 60.1894C52.6713 60.1826 52.6371 60.135 52.6439 60.0874C52.6508 60.0398 52.6986 60.0058 52.7465 60.0126C53.4646 60.1146 53.4714 60.788 53.4714 60.7948C53.4646 60.8356 53.4236 60.8764 53.3757 60.8764Z" fill="#102048"/>
<path d="M67.0728 58.4814C67.0728 58.4814 70.2323 58.7195 71.9558 60.7328L68.037 61.6919L67.0728 58.4814Z" fill="#BA5C36"/>
<path d="M72.6797 56.7539C72.6934 57.0396 71.9001 58.4748 71.312 59.495C70.97 60.08 70.7033 60.5289 70.7033 60.5289L68.5969 61.1411L67.0923 58.8829L67.0171 58.774C67.0171 58.774 67.0376 58.6788 67.0786 58.502V58.4952C67.0855 58.4884 67.0855 58.4816 67.0855 58.4748C67.3385 57.4069 68.2344 53.7611 68.7542 53.6387C69.2124 53.5366 68.9457 55.5296 68.9457 55.5296C68.9457 55.5296 70.0741 52.2851 70.7375 52.4212C71.2709 52.5232 70.2246 55.6316 70.2246 55.6316C70.2246 55.6316 70.5939 55.2439 70.9768 55.3663C71.3803 55.5024 71.4282 55.8765 71.4282 55.8765C71.4282 55.8765 71.6949 55.686 71.9617 55.8493C72.2284 56.0125 72.201 56.5158 72.201 56.5158C72.201 56.5158 72.6524 56.305 72.6797 56.7539Z" fill="#F9B384"/>
<path d="M50.8306 67.1196L49.4012 72.6903L47.1786 81.3286C45.6672 81.9952 44.0805 82.24 42.8153 82.0292C41.3518 81.7911 40.3259 80.9409 40.3943 79.4377C40.5722 75.3906 50.8306 67.1196 50.8306 67.1196Z" fill="#ED7545"/>
<path d="M50.5566 68.7046L49.4009 72.6904L47.1782 81.3287C45.6668 81.9953 44.0801 82.2402 42.8149 82.0293C46.0293 72.8401 50.5566 68.7046 50.5566 68.7046Z" fill="#BA5C36"/>
<path d="M59.5099 81.308C56.5281 81.5121 47.1177 89.2457 44.854 84.2532C44.854 84.2532 45.1686 65.6367 54.832 65.9768C56.5418 66.038 58.0464 67.1739 58.5593 68.7927C58.7918 69.5273 59.0243 70.4864 59.2021 71.7175C59.3868 72.969 59.5236 74.4994 59.5714 76.3699C59.6193 77.8119 59.5988 79.4443 59.5099 81.308Z" fill="#ED7545"/>
<path d="M59.578 76.3702C58.0871 75.4112 56.5278 72.5136 56.5278 72.5136L59.2155 71.7246C59.3934 72.9693 59.5301 74.4997 59.578 76.3702Z" fill="#BA5C36"/>
<path d="M71.3114 59.4949C70.9695 60.0799 70.7028 60.5288 70.7028 60.5288L68.5964 61.1409L67.0918 58.8828L67.0781 58.5018V58.4814H67.085L71.3114 59.4949Z" fill="#E28B6D"/>
<path d="M54.8374 65.9838C54.8374 65.9838 59.4811 66.3103 62.285 66.8477L67.0791 58.4814C68.5427 59.6446 70.1703 60.3996 71.9621 60.7328L67.763 70.5614C66.8398 72.4319 64.9522 73.6359 62.8663 73.7107L55.6786 73.9556L54.8374 65.9838Z" fill="#ED7545"/>
<path d="M62.2784 66.9769C62.2715 66.9769 62.2647 66.9769 62.251 66.9769C62.1621 66.9633 53.4014 65.3649 51.9037 66.6776C51.849 66.7253 51.7601 66.7185 51.7122 66.664C51.6643 66.6096 51.6712 66.5212 51.7259 66.4736C53.3193 65.0724 61.9364 66.6436 62.2989 66.7117C62.3741 66.7253 62.422 66.7933 62.4083 66.8681C62.4015 66.9361 62.3468 66.9769 62.2784 66.9769Z" fill="#BA5C36"/>
<path d="M158.312 102.768L158.914 110.448H148.874L153.942 106.972L153.853 102.17L158.312 102.768Z" fill="#102048"/>
<path d="M173.119 99.5029L175.827 106.067L168.954 111.828L169.952 105.352L168.591 101.033L173.119 99.5029Z" fill="#102048"/>
<path d="M160.967 62.4677C160.878 62.7194 160.796 63.0459 160.714 63.4268C160.577 64.0934 160.467 64.9436 160.365 65.9435C160.043 69.2083 159.913 74.0648 159.879 79.2206C159.804 90.8313 160.242 103.972 160.242 103.972L158.402 103.945L153.881 103.877L152.281 103.85C149.86 85.451 150.551 69.9157 150.913 64.5083C150.927 64.3178 150.941 64.1478 150.948 63.9845C151.023 62.9915 151.077 62.4609 151.077 62.4609H160.967V62.4677Z" fill="#1F3C88"/>
<path d="M174.835 101.211L173.918 101.435L169.097 102.632L166.149 103.367C166.149 103.367 162.661 90.4977 159.878 79.2135C158.538 73.7721 157.361 68.7047 156.814 65.6235C156.623 64.5352 156.513 63.6986 156.5 63.1816L160.712 63.4197L166.033 63.719C166.033 63.719 166.163 64.4808 166.416 65.8411C167.428 71.2826 170.396 86.3418 174.835 101.211Z" fill="#1F3C88"/>
<path d="M166.414 65.8482C164.274 66.0251 162.229 66.0319 160.362 65.9367C159.09 65.8686 157.9 65.7598 156.813 65.6306C154.118 65.2973 152.046 64.8076 150.911 64.5083C150.295 64.345 149.953 64.2362 149.953 64.2362L150.938 63.9845L157.031 62.4609H160.957C160.868 62.7126 160.786 63.0391 160.704 63.42L166.025 63.7193C166.032 63.7261 166.161 64.4879 166.414 65.8482Z" fill="#102048"/>
<path d="M160.063 80.622C159.769 79.4045 158.387 73.6229 158.209 72.6435L155.412 71.6028L155.542 71.2627L158.551 72.385V72.5074C158.572 72.7727 159.68 77.4523 160.418 80.5336L160.063 80.622Z" fill="#3A6BEA"/>
<path d="M152.965 85.8863C151.652 85.8863 150.811 85.5598 150.77 85.5462L150.906 85.2129C150.92 85.2197 152.397 85.7842 154.483 85.3829L154.551 85.7366C153.97 85.8455 153.437 85.8863 152.965 85.8863Z" fill="#3A6BEA"/>
<path d="M163.442 85.6345C162.6 85.6345 161.889 85.5053 161.834 85.4917L161.903 85.138C161.93 85.1448 164.372 85.5937 165.507 84.8047L165.712 85.0972C165.11 85.5257 164.221 85.6345 163.442 85.6345Z" fill="#3A6BEA"/>
<path d="M154.058 106.834L153.838 107.121L155.255 108.2L155.475 107.914L154.058 106.834Z" fill="white"/>
<path d="M170.02 105.187L169.883 105.521L171.816 106.301L171.952 105.967L170.02 105.187Z" fill="white"/>
<path d="M155.66 42.7974C155.66 42.7974 149.45 43.5796 147.884 50.531L149.751 58.8088L148.91 64.3251C148.91 64.3251 157.349 65.1617 166.034 63.7265L163.395 49.6604L155.66 42.7974Z" fill="#ED7545"/>
<path d="M159.515 60.427C159.515 60.427 157.648 59.0598 160.09 53.0811L161.717 58.9714L159.515 60.427Z" fill="#6E3620"/>
<path d="M152.234 52.9113L151.783 52.0611L158.731 48.4017C158.923 48.2997 159.169 48.3745 159.271 48.5649L159.353 48.7146C159.456 48.905 159.381 49.1499 159.189 49.2519L152.234 52.9113Z" fill="#102048"/>
<path d="M161.091 58.4818L160.906 58.3798L158.506 57.0942L154.485 54.9312C154.409 54.4483 154.464 54.0402 154.758 53.7613L154.56 53.6797C154.231 53.5437 153.992 53.2512 153.931 52.9043L153.924 52.8635C153.821 52.5166 153.869 52.1901 153.903 52.0133L153.999 51.8908C154.231 51.5847 154.341 51.4283 154.642 51.1902L154.129 51.2175C154.129 51.2175 152.864 51.5643 153.452 50.7549C153.855 50.1904 154.765 49.7211 155.285 49.483C155.504 49.381 155.763 49.4286 155.934 49.5986C157.671 51.3943 160.735 53.5437 160.735 53.5437L160.77 53.9858L161.064 58.0261L161.091 58.4818Z" fill="#F9B384"/>
<path d="M156.345 51.6049L155.251 51.0743C155.134 51.0199 155.011 50.9995 154.881 51.0199L153.712 51.2239L153.678 51.0471L154.847 50.843C155.011 50.8158 155.175 50.8362 155.326 50.9111L156.42 51.4416L156.345 51.6049Z" fill="#E28B6D"/>
<path d="M156.14 52.6253L154.827 52.122C154.765 52.1016 154.703 52.088 154.642 52.088H153.896V51.9111H154.642C154.724 51.9111 154.813 51.9247 154.888 51.9587L156.201 52.4621L156.14 52.6253Z" fill="#E28B6D"/>
<path d="M155.961 53.6452L154.771 53.1963C154.676 53.1623 154.573 53.1487 154.477 53.1623L153.992 53.2167L153.971 53.0399L154.457 52.9855C154.587 52.9719 154.717 52.9855 154.84 53.0331L156.03 53.482L155.961 53.6452Z" fill="#E28B6D"/>
<path d="M161.054 58.0124L160.904 58.3797L158.503 57.0873L160.09 53.0811L160.753 53.9721L161.054 58.0124Z" fill="#E28B6D"/>
<path d="M159.516 60.4272C159.516 60.4272 163.107 63.8145 166.027 63.7261L165.186 59.7402L159.516 60.4272Z" fill="#BA5C36"/>
<path d="M155.659 42.7969C155.659 42.7969 156.104 42.7493 156.835 42.7765C164.078 43.0213 169.624 49.2178 169.276 56.4209C169.132 59.4001 168.352 62.3521 165.849 62.4133L159.516 60.4339C160.111 58.2098 160.563 55.8971 160.091 53.088L163.032 54.4824L155.659 42.7969Z" fill="#ED7545"/>
<path d="M157.726 60.155L148.876 60.3659L148.637 59.6245L147.748 56.9037L145.169 49.0341L154.019 48.8164L157.726 60.155Z" fill="#D3DFFF"/>
<path opacity="0.3" d="M149.619 55.958C149.619 55.958 149.606 58.3931 148.635 59.6242L147.746 56.9035L149.619 55.958Z" fill="#1F3C88"/>
<path d="M145.332 55.7683C145.613 54.8705 146.119 54.0475 146.68 53.2993C146.857 53.0612 147.247 52.4763 147.617 52.5647C148.369 52.7415 147.617 54.0611 147.617 54.0611C147.617 54.0611 148.342 52.9796 148.608 53.5237C148.882 54.0611 148.485 54.6664 148.485 54.6664C148.485 54.6664 149.634 53.9182 149.21 55.4146C149.21 55.4146 150.147 55.2922 149.573 56.3125C149.162 57.0403 148.902 57.8497 148.389 58.5231C147.876 59.1964 146.905 59.5773 146.098 59.1896C145.155 58.7407 145.031 57.5368 145.148 56.6186C145.175 56.3329 145.243 56.0472 145.332 55.7683Z" fill="#F9B384"/>
<path d="M146.953 55.5305C146.939 55.5305 146.925 55.5305 146.919 55.5237C146.871 55.5033 146.85 55.4489 146.871 55.4081L147.732 53.4764C147.753 53.4288 147.808 53.4084 147.849 53.4288C147.897 53.4492 147.917 53.5036 147.897 53.5444L147.035 55.4761C147.021 55.5101 146.987 55.5305 146.953 55.5305Z" fill="#E28B6D"/>
<path d="M147.837 56.2511C147.823 56.2511 147.81 56.2511 147.796 56.2443C147.748 56.2239 147.734 56.1695 147.755 56.1219L148.569 54.3874C148.589 54.3398 148.644 54.3262 148.692 54.3466C148.74 54.367 148.753 54.4214 148.733 54.469L147.919 56.2035C147.905 56.2307 147.871 56.2511 147.837 56.2511Z" fill="#E28B6D"/>
<path d="M148.513 56.8359C148.5 56.8359 148.486 56.8359 148.472 56.8223C148.431 56.8019 148.411 56.7475 148.431 56.6999L149.136 55.3735C149.156 55.3327 149.211 55.3123 149.259 55.3327C149.3 55.3531 149.32 55.4075 149.3 55.4551L148.596 56.7815C148.582 56.8223 148.548 56.8359 148.513 56.8359Z" fill="#E28B6D"/>
<path d="M151.441 49.5986H148.275L147.734 48.5239H150.894L151.441 49.5986Z" fill="#102048"/>
<path d="M155.577 46.3068C154.64 46.3068 154.018 45.8443 154.011 45.8375C153.949 45.7899 153.942 45.7083 153.983 45.6471C154.031 45.5858 154.113 45.579 154.175 45.6199C154.23 45.6607 155.454 46.5653 157.095 45.579C157.157 45.5382 157.246 45.5586 157.28 45.6267C157.321 45.6879 157.3 45.7763 157.232 45.8103C156.623 46.1844 156.056 46.3068 155.577 46.3068Z" fill="#BA5C36"/>
<path d="M159.516 60.5636C159.502 60.5636 159.488 60.5636 159.475 60.5568C159.406 60.5364 159.365 60.4616 159.386 60.3868C160.685 56.0064 159.967 53.1428 159.96 53.1088L159.905 52.9048L165.507 53.8366C165.582 53.8502 165.63 53.9183 165.616 53.9931C165.602 54.0679 165.527 54.1155 165.459 54.1019L160.261 53.2381C160.398 53.9727 160.774 56.6662 159.646 60.4548C159.632 60.5228 159.577 60.5636 159.516 60.5636Z" fill="#BA5C36"/>
<path d="M163.62 53.7547H163.613C163.538 53.7479 163.483 53.6867 163.483 53.6119C163.483 53.5846 163.634 50.6803 161.609 47.7011C161.568 47.6399 161.582 47.5582 161.644 47.5106C161.705 47.4698 161.787 47.4834 161.835 47.5446C163.914 50.6055 163.757 53.5982 163.757 53.6255C163.75 53.7003 163.688 53.7547 163.62 53.7547Z" fill="#BA5C36"/>
<path d="M158.149 39.4844V42.9601C158.149 44.0824 157.273 44.987 156.186 44.987C155.105 44.987 154.223 44.0824 154.223 42.9601V39.4844H158.149Z" fill="#F9B384"/>
<path d="M156.295 39.9468C156.295 39.9468 156.09 42.0894 154.223 42.7152V39.668L156.295 39.9468Z" fill="#102048"/>
<path d="M152.738 35.5261C152.738 35.5261 152.13 40.3962 154.038 40.9743C155.946 41.5525 157.69 39.8724 157.69 39.8724L157.327 35.8525L154.503 34.1997L152.738 35.5261Z" fill="#F9B384"/>
<path d="M163.605 44.9939L159.837 45.2456C159.358 44.7219 159.092 43.9873 158.914 43.1643C158.757 44.0145 158.88 44.7219 159.304 45.2864L158.285 45.3544C157.382 44.0077 156.623 41.0285 157.519 38.4778L157.621 37.8793C157.621 37.8793 156.978 35.9407 156.042 35.8591C156.042 35.8591 152.841 38.0085 151.412 35.6074C150.345 33.8254 151.247 31.4788 153.805 33.2064C153.805 33.2064 159.953 30.3361 159.94 36.2196C159.933 37.2739 160.336 38.3078 161.116 39.0152C161.184 39.0832 161.253 39.1444 161.328 39.1988C162.71 40.2735 164.2 42.4433 163.605 44.9939Z" fill="#102048"/>
<path d="M158.568 38.1797C158.75 37.6183 158.507 37.0382 158.025 36.8838C157.544 36.7295 157.006 37.0594 156.824 37.6208C156.642 38.1821 156.885 38.7623 157.367 38.9167C157.849 39.071 158.387 38.741 158.568 38.1797Z" fill="#F9B384"/>
<path d="M157.588 38.2326C157.54 38.2326 157.499 38.1918 157.499 38.1442C157.499 37.7565 157.807 37.4096 158.169 37.396C158.169 37.396 158.169 37.396 158.176 37.396C158.224 37.396 158.265 37.43 158.265 37.4844C158.265 37.532 158.231 37.5796 158.176 37.5796C157.937 37.5932 157.677 37.8245 157.677 38.151C157.677 38.1986 157.643 38.2326 157.588 38.2326Z" fill="#102048"/>
<path d="M153.415 37.3827C153.415 37.5051 153.313 37.6071 153.19 37.6071C153.066 37.6071 152.964 37.5051 152.964 37.3827C152.964 37.2602 153.066 37.1582 153.19 37.1582C153.313 37.1582 153.415 37.2602 153.415 37.3827Z" fill="#102048"/>
<path d="M154.777 37.2669C154.777 37.3894 154.674 37.4914 154.551 37.4914C154.428 37.4914 154.325 37.3894 154.325 37.2669C154.325 37.1445 154.428 37.0425 154.551 37.0425C154.674 37.0425 154.777 37.1445 154.777 37.2669Z" fill="#102048"/>
<path d="M153.738 38.8858C153.718 38.8858 153.69 38.879 153.677 38.8585C153.492 38.6817 153.417 38.5117 153.451 38.3552C153.485 38.1988 153.629 38.1035 153.711 38.0627L153.69 37.6206C153.69 37.573 153.724 37.5322 153.779 37.5254C153.827 37.5254 153.868 37.5594 153.875 37.6138L153.902 38.1852L153.841 38.2056C153.793 38.226 153.656 38.2872 153.636 38.396C153.608 38.5117 153.718 38.6409 153.807 38.7293C153.841 38.7633 153.841 38.8177 153.807 38.8585C153.786 38.879 153.759 38.8858 153.738 38.8858Z" fill="#102048"/>
<path d="M153.923 39.539C153.848 39.539 153.8 39.5322 153.793 39.5322C153.745 39.5254 153.711 39.4778 153.718 39.4302C153.725 39.3826 153.772 39.3486 153.82 39.3554C153.827 39.3554 154.285 39.4234 154.689 39.0697C154.723 39.0357 154.785 39.0425 154.819 39.0765C154.853 39.1173 154.846 39.1717 154.812 39.2058C154.47 39.4914 154.107 39.539 153.923 39.539Z" fill="#102048"/>
<path opacity="0.4" d="M155.681 38.893C156.01 38.893 156.276 38.628 156.276 38.3012C156.276 37.9744 156.01 37.7095 155.681 37.7095C155.353 37.7095 155.086 37.9744 155.086 38.3012C155.086 38.628 155.353 38.893 155.681 38.893Z" fill="#EB5D60"/>
<path d="M198.737 110.271H5.6665V110.631H198.737V110.271Z" fill="#102048"/>
</svg>
