<svg width="100" height="126" viewBox="0 0 100 126" fill="none" xmlns="http://www.w3.org/2000/svg">
<g filter="url(#filter0_d_13354_74550)">
<path d="M62.2411 8.55738L16.2069 12.5969C15.3936 12.6663 14.6025 12.9013 13.8789 13.2885C13.1553 13.6756 12.5134 14.2072 11.9899 14.853C11.4664 15.4987 11.0717 16.2458 10.8282 17.0516C10.5848 17.8574 10.4974 18.7061 10.5711 19.549L18.316 107.74C18.3889 108.583 18.6216 109.405 19.0008 110.157C19.3801 110.909 19.8984 111.577 20.5261 112.123C21.1538 112.669 21.8786 113.082 22.6588 113.338C23.4391 113.595 24.2595 113.689 25.0731 113.616L83.9912 108.446C84.8036 108.376 85.5937 108.14 86.3161 107.753C87.0385 107.365 87.6791 106.833 88.2012 106.187C88.7232 105.542 89.1165 104.795 89.3584 103.989C89.6004 103.184 89.6862 102.336 89.611 101.494L83.0609 26.6523L62.2411 8.55738Z" fill="white"/>
<path d="M62.2488 8.56006L63.4224 21.9149C63.4959 22.7569 63.7287 23.5768 64.1075 24.3276C64.4863 25.0784 65.0038 25.7455 65.6302 26.2908C66.2567 26.836 66.98 27.2487 67.7587 27.5054C68.5374 27.762 69.3563 27.8575 70.1686 27.7865L83.0686 26.6549L62.2488 8.56006Z" fill="#B8C0CF"/>
<path opacity="0.7" d="M62.2488 8.56006L63.4224 21.9149C63.4959 22.7569 63.7287 23.5768 64.1075 24.3276C64.4863 25.0784 65.0038 25.7455 65.6302 26.2908C66.2567 26.836 66.98 27.2487 67.7587 27.5054C68.5374 27.762 69.3563 27.8575 70.1686 27.7865L83.0686 26.6549L62.2488 8.56006Z" fill="url(#paint0_linear_13354_74550)" fill-opacity="0.9"/>
<rect width="39.6039" height="1.77206" rx="0.886031" transform="matrix(0.996113 -0.0880836 0.0884344 0.996082 16.2782 22.1016)" fill="#E8EDF8"/>
<rect width="59.4615" height="1.77206" rx="0.886031" transform="matrix(0.996113 -0.0880836 0.0884344 0.996082 18.7333 47.7227)" fill="#E8EDF8"/>
<rect width="40.1289" height="1.77206" rx="0.886031" transform="matrix(0.996113 -0.0880836 0.0884344 0.996082 16.7982 30.646)" fill="#E8EDF8"/>
<rect width="59.4615" height="1.77206" rx="0.886031" transform="matrix(0.996113 -0.0880836 0.0884344 0.996082 19.5575 56.2612)" fill="#E8EDF8"/>
<rect width="59.4615" height="1.77206" rx="0.886032" transform="matrix(0.996108 -0.0881417 0.0883824 0.996087 17.6598 39.1899)" fill="#E8EDF8"/>
<rect width="59.4615" height="1.77206" rx="0.886032" transform="matrix(0.996108 -0.0881417 0.0883824 0.996087 19.9012 64.8003)" fill="#E8EDF8"/>
</g>
<path d="M89.9634 103.067L91.4653 101.456L83.286 93.8313L81.784 95.4426L89.9634 103.067Z" fill="url(#paint1_linear_13354_74550)"/>
<path d="M94.5205 108.093C94.7817 108.337 95.1909 108.322 95.4345 108.061L96.8264 106.57C97.0702 106.309 97.0559 105.899 96.7945 105.655L91.1712 100.413C90.91 100.169 90.5008 100.183 90.2572 100.444L88.8653 101.936C88.6215 102.197 88.6358 102.607 88.8972 102.85L94.5205 108.093Z" fill="#3B82F6"/>
<path d="M65.7035 86.9259C65.8374 85.6543 66.2217 84.4218 66.8342 83.2995C67.4468 82.1771 68.2755 81.1872 69.2726 80.3867C69.4088 80.2763 69.5468 80.1714 69.6867 80.072C70.9038 79.1945 72.3074 78.6102 73.7877 78.3649C75.268 78.1195 76.785 78.2198 78.2202 78.6578C79.6553 79.0959 80.9698 79.8598 82.0608 80.8899C83.1519 81.9201 83.99 83.1885 84.5096 84.5962C85.3707 86.942 85.3026 89.5283 84.3191 91.8255C83.3975 93.9662 81.7383 95.7051 79.6432 96.7261C77.5481 97.7471 75.1561 97.9823 72.9022 97.3891C70.6483 96.7959 68.6821 95.4136 67.3611 93.4935C66.04 91.5734 65.4519 89.243 65.7035 86.9259Z" fill="white"/>
<path d="M65.7048 86.9246C66.4115 80.0238 73.9858 76.0793 80.0585 79.3862C87.6935 83.6067 86.4873 94.844 78.1263 97.3531C71.4766 99.2853 64.9209 93.8171 65.7048 86.9246ZM65.7048 86.9246C64.9623 93.7868 71.5015 99.2218 78.1097 97.2703C86.341 94.786 87.5362 83.6454 80.0419 79.4607C74.0023 76.1483 66.4501 80.0625 65.7186 86.9136L65.7048 86.9246Z" fill="url(#paint2_linear_13354_74550)"/>
<path d="M74.3144 99.3229C72.077 99.0818 69.9614 98.1826 68.235 96.7392C66.5087 95.2957 65.2491 93.3727 64.6157 91.2134C63.9822 89.0541 64.0032 86.7554 64.6761 84.6081C65.349 82.4607 66.6436 80.5611 68.396 79.1495C70.1485 77.7378 72.2802 76.8776 74.5216 76.6774C76.763 76.4773 79.0135 76.9463 80.9883 78.0251C82.9632 79.1039 84.5738 80.7441 85.6165 82.7383C86.6592 84.7325 87.0871 86.991 86.8462 89.2284C86.5204 92.2277 85.0177 94.9752 82.6682 96.8677C80.3187 98.7603 77.3143 99.6433 74.3144 99.3229ZM74.4551 98.0283C76.4365 98.2434 78.4371 97.8661 80.204 96.944C81.9708 96.0219 83.4245 94.5965 84.3812 92.8482C85.3379 91.0998 85.7545 89.107 85.5784 87.1218C85.4023 85.1366 84.6413 83.2482 83.3919 81.6955C82.1424 80.1428 80.4605 78.9956 78.5589 78.3989C76.6573 77.8023 74.6215 77.783 72.7089 78.3435C70.7964 78.9041 69.0931 80.0192 67.8144 81.548C66.5357 83.0767 65.7392 84.9503 65.5255 86.9318C65.2422 89.5867 66.023 92.2456 67.6969 94.3257C69.3708 96.4057 71.8011 97.7372 74.4551 98.0283Z" fill="url(#paint3_linear_13354_74550)"/>
<path d="M85.3974 84.6521C85.0017 83.502 84.4086 82.4296 83.6446 81.4833C82.0158 79.474 79.6935 78.1476 77.1354 77.7657C74.5772 77.3838 71.9688 77.9739 69.8242 79.4198C67.6795 80.8658 66.1543 83.0626 65.5491 85.5773C64.944 88.092 65.3027 90.7422 66.5546 93.0055C67.8065 95.2689 69.8609 96.9812 72.3127 97.8049C74.7645 98.6287 77.436 98.5042 79.8006 97.4559C82.1651 96.4076 84.0513 94.5117 85.0872 92.1417C86.1232 89.7717 86.2339 87.0996 85.3974 84.6521ZM85.2179 89.0686C84.979 91.3122 83.9694 93.4034 82.3612 94.9858C80.7529 96.5682 78.6457 97.5438 76.3986 97.7464C74.1515 97.9489 71.9037 97.3659 70.0384 96.0966C68.1731 94.8273 66.8058 92.9503 66.1695 90.7857C65.5333 88.6211 65.6675 86.3028 66.5492 84.226C67.431 82.1493 69.0058 80.4426 71.005 79.397C73.0043 78.3514 75.3044 78.0316 77.5131 78.492C79.7218 78.9525 81.7024 80.1648 83.1173 81.9222C84.7296 83.93 85.4818 86.4942 85.2097 89.0548L85.2179 89.0686ZM85.3974 84.6521C85.0017 83.502 84.4086 82.4296 83.6446 81.4833C82.0158 79.474 79.6935 78.1476 77.1354 77.7657C74.5772 77.3838 71.9688 77.9739 69.8242 79.4198C67.6795 80.8658 66.1543 83.0626 65.5491 85.5773C64.944 88.092 65.3027 90.7422 66.5546 93.0055C67.8065 95.2689 69.8609 96.9812 72.3127 97.8049C74.7645 98.6287 77.436 98.5042 79.8006 97.4559C82.1651 96.4076 84.0513 94.5117 85.0872 92.1417C86.1232 89.7717 86.2339 87.0996 85.3974 84.6521ZM85.2179 89.0686C84.979 91.3122 83.9694 93.4034 82.3612 94.9858C80.7529 96.5682 78.6457 97.5438 76.3986 97.7464C74.1515 97.9489 71.9037 97.3659 70.0384 96.0966C68.1731 94.8273 66.8058 92.9503 66.1695 90.7857C65.5333 88.6211 65.6675 86.3028 66.5492 84.226C67.431 82.1493 69.0058 80.4426 71.005 79.397C73.0043 78.3514 75.3044 78.0316 77.5131 78.492C79.7218 78.9525 81.7024 80.1648 83.1173 81.9222C84.7296 83.93 85.4818 86.4942 85.2097 89.0548L85.2179 89.0686ZM86.6312 84.2464C85.9536 82.2589 84.7543 80.4902 83.1587 79.1251C81.5632 77.7601 79.6301 76.849 77.5618 76.4872C75.4934 76.1254 73.3658 76.3262 71.4016 77.0685C69.4375 77.8109 67.7089 79.0675 66.3969 80.7068C65.0849 82.3462 64.2376 84.3081 63.9437 86.3872C63.6498 88.4663 63.9201 90.5862 64.7264 92.525C65.5326 94.4638 66.8452 96.1503 68.5266 97.4079C70.2081 98.6656 72.1967 99.4482 74.2843 99.6738C76.2424 99.8847 78.2221 99.5987 80.0404 98.8421C81.8587 98.0856 83.457 96.8829 84.6876 95.3453C85.9182 93.8077 86.7414 91.9847 87.0811 90.0448C87.4208 88.1049 87.2661 86.1106 86.6312 84.2464ZM86.5153 89.2149C86.2251 91.9201 84.9463 94.4229 82.9242 96.2431C80.9022 98.0634 78.2793 99.0731 75.5586 99.0784C72.8379 99.0837 70.211 98.0843 68.1819 96.2719C66.1528 94.4596 64.8642 91.9618 64.5634 89.2578C64.2626 86.5538 64.9708 83.8339 66.552 81.62C68.1333 79.406 70.4763 77.8537 73.1316 77.261C75.7869 76.6683 78.5676 77.0768 80.9403 78.4082C83.3129 79.7397 85.1104 81.9002 85.9881 84.4755C86.5014 85.9916 86.6767 87.6018 86.5015 89.1929L86.5153 89.2149ZM83.6446 81.5054C82.0112 79.4987 79.6853 78.1769 77.1254 77.8006C74.5656 77.4243 71.9577 78.0208 69.816 79.4726C67.6743 80.9243 66.1543 83.1259 65.5557 85.6431C64.9572 88.1602 65.3236 90.8103 66.5827 93.0707C67.8417 95.331 69.9021 97.0376 72.3573 97.8537C74.8126 98.6699 77.4845 98.5365 79.8463 97.4797C82.208 96.423 84.088 94.5197 85.1156 92.1451C86.1432 89.7705 86.2437 87.0971 85.3974 84.6521C84.9992 83.5014 84.4032 82.429 83.6363 81.4833L83.6446 81.5054ZM85.2179 89.0769C84.979 91.3204 83.9694 93.4116 82.3612 94.994C80.7529 96.5765 78.6457 97.5521 76.3986 97.7547C74.1515 97.9572 71.9037 97.3741 70.0384 96.1048C68.1731 94.8355 66.8058 92.9586 66.1695 90.794C65.5333 88.6293 65.6675 86.311 66.5492 84.2343C67.431 82.1575 69.0058 80.4509 71.005 79.4053C73.0043 78.3597 75.3044 78.0398 77.5131 78.5003C79.7218 78.9608 81.7024 80.173 83.1173 81.9304C84.7275 83.9361 85.4796 86.497 85.2097 89.0548L85.2179 89.0769Z" fill="url(#paint4_linear_13354_74550)"/>
<path d="M68.8532 92.6718C68.2268 91.8381 67.7812 90.883 67.5448 89.8674C67.4175 89.3527 67.3426 88.8265 67.3212 88.2967C67.302 87.7602 67.3353 87.2231 67.4206 86.693C67.6017 85.6255 68.0052 84.6079 68.6047 83.7063C69.193 82.8182 69.9419 82.0478 70.813 81.4346C70.1418 82.2171 69.5509 83.0651 69.0492 83.9658C68.8119 84.4089 68.6106 84.8705 68.4474 85.3459C68.279 85.8135 68.1552 86.296 68.0775 86.7868C67.9163 87.7678 67.9079 88.7679 68.0527 89.7514C68.2017 90.7534 68.4705 91.7339 68.8532 92.6718Z" fill="url(#paint5_linear_13354_74550)"/>
<path d="M82.7672 85.666C83.1422 86.6392 83.3105 87.6799 83.2613 88.7217C83.2416 89.2567 83.1685 89.7884 83.0433 90.3089C82.9142 90.8298 82.7358 91.3372 82.5105 91.8243C82.0434 92.8002 81.3778 93.668 80.5562 94.3721C79.7416 95.0651 78.8057 95.6013 77.7959 95.9537C78.6555 95.3842 79.4554 94.7295 80.1836 93.9994C80.5329 93.6388 80.8532 93.2512 81.1414 92.8401C81.4307 92.4359 81.6812 92.0052 81.8895 91.5538C82.3124 90.6532 82.5918 89.6921 82.7176 88.7051C82.8568 87.6978 82.8734 86.6773 82.7672 85.666Z" fill="url(#paint6_linear_13354_74550)"/>
<path d="M72.4028 86.7584C72.4244 86.3868 72.5644 86.0176 72.8228 85.6508C73.0812 85.284 73.446 84.9879 73.9173 84.7627C74.3875 84.5386 74.9272 84.4432 75.5364 84.4766C76.1029 84.5078 76.5968 84.6399 77.0181 84.8731C77.4145 85.0818 77.7457 85.3958 77.9752 85.7805C78.1862 86.139 78.2855 86.5522 78.2605 86.9673C78.2507 87.2708 78.1646 87.567 78.0102 87.8285C77.8708 88.0604 77.6967 88.2696 77.4941 88.449C77.2989 88.6206 76.9494 88.9075 76.4455 89.3097C76.3279 89.4043 76.2154 89.5049 76.1085 89.6114C76.0349 89.684 75.9704 89.7652 75.9164 89.8532C75.8744 89.9239 75.8397 89.9988 75.8127 90.0765C75.787 90.1519 75.7474 90.2833 75.6939 90.4725C75.597 90.8744 75.3535 91.0646 74.9634 91.0429C74.8689 91.04 74.776 91.0184 74.69 90.9794C74.6039 90.9403 74.5264 90.8846 74.4621 90.8154C74.3312 90.675 74.2729 90.4741 74.2872 90.2126C74.299 89.6625 74.5285 89.1396 74.9255 88.7587C75.1543 88.5446 75.3937 88.3423 75.643 88.1524C75.9046 87.9473 76.0946 87.7926 76.2117 87.6873C76.3284 87.5832 76.43 87.4632 76.5134 87.3309C76.5971 87.1995 76.645 87.0484 76.6524 86.8928C76.6629 86.7437 76.6411 86.5942 76.5886 86.4544C76.536 86.3146 76.4539 86.1878 76.3478 86.0826C76.1265 85.8545 75.8334 85.73 75.4685 85.7089C75.0388 85.6853 74.7167 85.7763 74.5021 85.9819C74.2875 86.1875 74.0978 86.498 73.9329 86.9134C73.7762 87.3471 73.5129 87.5542 73.143 87.5348C73.0396 87.5312 72.9382 87.5061 72.8451 87.461C72.752 87.416 72.6694 87.352 72.6025 87.2732C72.5367 87.2049 72.4852 87.1242 72.4509 87.0358C72.4166 86.9474 72.4003 86.8531 72.4028 86.7584ZM74.9032 93.3318C74.6735 93.3223 74.4556 93.2274 74.2923 93.0656C74.1235 92.9018 74.0465 92.6814 74.0614 92.4042C74.0659 92.2885 74.0944 92.175 74.145 92.0708C74.1956 91.9667 74.2673 91.8742 74.3555 91.7992C74.4431 91.7215 74.5455 91.6623 74.6566 91.6251C74.7676 91.5879 74.885 91.5735 75.0017 91.5826C75.1169 91.5872 75.23 91.6149 75.3343 91.664C75.4386 91.7131 75.5319 91.7827 75.6088 91.8686C75.6857 91.9545 75.7445 92.055 75.7818 92.1641C75.819 92.2731 75.834 92.3886 75.8258 92.5036C75.8106 92.7766 75.7112 92.9861 75.5275 93.1322C75.3522 93.2754 75.1291 93.3468 74.9032 93.3318Z" fill="url(#paint7_linear_13354_74550)"/>
<defs>
<filter id="filter0_d_13354_74550" x="0.545776" y="0.557617" width="99.0916" height="125.083" filterUnits="userSpaceOnUse" color-interpolation-filters="sRGB">
<feFlood flood-opacity="0" result="BackgroundImageFix"/>
<feColorMatrix in="SourceAlpha" type="matrix" values="0 0 0 0 0 0 0 0 0 0 0 0 0 0 0 0 0 0 127 0" result="hardAlpha"/>
<feOffset dy="2"/>
<feGaussianBlur stdDeviation="5"/>
<feComposite in2="hardAlpha" operator="out"/>
<feColorMatrix type="matrix" values="0 0 0 0 0 0 0 0 0 0 0 0 0 0 0 0 0 0 0.07 0"/>
<feBlend mode="normal" in2="BackgroundImageFix" result="effect1_dropShadow_13354_74550"/>
<feBlend mode="normal" in="SourceGraphic" in2="effect1_dropShadow_13354_74550" result="shape"/>
</filter>
<linearGradient id="paint0_linear_13354_74550" x1="66.6603" y1="14.0854" x2="97.0132" y2="21.6446" gradientUnits="userSpaceOnUse">
<stop stop-color="white"/>
<stop offset="1" stop-color="white" stop-opacity="0"/>
</linearGradient>
<linearGradient id="paint1_linear_13354_74550" x1="89.9634" y1="103.067" x2="91.7561" y2="99.9642" gradientUnits="userSpaceOnUse">
<stop stop-color="#BEC7CF"/>
<stop offset="1" stop-color="#8D9293"/>
</linearGradient>
<linearGradient id="paint2_linear_13354_74550" x1="71.268" y1="82.4743" x2="86.2425" y2="87.6133" gradientUnits="userSpaceOnUse">
<stop stop-color="#4088F4"/>
<stop offset="1" stop-color="#7FC0FB"/>
</linearGradient>
<linearGradient id="paint3_linear_13354_74550" x1="70.7198" y1="81.61" x2="88.1802" y2="87.6147" gradientUnits="userSpaceOnUse">
<stop stop-color="#4088F4"/>
<stop offset="1" stop-color="#7FC0FB"/>
</linearGradient>
<linearGradient id="paint4_linear_13354_74550" x1="70.5866" y1="81.4371" x2="88.5631" y2="87.6189" gradientUnits="userSpaceOnUse">
<stop stop-color="#4088F4"/>
<stop offset="1" stop-color="#7FC0FB"/>
</linearGradient>
<linearGradient id="paint5_linear_13354_74550" x1="67.7458" y1="92.0465" x2="72.3576" y2="90.763" gradientUnits="userSpaceOnUse">
<stop offset="0.0977" stop-color="#C1C7D0"/>
<stop offset="1" stop-color="#EBECF0" stop-opacity="0.5"/>
</linearGradient>
<linearGradient id="paint6_linear_13354_74550" x1="78.4688" y1="95.3813" x2="84.8106" y2="92.3635" gradientUnits="userSpaceOnUse">
<stop offset="0.0977" stop-color="#C1C7D0"/>
<stop offset="1" stop-color="#EBECF0" stop-opacity="0.5"/>
</linearGradient>
<linearGradient id="paint7_linear_13354_74550" x1="72.5426" y1="88.1219" x2="78.2679" y2="85.4998" gradientUnits="userSpaceOnUse">
<stop stop-color="#4088F4"/>
<stop offset="1" stop-color="#7FC0FB"/>
</linearGradient>
</defs>
</svg>
