<svg width="282" height="279" viewBox="0 0 282 279" fill="none" xmlns="http://www.w3.org/2000/svg">
<g filter="url(#filter0_d_13354_74786)">
<path d="M4 60.851V247.044H75.8625V47.3682L4 60.851ZM55.3321 226.498H24.5334V205.954H55.3321V226.498ZM55.3321 185.408H24.5334V164.862H55.3321V185.408ZM55.3321 144.318H24.5334V123.772H55.3321V144.318ZM55.3321 103.226H24.5334V82.6824H55.3321V103.226Z" fill="#EAEDF1"/>
</g>
<g filter="url(#filter1_d_13354_74786)">
<path d="M96.396 0.5V247.044H250.389V29.3918L96.396 0.5ZM157.993 226.497H127.195V205.954H157.993V226.497ZM157.993 185.408H127.195V164.861H157.993V185.408ZM157.993 144.318H127.195V123.772H157.993V144.318ZM157.993 103.225H127.195V82.6822H157.993V103.225ZM157.993 62.1359H127.195V41.5896H157.993V62.1359ZM219.591 226.497H188.792V205.954H219.591V226.497ZM219.591 185.408H188.792V164.861H219.591V185.408ZM219.591 144.318H188.792V123.772H219.591V144.318ZM219.591 103.225H188.792V82.6822H219.591V103.225Z" fill="#EAEDF1"/>
</g>
<path d="M263.609 264.902L267.534 260.688L246.157 240.748L242.231 244.961L263.609 264.902Z" fill="url(#paint0_linear_13354_74786)"/>
<path d="M275.519 278.046C276.202 278.683 277.271 278.646 277.908 277.963L281.546 274.062C282.183 273.379 282.146 272.308 281.463 271.671L266.765 257.959C266.083 257.322 265.013 257.36 264.376 258.042L260.739 261.943C260.102 262.626 260.139 263.697 260.822 264.335L275.519 278.046Z" fill="#3B82F6"/>
<path d="M200.203 222.686C200.553 219.36 201.557 216.137 203.158 213.202C204.759 210.267 206.925 207.678 209.531 205.584C209.887 205.296 210.248 205.021 210.613 204.761C213.794 202.466 217.463 200.938 221.332 200.297C225.2 199.655 229.165 199.917 232.916 201.063C236.667 202.208 240.103 204.206 242.954 206.9C245.806 209.594 247.996 212.912 249.354 216.593C251.605 222.728 251.427 229.492 248.856 235.499C246.448 241.098 242.111 245.646 236.635 248.316C231.16 250.986 224.908 251.601 219.017 250.05C213.126 248.498 207.988 244.883 204.535 239.862C201.082 234.84 199.545 228.745 200.203 222.686Z" fill="white"/>
<path d="M200.207 222.685C202.054 204.638 221.85 194.322 237.721 202.97C257.676 214.008 254.524 243.396 232.671 249.958C215.292 255.011 198.158 240.71 200.207 222.685ZM200.207 222.685C198.266 240.631 215.357 254.845 232.628 249.741C254.141 243.244 257.265 214.109 237.678 203.165C221.893 194.502 202.155 204.739 200.243 222.656L200.207 222.685Z" fill="url(#paint1_linear_13354_74786)"/>
<path d="M222.708 255.11C216.861 254.479 211.331 252.128 206.819 248.353C202.307 244.578 199.016 239.549 197.36 233.902C195.704 228.254 195.759 222.243 197.518 216.627C199.277 211.011 202.66 206.043 207.24 202.351C211.821 198.66 217.392 196.41 223.25 195.886C229.108 195.363 234.99 196.59 240.151 199.411C245.313 202.232 249.522 206.522 252.248 211.737C254.973 216.952 256.091 222.859 255.462 228.71C254.61 236.554 250.683 243.74 244.542 248.689C238.401 253.638 230.549 255.948 222.708 255.11ZM223.076 251.724C228.255 252.287 233.484 251.3 238.102 248.888C242.719 246.477 246.519 242.749 249.019 238.177C251.519 233.604 252.608 228.393 252.148 223.201C251.688 218.009 249.699 213.071 246.433 209.01C243.168 204.949 238.772 201.949 233.802 200.389C228.832 198.828 223.511 198.778 218.512 200.244C213.514 201.71 209.062 204.626 205.72 208.624C202.378 212.622 200.296 217.522 199.738 222.704C198.997 229.647 201.038 236.601 205.413 242.041C209.788 247.481 216.14 250.963 223.076 251.724Z" fill="url(#paint2_linear_13354_74786)"/>
<path d="M251.675 216.74C250.641 213.732 249.091 210.928 247.094 208.453C242.837 203.198 236.767 199.729 230.081 198.73C223.395 197.732 216.578 199.275 210.973 203.056C205.368 206.838 201.381 212.583 199.8 219.16C198.218 225.736 199.155 232.667 202.428 238.586C205.7 244.505 211.069 248.984 217.477 251.138C223.885 253.292 230.867 252.967 237.047 250.225C243.227 247.484 248.157 242.525 250.864 236.327C253.572 230.129 253.861 223.141 251.675 216.74ZM251.206 228.29C250.582 234.158 247.943 239.627 243.74 243.765C239.536 247.903 234.029 250.455 228.156 250.985C222.283 251.514 216.408 249.99 211.533 246.67C206.658 243.351 203.084 238.442 201.421 232.781C199.758 227.12 200.109 221.057 202.414 215.626C204.718 210.194 208.834 205.731 214.059 202.997C219.285 200.262 225.296 199.426 231.069 200.63C236.841 201.834 242.018 205.005 245.716 209.601C249.93 214.852 251.896 221.558 251.184 228.254L251.206 228.29ZM251.675 216.74C250.641 213.732 249.091 210.928 247.094 208.453C242.837 203.198 236.767 199.729 230.081 198.73C223.395 197.732 216.578 199.275 210.973 203.056C205.368 206.838 201.381 212.583 199.8 219.16C198.218 225.736 199.155 232.667 202.428 238.586C205.7 244.505 211.069 248.984 217.477 251.138C223.885 253.292 230.867 252.967 237.047 250.225C243.227 247.484 248.157 242.525 250.864 236.327C253.572 230.129 253.861 223.141 251.675 216.74ZM251.206 228.29C250.582 234.158 247.943 239.627 243.74 243.765C239.536 247.903 234.029 250.455 228.156 250.985C222.283 251.514 216.408 249.99 211.533 246.67C206.658 243.351 203.084 238.442 201.421 232.781C199.758 227.12 200.109 221.057 202.414 215.626C204.718 210.194 208.834 205.731 214.059 202.997C219.285 200.262 225.296 199.426 231.069 200.63C236.841 201.834 242.018 205.005 245.716 209.601C249.93 214.852 251.896 221.558 251.184 228.254L251.206 228.29ZM254.9 215.679C253.129 210.481 249.994 205.856 245.824 202.286C241.654 198.716 236.602 196.333 231.196 195.387C225.79 194.441 220.229 194.966 215.096 196.907C209.962 198.849 205.444 202.135 202.015 206.422C198.586 210.71 196.372 215.84 195.604 221.278C194.836 226.715 195.542 232.259 197.649 237.33C199.757 242.4 203.187 246.811 207.582 250.1C211.976 253.389 217.174 255.435 222.63 256.025C227.748 256.577 232.922 255.829 237.674 253.85C242.426 251.872 246.604 248.727 249.82 244.705C253.036 240.684 255.188 235.917 256.076 230.843C256.963 225.77 256.559 220.555 254.9 215.679ZM254.597 228.673C253.838 235.748 250.496 242.293 245.211 247.053C239.926 251.814 233.071 254.454 225.96 254.468C218.85 254.482 211.984 251.868 206.681 247.129C201.377 242.389 198.01 235.857 197.223 228.785C196.437 221.713 198.288 214.6 202.421 208.81C206.554 203.02 212.677 198.961 219.617 197.411C226.557 195.86 233.825 196.929 240.026 200.411C246.227 203.893 250.925 209.543 253.219 216.278C254.561 220.243 255.019 224.454 254.561 228.615L254.597 228.673ZM247.094 208.511C242.825 203.263 236.746 199.806 230.056 198.822C223.365 197.838 216.549 199.398 210.951 203.194C205.354 206.991 201.381 212.749 199.817 219.332C198.253 225.915 199.21 232.845 202.501 238.757C205.792 244.668 211.176 249.131 217.594 251.266C224.011 253.4 230.994 253.051 237.167 250.287C243.339 247.524 248.253 242.546 250.939 236.336C253.624 230.126 253.887 223.134 251.675 216.74C250.634 213.731 249.077 210.926 247.072 208.453L247.094 208.511ZM251.206 228.312C250.582 234.179 247.943 239.648 243.74 243.787C239.536 247.925 234.029 250.477 228.156 251.006C222.283 251.536 216.408 250.011 211.533 246.692C206.658 243.372 203.084 238.464 201.421 232.803C199.758 227.141 200.109 221.079 202.414 215.647C204.718 210.216 208.834 205.753 214.059 203.018C219.285 200.284 225.296 199.447 231.069 200.652C236.841 201.856 242.018 205.026 245.716 209.622C249.924 214.868 251.89 221.565 251.184 228.254L251.206 228.312Z" fill="url(#paint3_linear_13354_74786)"/>
<path d="M208.435 237.713C206.797 235.533 205.633 233.035 205.015 230.379C204.682 229.033 204.486 227.657 204.431 226.271C204.38 224.868 204.467 223.463 204.69 222.077C205.164 219.285 206.218 216.624 207.785 214.266C209.323 211.944 211.28 209.929 213.557 208.325C211.802 210.372 210.258 212.589 208.947 214.945C208.327 216.104 207.801 217.311 207.374 218.554C206.934 219.777 206.61 221.039 206.407 222.323C205.986 224.888 205.964 227.504 206.342 230.076C206.732 232.696 207.434 235.26 208.435 237.713Z" fill="url(#paint4_linear_13354_74786)"/>
<path d="M244.801 219.391C245.781 221.936 246.221 224.657 246.092 227.382C246.041 228.781 245.85 230.172 245.522 231.533C245.185 232.895 244.719 234.222 244.13 235.496C242.909 238.048 241.169 240.318 239.022 242.159C236.893 243.971 234.447 245.374 231.808 246.295C234.054 244.806 236.145 243.094 238.048 241.184C238.961 240.241 239.798 239.228 240.552 238.153C241.308 237.095 241.963 235.969 242.507 234.789C243.612 232.433 244.342 229.92 244.671 227.339C245.035 224.704 245.079 222.035 244.801 219.391Z" fill="url(#paint5_linear_13354_74786)"/>
<path d="M219.567 217.624C219.623 216.652 219.989 215.686 220.664 214.727C221.34 213.768 222.293 212.994 223.525 212.405C224.754 211.818 226.164 211.569 227.757 211.656C229.237 211.738 230.528 212.084 231.629 212.693C232.665 213.239 233.531 214.06 234.131 215.067C234.682 216.004 234.942 217.085 234.876 218.17C234.851 218.964 234.626 219.738 234.222 220.422C233.858 221.029 233.403 221.576 232.873 222.045C232.363 222.494 231.45 223.244 230.133 224.296C229.825 224.543 229.531 224.807 229.252 225.085C229.06 225.275 228.891 225.487 228.75 225.718C228.64 225.903 228.549 226.098 228.479 226.301C228.412 226.499 228.308 226.842 228.168 227.337C227.915 228.388 227.279 228.886 226.259 228.829C226.012 228.821 225.769 228.765 225.544 228.663C225.319 228.561 225.117 228.415 224.949 228.234C224.607 227.867 224.454 227.341 224.492 226.657C224.522 225.219 225.122 223.851 226.16 222.855C226.758 222.295 227.384 221.766 228.035 221.27C228.719 220.733 229.216 220.329 229.522 220.053C229.827 219.781 230.092 219.467 230.31 219.121C230.529 218.777 230.654 218.382 230.673 217.975C230.701 217.586 230.644 217.195 230.507 216.829C230.369 216.463 230.155 216.132 229.877 215.856C229.299 215.26 228.533 214.934 227.579 214.879C226.456 214.818 225.614 215.055 225.053 215.593C224.493 216.131 223.997 216.943 223.566 218.029C223.156 219.163 222.468 219.705 221.501 219.654C221.231 219.645 220.966 219.579 220.723 219.461C220.479 219.344 220.263 219.176 220.088 218.97C219.917 218.792 219.782 218.581 219.692 218.349C219.603 218.118 219.56 217.872 219.567 217.624ZM226.102 234.815C225.501 234.79 224.932 234.542 224.505 234.119C224.064 233.69 223.863 233.114 223.902 232.389C223.913 232.086 223.988 231.789 224.12 231.517C224.252 231.245 224.44 231.003 224.67 230.807C224.899 230.604 225.167 230.449 225.457 230.351C225.747 230.254 226.054 230.216 226.359 230.24C226.66 230.252 226.956 230.325 227.228 230.453C227.501 230.582 227.745 230.764 227.946 230.988C228.147 231.213 228.3 231.476 228.398 231.761C228.495 232.046 228.534 232.348 228.513 232.649C228.473 233.363 228.214 233.911 227.733 234.293C227.275 234.667 226.692 234.854 226.102 234.815Z" fill="url(#paint6_linear_13354_74786)"/>
<defs>
<filter id="filter0_d_13354_74786" x="0" y="47.3682" width="79.8625" height="207.676" filterUnits="userSpaceOnUse" color-interpolation-filters="sRGB">
<feFlood flood-opacity="0" result="BackgroundImageFix"/>
<feColorMatrix in="SourceAlpha" type="matrix" values="0 0 0 0 0 0 0 0 0 0 0 0 0 0 0 0 0 0 127 0" result="hardAlpha"/>
<feOffset dy="4"/>
<feGaussianBlur stdDeviation="2"/>
<feComposite in2="hardAlpha" operator="out"/>
<feColorMatrix type="matrix" values="0 0 0 0 0 0 0 0 0 0 0 0 0 0 0 0 0 0 0.25 0"/>
<feBlend mode="normal" in2="BackgroundImageFix" result="effect1_dropShadow_13354_74786"/>
<feBlend mode="normal" in="SourceGraphic" in2="effect1_dropShadow_13354_74786" result="shape"/>
</filter>
<filter id="filter1_d_13354_74786" x="92.396" y="0.5" width="161.993" height="254.543" filterUnits="userSpaceOnUse" color-interpolation-filters="sRGB">
<feFlood flood-opacity="0" result="BackgroundImageFix"/>
<feColorMatrix in="SourceAlpha" type="matrix" values="0 0 0 0 0 0 0 0 0 0 0 0 0 0 0 0 0 0 127 0" result="hardAlpha"/>
<feOffset dy="4"/>
<feGaussianBlur stdDeviation="2"/>
<feComposite in2="hardAlpha" operator="out"/>
<feColorMatrix type="matrix" values="0 0 0 0 0 0 0 0 0 0 0 0 0 0 0 0 0 0 0.25 0"/>
<feBlend mode="normal" in2="BackgroundImageFix" result="effect1_dropShadow_13354_74786"/>
<feBlend mode="normal" in="SourceGraphic" in2="effect1_dropShadow_13354_74786" result="shape"/>
</filter>
<linearGradient id="paint0_linear_13354_74786" x1="263.609" y1="264.902" x2="268.299" y2="256.789" gradientUnits="userSpaceOnUse">
<stop stop-color="#BEC7CF"/>
<stop offset="1" stop-color="#8D9293"/>
</linearGradient>
<linearGradient id="paint1_linear_13354_74786" x1="214.747" y1="211.046" x2="253.889" y2="224.471" gradientUnits="userSpaceOnUse">
<stop stop-color="#4088F4"/>
<stop offset="1" stop-color="#7FC0FB"/>
</linearGradient>
<linearGradient id="paint2_linear_13354_74786" x1="213.314" y1="208.786" x2="258.954" y2="224.473" gradientUnits="userSpaceOnUse">
<stop stop-color="#4088F4"/>
<stop offset="1" stop-color="#7FC0FB"/>
</linearGradient>
<linearGradient id="paint3_linear_13354_74786" x1="212.965" y1="208.332" x2="259.955" y2="224.481" gradientUnits="userSpaceOnUse">
<stop stop-color="#4088F4"/>
<stop offset="1" stop-color="#7FC0FB"/>
</linearGradient>
<linearGradient id="paint4_linear_13354_74786" x1="205.54" y1="236.078" x2="217.595" y2="232.725" gradientUnits="userSpaceOnUse">
<stop offset="0.0977" stop-color="#C1C7D0"/>
<stop offset="1" stop-color="#EBECF0" stop-opacity="0.5"/>
</linearGradient>
<linearGradient id="paint5_linear_13354_74786" x1="233.567" y1="244.798" x2="250.145" y2="236.914" gradientUnits="userSpaceOnUse">
<stop offset="0.0977" stop-color="#C1C7D0"/>
<stop offset="1" stop-color="#EBECF0" stop-opacity="0.5"/>
</linearGradient>
<linearGradient id="paint6_linear_13354_74786" x1="219.932" y1="221.19" x2="234.899" y2="214.339" gradientUnits="userSpaceOnUse">
<stop stop-color="#4088F4"/>
<stop offset="1" stop-color="#7FC0FB"/>
</linearGradient>
</defs>
</svg>
