<svg width="250" height="250" viewBox="0 0 250 250" fill="none" xmlns="http://www.w3.org/2000/svg">
<path d="M128.069 82.2917L123.766 74.5574C123.064 73.2819 122.032 72.2177 120.777 71.4762C119.522 70.7347 118.09 70.3431 116.632 70.3423H52.1156C49.9562 70.3423 47.8853 71.1979 46.3583 72.7209C44.8314 74.2439 43.9736 76.3095 43.9736 78.4633V201.438C43.9736 203.684 44.8682 205.838 46.4606 207.426C48.0529 209.015 50.2127 209.907 52.4646 209.907H199.022C201.273 209.907 203.433 209.015 205.026 207.426C206.618 205.838 207.513 203.684 207.513 201.438V94.0478C207.513 91.894 206.655 89.8284 205.128 88.3054C203.601 86.7824 201.53 85.9268 199.37 85.9268H134.273C133.007 85.9316 131.763 85.5966 130.672 84.9571C129.58 84.3175 128.681 83.3969 128.069 82.2917Z" fill="white"/>
<path opacity="0.3" d="M125.538 82.2917L121.234 74.5574C120.533 73.2819 119.5 72.2177 118.245 71.4762C116.991 70.7347 115.559 70.3431 114.1 70.3423H49.5842C47.4247 70.3423 45.3538 71.1979 43.8269 72.7209C42.2999 74.2439 41.4421 76.3095 41.4421 78.4633V201.438C41.4421 203.684 42.3367 205.838 43.9291 207.426C45.5215 209.015 47.6812 209.907 49.9331 209.907H196.49C198.742 209.907 200.902 209.015 202.494 207.426C204.086 205.838 204.981 203.684 204.981 201.438V94.0478C204.981 91.894 204.123 89.8284 202.596 88.3054C201.069 86.7824 198.998 85.9268 196.839 85.9268H131.741C130.475 85.9316 129.232 85.5966 128.14 84.9571C127.049 84.3175 126.15 83.3969 125.538 82.2917Z" fill="#B8C0CF"/>
<g filter="url(#filter0_d_13287_94693)">
<path d="M142.797 47.9478L76.9637 53.7247C75.8005 53.824 74.6692 54.1601 73.6343 54.7137C72.5995 55.2673 71.6815 56.0276 70.9329 56.9511C70.1842 57.8745 69.6197 58.943 69.2715 60.0954C68.9234 61.2478 68.7984 62.4614 68.9039 63.6669L79.9799 189.788C80.084 190.995 80.4168 192.17 80.9592 193.245C81.5016 194.321 82.2428 195.277 83.1405 196.057C84.0382 196.838 85.0747 197.429 86.1906 197.795C87.3064 198.162 88.4797 198.297 89.6432 198.193L173.902 190.798C175.064 190.698 176.194 190.361 177.227 189.807C178.26 189.253 179.176 188.492 179.923 187.569C180.669 186.645 181.232 185.577 181.578 184.425C181.924 183.273 182.046 182.061 181.939 180.857L172.572 73.8253L142.797 47.9478Z" fill="white"/>
<path d="M142.808 47.9517L144.486 67.0504C144.592 68.2546 144.925 69.4271 145.466 70.5008C146.008 71.5746 146.748 72.5286 147.644 73.3084C148.54 74.0881 149.574 74.6784 150.688 75.0454C151.801 75.4124 152.973 75.549 154.134 75.4474L172.583 73.8292L142.808 47.9517Z" fill="#B8C0CF"/>
<path opacity="0.7" d="M142.808 47.9517L144.486 67.0504C144.592 68.2546 144.925 69.4271 145.466 70.5008C146.008 71.5746 146.748 72.5286 147.644 73.3084C148.54 74.0881 149.574 74.6784 150.688 75.0454C151.801 75.4124 152.973 75.549 154.134 75.4474L172.583 73.8292L142.808 47.9517Z" fill="url(#paint0_linear_13287_94693)" fill-opacity="0.9"/>
<rect width="56.6376" height="2.53423" rx="1.26712" transform="matrix(0.996113 -0.0880836 0.0884344 0.996082 77.0652 67.3174)" fill="#E8EDF8"/>
<rect width="85.036" height="2.53423" rx="1.26712" transform="matrix(0.996113 -0.0880836 0.0884344 0.996082 80.5762 103.959)" fill="#E8EDF8"/>
<rect width="57.3884" height="2.53423" rx="1.26712" transform="matrix(0.996113 -0.0880836 0.0884344 0.996082 77.8088 79.5371)" fill="#E8EDF8"/>
<rect width="85.036" height="2.53423" rx="1.26712" transform="matrix(0.996113 -0.0880836 0.0884344 0.996082 81.7549 116.169)" fill="#E8EDF8"/>
<rect width="85.036" height="2.53423" rx="1.26712" transform="matrix(0.996108 -0.0881417 0.0883824 0.996087 79.0413 91.7554)" fill="#E8EDF8"/>
<rect width="85.036" height="2.53423" rx="1.26712" transform="matrix(0.996108 -0.0881417 0.0883824 0.996087 82.2466 128.38)" fill="#E8EDF8"/>
</g>
<path d="M221.375 102.032H135.638C133.888 101.947 132.14 102.23 130.505 102.861C128.87 103.492 127.382 104.458 126.138 105.698L120.554 112.483C119.537 113.562 118.3 114.406 116.927 114.958C115.555 115.51 114.08 115.757 112.604 115.681H28.8456C23.029 115.681 19.1512 118.84 20.1594 122.74C28.3414 154.68 32.4518 170.63 40.6338 202.531C41.3693 204.683 42.7551 206.55 44.5975 207.872C46.4399 209.193 48.6468 209.903 50.9098 209.901H196.247C198.51 209.903 200.717 209.193 202.559 207.872C204.402 206.55 205.788 204.683 206.523 202.531L230.487 109.129C231.457 105.229 227.424 102.032 221.375 102.032Z" fill="white"/>
<g opacity="0.6" filter="url(#filter1_d_13287_94693)">
<path opacity="0.1" d="M221.384 103.013H135.643C133.894 102.929 132.146 103.21 130.51 103.837C128.874 104.465 127.387 105.426 126.143 106.658L120.558 113.406C119.541 114.478 118.304 115.318 116.932 115.867C115.56 116.416 114.085 116.661 112.609 116.586H28.846C23.0291 116.586 19.1512 119.727 20.1594 123.605C28.3418 155.365 32.4524 171.225 40.6348 202.947C41.3703 205.087 42.7561 206.944 44.5986 208.258C46.4411 209.572 48.6481 210.277 50.9112 210.276H196.255C198.518 210.277 200.725 209.572 202.568 208.258C204.41 206.944 205.796 205.087 206.531 202.947L230.497 110.071C231.466 106.193 227.433 103.013 221.384 103.013Z" fill="url(#paint1_linear_13287_94693)"/>
</g>
<path d="M150.199 193.819L154.118 189.614L132.775 169.718L128.855 173.922L150.199 193.819Z" fill="url(#paint2_linear_13287_94693)"/>
<path d="M162.09 206.934C162.772 207.569 163.84 207.532 164.476 206.851L168.108 202.959C168.744 202.277 168.707 201.209 168.025 200.573L153.351 186.891C152.669 186.256 151.601 186.293 150.965 186.974L147.334 190.866C146.697 191.548 146.734 192.617 147.417 193.253L162.09 206.934Z" fill="#3B82F6"/>
<path d="M86.8932 151.696C87.2424 148.378 88.2452 145.161 89.8437 142.233C91.4422 139.304 93.6048 136.721 96.2066 134.632C96.562 134.344 96.9221 134.07 97.2871 133.811C100.463 131.521 104.126 129.996 107.989 129.356C111.851 128.716 115.81 128.977 119.555 130.12C123.3 131.263 126.73 133.257 129.577 135.945C132.424 138.633 134.611 141.943 135.967 145.616C138.214 151.738 138.036 158.487 135.47 164.481C133.065 170.067 128.736 174.605 123.268 177.269C117.801 179.933 111.559 180.547 105.678 178.999C99.7965 177.451 94.6657 173.844 91.2185 168.834C87.7713 163.823 86.2365 157.742 86.8932 151.696Z" fill="white"/>
<path d="M86.8971 151.695C88.7411 133.688 108.506 123.395 124.353 132.024C144.276 143.037 141.128 172.36 119.311 178.908C101.959 183.95 84.8514 169.681 86.8971 151.695ZM86.8971 151.695C84.9595 169.602 102.023 183.784 119.267 178.692C140.747 172.209 143.866 143.138 124.309 132.218C108.549 123.575 88.8419 133.788 86.9331 151.666L86.8971 151.695Z" fill="url(#paint3_linear_13287_94693)"/>
<path d="M109.363 184.048C103.525 183.419 98.0043 181.073 93.4994 177.306C88.9945 173.539 85.7078 168.521 84.0547 162.887C82.4017 157.252 82.4566 151.254 84.2125 145.65C85.9684 140.047 89.3465 135.09 93.9195 131.406C98.4926 127.723 104.055 125.478 109.904 124.956C115.753 124.433 121.625 125.657 126.779 128.472C131.932 131.287 136.135 135.568 138.856 140.771C141.577 145.975 142.693 151.869 142.065 157.707C141.214 165.534 137.293 172.703 131.162 177.642C125.031 182.58 117.191 184.884 109.363 184.048ZM109.731 180.67C114.901 181.232 120.121 180.247 124.732 177.841C129.343 175.435 133.136 171.715 135.632 167.153C138.129 162.59 139.216 157.39 138.756 152.21C138.297 147.029 136.311 142.102 133.051 138.05C129.79 133.998 125.401 131.005 120.439 129.448C115.477 127.891 110.165 127.841 105.174 129.303C100.183 130.766 95.7384 133.676 92.4017 137.665C89.0651 141.654 86.9865 146.543 86.4289 151.714C85.6896 158.642 87.7272 165.58 92.0951 171.008C96.4631 176.436 102.805 179.911 109.731 180.67Z" fill="url(#paint4_linear_13287_94693)"/>
<path d="M138.284 145.763C137.252 142.762 135.704 139.964 133.71 137.494C129.46 132.251 123.4 128.79 116.725 127.793C110.049 126.797 103.243 128.337 97.6463 132.11C92.05 135.883 88.07 141.615 86.4908 148.177C84.9116 154.74 85.8476 161.655 89.1145 167.561C92.3814 173.467 97.7421 177.936 104.14 180.085C110.538 182.235 117.509 181.91 123.68 179.174C129.85 176.439 134.772 171.492 137.475 165.307C140.178 159.123 140.467 152.15 138.284 145.763ZM137.816 157.288C137.193 163.142 134.558 168.599 130.361 172.729C126.165 176.858 120.666 179.404 114.802 179.932C108.938 180.461 103.073 178.939 98.2054 175.627C93.338 172.315 89.77 167.417 88.1097 161.769C86.4494 156.12 86.7996 150.071 89.1005 144.651C91.4015 139.232 95.5107 134.779 100.728 132.05C105.945 129.322 111.947 128.487 117.71 129.689C123.474 130.89 128.642 134.054 132.335 138.64C136.542 143.879 138.505 150.57 137.794 157.252L137.816 157.288ZM138.284 145.763C137.252 142.762 135.704 139.964 133.71 137.494C129.46 132.251 123.4 128.79 116.725 127.793C110.049 126.797 103.243 128.337 97.6463 132.11C92.05 135.883 88.07 141.615 86.4908 148.177C84.9116 154.74 85.8476 161.655 89.1145 167.561C92.3814 173.467 97.7421 177.936 104.14 180.085C110.538 182.235 117.509 181.91 123.68 179.174C129.85 176.439 134.772 171.492 137.475 165.307C140.178 159.123 140.467 152.15 138.284 145.763ZM137.816 157.288C137.193 163.142 134.558 168.599 130.361 172.729C126.165 176.858 120.666 179.404 114.802 179.932C108.938 180.461 103.073 178.939 98.2054 175.627C93.338 172.315 89.77 167.417 88.1097 161.769C86.4494 156.12 86.7996 150.071 89.1005 144.651C91.4015 139.232 95.5107 134.779 100.728 132.05C105.945 129.322 111.947 128.487 117.71 129.689C123.474 130.89 128.642 134.054 132.335 138.64C136.542 143.879 138.505 150.57 137.794 157.252L137.816 157.288ZM141.504 144.704C139.736 139.518 136.606 134.903 132.443 131.341C128.279 127.779 123.235 125.401 117.837 124.457C112.44 123.513 106.888 124.037 101.763 125.974C96.6373 127.911 92.1267 131.19 88.703 135.468C85.2793 139.746 83.0683 144.866 82.3014 150.291C81.5345 155.716 82.2399 161.248 84.3438 166.307C86.4477 171.367 89.8728 175.767 94.2605 179.049C98.6483 182.331 103.837 184.373 109.285 184.962C114.395 185.512 119.561 184.766 124.305 182.792C129.05 180.818 133.221 177.679 136.432 173.667C139.643 169.655 141.791 164.897 142.678 159.835C143.564 154.773 143.161 149.569 141.504 144.704ZM141.201 157.67C140.444 164.729 137.107 171.26 131.831 176.01C126.554 180.76 119.71 183.394 112.61 183.408C105.511 183.422 98.6559 180.814 93.3609 176.085C88.0659 171.356 84.7035 164.838 83.9186 157.782C83.1336 150.726 84.9815 143.628 89.1077 137.851C93.234 132.074 99.348 128.023 106.277 126.476C113.206 124.93 120.462 125.996 126.654 129.47C132.845 132.944 137.536 138.582 139.826 145.302C141.165 149.259 141.623 153.46 141.165 157.612L141.201 157.67ZM133.71 137.552C129.448 132.316 123.379 128.866 116.699 127.884C110.019 126.902 103.214 128.459 97.6249 132.247C92.0362 136.036 88.0699 141.781 86.508 148.349C84.9462 154.918 85.9023 161.833 89.1878 167.731C92.4733 173.63 97.8496 178.083 104.257 180.213C110.663 182.342 117.636 181.994 123.799 179.237C129.962 176.479 134.867 171.512 137.549 165.316C140.23 159.12 140.493 152.144 138.284 145.763C137.245 142.761 135.69 139.962 133.689 137.494L133.71 137.552ZM137.816 157.31C137.193 163.164 134.558 168.621 130.361 172.75C126.165 176.88 120.666 179.425 114.802 179.954C108.938 180.483 103.073 178.961 98.2054 175.649C93.338 172.337 89.77 167.439 88.1097 161.79C86.4494 156.142 86.7996 150.092 89.1005 144.673C91.4015 139.254 95.5107 134.8 100.728 132.072C105.945 129.343 111.947 128.509 117.71 129.71C123.474 130.912 128.642 134.075 132.335 138.661C136.536 143.895 138.499 150.577 137.794 157.252L137.816 157.31Z" fill="url(#paint5_linear_13287_94693)"/>
<path d="M95.112 166.691C93.4775 164.515 92.3147 162.023 91.6978 159.372C91.3657 158.029 91.1702 156.656 91.1143 155.274C91.0642 153.874 91.1511 152.472 91.3737 151.089C91.8464 148.303 92.8992 145.648 94.4637 143.295C95.9988 140.978 97.9531 138.967 100.226 137.367C98.4746 139.409 96.9326 141.622 95.6234 143.972C95.0042 145.129 94.4791 146.333 94.0532 147.574C93.6137 148.794 93.2905 150.053 93.088 151.334C92.6673 153.894 92.6454 156.503 93.0231 159.07C93.4121 161.684 94.1134 164.243 95.112 166.691Z" fill="url(#paint6_linear_13287_94693)"/>
<path d="M131.421 148.408C132.399 150.948 132.838 153.663 132.71 156.382C132.659 157.778 132.468 159.165 132.141 160.524C131.804 161.883 131.339 163.207 130.751 164.478C129.532 167.025 127.795 169.289 125.651 171.126C123.525 172.935 121.083 174.334 118.448 175.254C120.691 173.768 122.779 172.059 124.679 170.154C125.59 169.213 126.426 168.201 127.178 167.129C127.933 166.074 128.587 164.95 129.13 163.772C130.234 161.422 130.963 158.914 131.291 156.339C131.654 153.71 131.698 151.047 131.421 148.408Z" fill="url(#paint7_linear_13287_94693)"/>
<path d="M104.375 151.259C104.431 150.289 104.797 149.326 105.471 148.369C106.145 147.411 107.097 146.639 108.327 146.051C109.554 145.466 110.962 145.218 112.552 145.305C114.03 145.386 115.319 145.731 116.419 146.339C117.453 146.884 118.317 147.703 118.916 148.707C119.467 149.643 119.726 150.721 119.661 151.804C119.635 152.596 119.41 153.369 119.008 154.051C118.644 154.656 118.19 155.203 117.661 155.671C117.151 156.118 116.239 156.867 114.924 157.917C114.618 158.163 114.324 158.426 114.045 158.704C113.853 158.893 113.685 159.105 113.544 159.335C113.434 159.519 113.344 159.715 113.273 159.917C113.206 160.114 113.103 160.457 112.963 160.951C112.71 162 112.075 162.496 111.057 162.439C110.81 162.432 110.568 162.375 110.343 162.274C110.119 162.172 109.917 162.026 109.749 161.846C109.407 161.479 109.255 160.955 109.292 160.273C109.323 158.837 109.922 157.473 110.958 156.479C111.555 155.92 112.18 155.392 112.83 154.897C113.513 154.361 114.009 153.958 114.314 153.683C114.619 153.411 114.884 153.098 115.101 152.753C115.32 152.41 115.445 152.016 115.464 151.61C115.492 151.221 115.435 150.831 115.298 150.466C115.161 150.101 114.946 149.77 114.669 149.496C114.092 148.9 113.327 148.575 112.375 148.52C111.254 148.459 110.413 148.696 109.853 149.233C109.293 149.769 108.798 150.579 108.368 151.663C107.959 152.795 107.272 153.336 106.307 153.285C106.037 153.276 105.772 153.21 105.529 153.093C105.286 152.975 105.071 152.808 104.896 152.602C104.725 152.424 104.59 152.214 104.501 151.983C104.411 151.752 104.368 151.506 104.375 151.259ZM110.9 168.412C110.3 168.387 109.732 168.14 109.306 167.717C108.865 167.29 108.664 166.715 108.703 165.991C108.715 165.69 108.789 165.393 108.921 165.122C109.053 164.85 109.24 164.609 109.471 164.413C109.699 164.21 109.967 164.056 110.256 163.959C110.546 163.861 110.852 163.824 111.157 163.848C111.458 163.86 111.753 163.932 112.025 164.06C112.297 164.188 112.54 164.37 112.741 164.594C112.942 164.818 113.095 165.08 113.192 165.365C113.29 165.65 113.329 165.951 113.307 166.251C113.268 166.963 113.008 167.51 112.529 167.891C112.072 168.265 111.489 168.451 110.9 168.412Z" fill="url(#paint8_linear_13287_94693)"/>
<defs>
<filter id="filter0_d_13287_94693" x="58.8677" y="41.9478" width="133.109" height="170.279" filterUnits="userSpaceOnUse" color-interpolation-filters="sRGB">
<feFlood flood-opacity="0" result="BackgroundImageFix"/>
<feColorMatrix in="SourceAlpha" type="matrix" values="0 0 0 0 0 0 0 0 0 0 0 0 0 0 0 0 0 0 127 0" result="hardAlpha"/>
<feOffset dy="4"/>
<feGaussianBlur stdDeviation="5"/>
<feComposite in2="hardAlpha" operator="out"/>
<feColorMatrix type="matrix" values="0 0 0 0 0 0 0 0 0 0 0 0 0 0 0 0 0 0 0.2 0"/>
<feBlend mode="normal" in2="BackgroundImageFix" result="effect1_dropShadow_13287_94693"/>
<feBlend mode="normal" in="SourceGraphic" in2="effect1_dropShadow_13287_94693" result="shape"/>
</filter>
<filter id="filter1_d_13287_94693" x="5" y="91.9985" width="240.641" height="137.277" filterUnits="userSpaceOnUse" color-interpolation-filters="sRGB">
<feFlood flood-opacity="0" result="BackgroundImageFix"/>
<feColorMatrix in="SourceAlpha" type="matrix" values="0 0 0 0 0 0 0 0 0 0 0 0 0 0 0 0 0 0 127 0" result="hardAlpha"/>
<feOffset dy="4"/>
<feGaussianBlur stdDeviation="7.5"/>
<feComposite in2="hardAlpha" operator="out"/>
<feColorMatrix type="matrix" values="0 0 0 0 0 0 0 0 0 0 0 0 0 0 0 0 0 0 0.2 0"/>
<feBlend mode="normal" in2="BackgroundImageFix" result="effect1_dropShadow_13287_94693"/>
<feBlend mode="normal" in="SourceGraphic" in2="effect1_dropShadow_13287_94693" result="shape"/>
</filter>
<linearGradient id="paint0_linear_13287_94693" x1="149.117" y1="55.8535" x2="192.525" y2="66.6638" gradientUnits="userSpaceOnUse">
<stop stop-color="white"/>
<stop offset="1" stop-color="white" stop-opacity="0"/>
</linearGradient>
<linearGradient id="paint1_linear_13287_94693" x1="45.8945" y1="204.306" x2="119.185" y2="75.6033" gradientUnits="userSpaceOnUse">
<stop offset="0.0977" stop-color="#C1C7D0"/>
<stop offset="1" stop-color="#EBECF0" stop-opacity="0.5"/>
</linearGradient>
<linearGradient id="paint2_linear_13287_94693" x1="150.199" y1="193.819" x2="154.877" y2="185.721" gradientUnits="userSpaceOnUse">
<stop stop-color="#BEC7CF"/>
<stop offset="1" stop-color="#8D9293"/>
</linearGradient>
<linearGradient id="paint3_linear_13287_94693" x1="101.414" y1="140.082" x2="140.49" y2="153.492" gradientUnits="userSpaceOnUse">
<stop stop-color="#4088F4"/>
<stop offset="1" stop-color="#7FC0FB"/>
</linearGradient>
<linearGradient id="paint4_linear_13287_94693" x1="99.9833" y1="137.827" x2="145.546" y2="153.496" gradientUnits="userSpaceOnUse">
<stop stop-color="#4088F4"/>
<stop offset="1" stop-color="#7FC0FB"/>
</linearGradient>
<linearGradient id="paint5_linear_13287_94693" x1="99.6358" y1="137.374" x2="146.545" y2="153.505" gradientUnits="userSpaceOnUse">
<stop stop-color="#4088F4"/>
<stop offset="1" stop-color="#7FC0FB"/>
</linearGradient>
<linearGradient id="paint6_linear_13287_94693" x1="92.2224" y1="165.059" x2="104.257" y2="161.709" gradientUnits="userSpaceOnUse">
<stop offset="0.0977" stop-color="#C1C7D0"/>
<stop offset="1" stop-color="#EBECF0" stop-opacity="0.5"/>
</linearGradient>
<linearGradient id="paint7_linear_13287_94693" x1="120.204" y1="173.76" x2="136.753" y2="165.885" gradientUnits="userSpaceOnUse">
<stop offset="0.0977" stop-color="#C1C7D0"/>
<stop offset="1" stop-color="#EBECF0" stop-opacity="0.5"/>
</linearGradient>
<linearGradient id="paint8_linear_13287_94693" x1="104.74" y1="154.817" x2="119.68" y2="147.975" gradientUnits="userSpaceOnUse">
<stop stop-color="#4088F4"/>
<stop offset="1" stop-color="#7FC0FB"/>
</linearGradient>
</defs>
</svg>
