<svg width="156" height="48" viewBox="0 0 156 48" fill="none" xmlns="http://www.w3.org/2000/svg">
<path d="M69.1316 21.382H65.3824C64.6124 21.382 63.9883 20.7463 63.9883 19.9621V19.7148C63.9883 18.9306 64.6124 18.2949 65.3824 18.2949H76.6006C77.3706 18.2949 77.9947 18.9306 77.9947 19.7148V19.9621C77.9947 20.7463 77.3706 21.382 76.6006 21.382H72.8514V33.2458C72.8514 34.03 72.2272 34.6657 71.4573 34.6657H70.5257C69.7558 34.6657 69.1316 34.03 69.1316 33.2458V21.382Z" fill="#F0F6FC"/>
<path d="M94.2617 18.2949C95.0316 18.2949 95.6557 18.9306 95.6557 19.7148V33.2458C95.6557 34.03 95.0316 34.6657 94.2617 34.6657H93.3301C92.5602 34.6657 91.936 34.03 91.936 33.2458V27.9537H84.6343V33.2458C84.6343 34.03 84.0101 34.6657 83.2402 34.6657H82.3086C81.5387 34.6657 80.9146 34.03 80.9146 33.2458V19.7148C80.9146 18.9306 81.5387 18.2949 82.3086 18.2949H83.2402C84.0101 18.2949 84.6343 18.9306 84.6343 19.7148V24.7497H91.936V19.7148C91.936 18.9306 92.5602 18.2949 93.3301 18.2949H94.2617Z" fill="#F0F6FC"/>
<path d="M111.348 34.6657C110.891 34.6657 110.462 34.4371 110.202 34.054L107.518 30.1053H107.334H104.097V33.2458C104.097 34.03 103.473 34.6657 102.703 34.6657H101.771C101.001 34.6657 100.377 34.03 100.377 33.2458V19.7148C100.377 18.9306 101.001 18.2949 101.771 18.2949H107.334C108.758 18.2949 109.99 18.5366 111.031 19.0199C112.087 19.5032 112.899 20.1893 113.465 21.078C114.031 21.9667 114.315 23.0191 114.315 24.2352C114.315 25.4513 114.024 26.5037 113.442 27.3924C112.876 28.2655 112.064 28.9359 111.008 29.4037L113.084 32.4333C113.728 33.3746 113.067 34.6657 111.94 34.6657H111.348ZM110.549 24.2352C110.549 23.3153 110.258 22.6137 109.676 22.1304C109.095 21.6314 108.245 21.382 107.128 21.382H104.097V27.0884H107.128C108.245 27.0884 109.095 26.8389 109.676 26.34C110.258 25.8411 110.549 25.1395 110.549 24.2352Z" fill="#F0F6FC"/>
<path d="M134.197 34.6657C133.429 34.6657 132.805 34.0321 132.803 33.2492L132.784 24.8432L128.459 32.2416C128.208 32.6716 127.752 32.9351 127.261 32.9351H127.161C126.674 32.9351 126.223 32.6766 125.97 32.2531L121.67 25.0537V33.2458C121.67 34.03 121.046 34.6657 120.276 34.6657H119.574C118.804 34.6657 118.18 34.03 118.18 33.2458V19.7148C118.18 18.9306 118.804 18.2949 119.574 18.2949H120.469C120.958 18.2949 121.411 18.5557 121.663 18.9822L127.273 28.4682L132.792 18.9905C133.043 18.5593 133.499 18.2949 133.991 18.2949H134.861C135.629 18.2949 136.252 18.9282 136.255 19.7108L136.293 33.2418C136.295 34.0275 135.67 34.6657 134.899 34.6657H134.197Z" fill="#F0F6FC"/>
<path d="M20.957 10.8377C20.957 8.82848 22.5858 7.19971 24.595 7.19971H51.8796C53.8888 7.19971 55.5176 8.82847 55.5176 10.8377V38.1223C55.5176 40.1315 53.8888 41.7603 51.8796 41.7603H24.595C22.5858 41.7603 20.957 40.1315 20.957 38.1223V10.8377Z" fill="url(#paint0_linear_13020_35268)"/>
<path d="M42.0378 18.3306C42.0378 16.2023 40.3399 14.4771 38.2455 14.4771C36.151 14.4771 34.4531 16.2023 34.4531 18.3306C34.4531 20.4588 36.151 22.184 38.2455 22.184C40.3399 22.184 42.0378 20.4588 42.0378 18.3306Z" fill="white"/>
<path d="M49.2143 33.6251C48.71 31.0704 47.3575 28.7694 45.3833 27.1068C43.409 25.4443 40.9328 24.5212 38.3688 24.4919C35.8049 24.4627 33.3088 25.329 31.2983 26.9461C29.2878 28.5632 27.8849 30.8328 27.3242 33.3753L32.454 34.5432C32.7513 33.1953 33.4952 31.992 34.5611 31.1346C35.627 30.2773 36.9504 29.8179 38.3098 29.8334C39.6692 29.8489 40.982 30.3384 42.0288 31.2199C43.0755 32.1013 43.7926 33.3213 44.06 34.6757L49.2143 33.6251Z" fill="white"/>
<defs>
<linearGradient id="paint0_linear_13020_35268" x1="38.2373" y1="7.19971" x2="38.2373" y2="41.7603" gradientUnits="userSpaceOnUse">
<stop stop-color="#7FC0FB"/>
<stop offset="0.9999" stop-color="#4188FF"/>
<stop offset="1" stop-color="#4188FF"/>
</linearGradient>
</defs>
</svg>
