<svg width="156" height="48" viewBox="0 0 156 48" fill="none" xmlns="http://www.w3.org/2000/svg">
<path d="M69.1299 21.3823H65.3807C64.6107 21.3823 63.9866 20.7466 63.9866 19.9624V19.7151C63.9866 18.9309 64.6107 18.2952 65.3807 18.2952H76.5989C77.3688 18.2952 77.993 18.9309 77.993 19.7151V19.9624C77.993 20.7466 77.3688 21.3823 76.5989 21.3823H72.8497V33.2461C72.8497 34.0303 72.2255 34.666 71.4556 34.666H70.524C69.7541 34.666 69.1299 34.0303 69.1299 33.2461V21.3823Z" fill="#2C333A"/>
<path d="M94.26 18.2952C95.0299 18.2952 95.654 18.9309 95.654 19.7151V33.2461C95.654 34.0303 95.0299 34.666 94.26 34.666H93.3284C92.5585 34.666 91.9343 34.0303 91.9343 33.2461V27.954H84.6326V33.2461C84.6326 34.0303 84.0084 34.666 83.2385 34.666H82.3069C81.537 34.666 80.9129 34.0303 80.9129 33.2461V19.7151C80.9129 18.9309 81.537 18.2952 82.3069 18.2952H83.2385C84.0084 18.2952 84.6326 18.9309 84.6326 19.7151V24.75H91.9343V19.7151C91.9343 18.9309 92.5585 18.2952 93.3284 18.2952H94.26Z" fill="#2C333A"/>
<path d="M111.346 34.666C110.889 34.666 110.461 34.4374 110.2 34.0543L107.516 30.1056H107.333H104.095V33.2461C104.095 34.0303 103.471 34.666 102.701 34.666H101.769C100.999 34.666 100.375 34.0303 100.375 33.2461V19.7151C100.375 18.9309 100.999 18.2952 101.769 18.2952H107.333C108.756 18.2952 109.988 18.5369 111.029 19.0202C112.086 19.5035 112.897 20.1896 113.463 21.0783C114.03 21.967 114.313 23.0194 114.313 24.2355C114.313 25.4516 114.022 26.504 113.44 27.3927C112.874 28.2658 112.063 28.9362 111.006 29.404L113.082 32.4336C113.727 33.3749 113.066 34.666 111.939 34.666H111.346ZM110.547 24.2355C110.547 23.3156 110.256 22.614 109.675 22.1307C109.093 21.6318 108.243 21.3823 107.126 21.3823H104.095V27.0887H107.126C108.243 27.0887 109.093 26.8392 109.675 26.3403C110.256 25.8414 110.547 25.1398 110.547 24.2355Z" fill="#2C333A"/>
<path d="M134.196 34.666C133.427 34.666 132.803 34.0324 132.801 33.2495L132.782 24.8435L128.457 32.2419C128.206 32.6719 127.751 32.9354 127.259 32.9354H127.159C126.673 32.9354 126.221 32.6769 125.968 32.2534L121.669 25.054V33.2461C121.669 34.0303 121.044 34.666 120.274 34.666H119.572C118.803 34.666 118.178 34.0303 118.178 33.2461V19.7151C118.178 18.9309 118.803 18.2952 119.572 18.2952H120.467C120.956 18.2952 121.409 18.556 121.662 18.9825L127.271 28.4685L132.79 18.9908C133.041 18.5596 133.497 18.2952 133.989 18.2952H134.859C135.627 18.2952 136.251 18.9285 136.253 19.7111L136.291 33.2421C136.293 34.0278 135.668 34.666 134.897 34.666H134.196Z" fill="#2C333A"/>
<path d="M20.9552 10.8378C20.9552 8.82866 22.584 7.19989 24.5932 7.19989H51.8778C53.887 7.19989 55.5158 8.82866 55.5158 10.8378V38.1225C55.5158 40.1317 53.887 41.7605 51.8778 41.7605H24.5932C22.584 41.7605 20.9552 40.1317 20.9552 38.1225V10.8378Z" fill="url(#paint0_linear_13128_42490)"/>
<path d="M42.0369 18.3309C42.0369 16.2027 40.3391 14.4774 38.2446 14.4774C36.1502 14.4774 34.4523 16.2027 34.4523 18.3309C34.4523 20.4591 36.1502 22.1844 38.2446 22.1844C40.3391 22.1844 42.0369 20.4591 42.0369 18.3309Z" fill="white"/>
<path d="M49.2141 33.6256C48.7098 31.071 47.3573 28.77 45.383 27.1074C43.4088 25.4449 40.9325 24.5217 38.3686 24.4925C35.8046 24.4633 33.3086 25.3296 31.2981 26.9467C29.2876 28.5638 27.8846 30.8334 27.324 33.3758L32.4538 34.5438C32.7511 33.1959 33.4949 31.9925 34.5609 31.1352C35.6268 30.2778 36.9501 29.8185 38.3095 29.834C39.6689 29.8495 40.9818 30.3389 42.0285 31.2204C43.0753 32.1019 43.7923 33.3218 44.0598 34.6762L49.2141 33.6256Z" fill="white"/>
<defs>
<linearGradient id="paint0_linear_13128_42490" x1="30.9246" y1="14.76" x2="57.4426" y2="23.8793" gradientUnits="userSpaceOnUse">
<stop stop-color="#4088F4"/>
<stop offset="1" stop-color="#7FC0FB"/>
</linearGradient>
</defs>
</svg>
