<svg width="48" height="48" viewBox="0 0 48 48" fill="none" xmlns="http://www.w3.org/2000/svg">
<path d="M5 9C5 6.79086 6.79086 5 9 5H39C41.2091 5 43 6.79086 43 9V39C43 41.2091 41.2091 43 39 43H9C6.79086 43 5 41.2091 5 39V9Z" fill="url(#paint0_linear_13020_35288)"/>
<path d="M28.1754 17.237C28.1754 14.897 26.3086 13 24.0057 13C21.7028 13 19.8359 14.897 19.8359 17.237C19.8359 19.577 21.7028 21.474 24.0057 21.474C26.3086 21.474 28.1754 19.577 28.1754 17.237Z" fill="white"/>
<path d="M36.0686 34.0546C35.5141 31.2457 34.027 28.7157 31.8563 26.8876C29.6855 25.0597 26.9629 24.0446 24.1437 24.0125C21.3247 23.9804 18.5802 24.9329 16.3696 26.711C14.159 28.489 12.6164 30.9845 12 33.7799L17.6403 35.0641C17.9672 33.582 18.7851 32.259 19.9571 31.3163C21.1291 30.3736 22.5842 29.8685 24.0788 29.8856C25.5735 29.9026 27.017 30.4408 28.1679 31.41C29.3189 32.3792 30.1073 33.7206 30.4013 35.2097L36.0686 34.0546Z" fill="white"/>
<defs>
<linearGradient id="paint0_linear_13020_35288" x1="24" y1="5" x2="24" y2="43" gradientUnits="userSpaceOnUse">
<stop stop-color="#7FC0FB"/>
<stop offset="0.9999" stop-color="#4188FF"/>
<stop offset="1" stop-color="#4188FF"/>
</linearGradient>
</defs>
</svg>
