<svg width="73" height="72" viewBox="0 0 73 72" fill="none" xmlns="http://www.w3.org/2000/svg">
<rect x="0.75" width="72" height="72" rx="36" fill="#F8F9FB"/>
<g clip-path="url(#clip0_13516_78860)">
<path d="M28.9166 16.0104C29.3436 16.3645 29.5207 17.0937 29.2915 17.625C29.1561 17.9375 28.9061 18.0833 28.5728 18.0312C28.2395 17.9791 28.0311 17.7604 27.9999 17.427C27.9582 16.9166 27.9061 16.3958 28.3645 16.0104C28.552 16.0104 28.7291 16.0104 28.9166 16.0104Z" fill="#33A9CC"/>
<path d="M45.2082 16.0104C45.677 16.3958 45.6249 16.9166 45.5832 17.427C45.552 17.7812 45.2603 18.0312 44.9374 18.0312C44.5937 18.0416 44.302 17.8229 44.2603 17.4687C44.1978 16.9375 44.1041 16.375 44.677 16.0104C44.8437 16.0104 45.0207 16.0104 45.2082 16.0104Z" fill="#F0C521"/>
<path d="M52.3647 51.8438C53.4272 51.8438 54.4897 51.8542 55.5626 51.8542C56.3022 51.8542 56.5938 52.3229 56.2605 52.9896C55.9168 53.6875 55.5626 54.3854 55.2188 55.0833C54.9376 55.6563 54.4793 55.9167 53.8438 55.9167C42.4793 55.9167 31.1147 55.9167 19.7501 55.9167C19.1147 55.9167 18.6564 55.6563 18.3751 55.0833C18.0209 54.375 17.6668 53.6667 17.3126 52.9583C17.0105 52.3333 17.3022 51.8646 17.9897 51.8646C19.0626 51.8542 20.1459 51.8542 21.2189 51.8542C21.3439 51.8542 21.4793 51.8646 21.6043 51.8646C31.7293 51.8646 41.8438 51.8646 51.9688 51.8646C52.1043 51.8646 52.2293 51.8542 52.3647 51.8438Z" fill="#7D6598"/>
<path d="M52.3647 51.8437C52.2397 51.8437 52.1042 51.8541 51.9792 51.8541C41.8542 51.8541 31.7397 51.8541 21.6147 51.8541C21.4897 51.8541 21.3542 51.8437 21.2292 51.8437C21.2292 50.4895 21.2397 49.1458 21.2397 47.7916C21.3855 47.7916 21.5209 47.802 21.6667 47.802C31.7501 47.802 41.8438 47.802 51.9272 47.802C52.073 47.802 52.2084 47.7916 52.3542 47.7916C52.3542 49.1458 52.3542 50.5 52.3647 51.8437Z" fill="#F2D45B"/>
<path d="M47.6355 39.6771C48.2292 39.6771 48.8334 39.7083 49.4272 39.6771C51.1147 39.5833 52.4376 40.8854 52.3647 42.6458C52.3647 42.7187 52.3647 42.8021 52.3647 42.875C51.9584 43.1771 51.5522 43.4896 51.1459 43.7708C50.573 44.1667 50.0105 44.1562 49.448 43.7396C49.1355 43.5104 48.823 43.2708 48.5105 43.0417C47.9272 42.6042 47.3438 42.5937 46.7501 43.0104C46.4272 43.2396 46.1251 43.4792 45.8126 43.7083C45.1876 44.1667 44.6563 44.1771 44.0209 43.7187C43.7084 43.4896 43.3959 43.25 43.0834 43.0208C42.4897 42.5937 41.8751 42.5937 41.2813 43.0312C40.9584 43.2708 40.6459 43.5208 40.3126 43.75C39.7188 44.1667 39.1772 44.1458 38.5938 43.7187C38.2917 43.4896 37.9897 43.2708 37.6876 43.0417C37.073 42.5833 36.4896 42.5833 35.8646 43.0417C35.5521 43.2708 35.2396 43.5104 34.9271 43.7396C34.3751 44.1354 33.823 44.1562 33.2605 43.7708C32.9271 43.5417 32.6146 43.2917 32.2917 43.0521C31.6563 42.5729 31.0313 42.5833 30.3959 43.0729C30.0834 43.3125 29.7813 43.5521 29.4584 43.7708C28.9063 44.1562 28.3855 44.1458 27.8334 43.7708C27.4792 43.5312 27.1459 43.2604 26.8021 43.0104C26.2188 42.6042 25.6563 42.6042 25.073 43.0208C24.7605 43.25 24.448 43.4896 24.1355 43.7187C23.5209 44.1667 22.9584 44.1667 22.3438 43.7187C21.9584 43.4375 21.573 43.1458 21.1876 42.8646C21.1355 41.9375 21.3334 41.0833 22.0313 40.4167C22.5105 39.9583 23.073 39.6875 23.7292 39.6771C24.4584 39.6667 25.1771 39.6667 25.9063 39.6562C26.0521 39.6667 26.1876 39.6771 26.3334 39.6771C33.2813 39.6771 40.2292 39.6771 47.1772 39.6771C47.3542 39.6979 47.5001 39.6771 47.6355 39.6771Z" fill="#FE5364"/>
<path d="M21.2083 42.875C21.5937 43.1563 21.9791 43.4375 22.3645 43.7292C22.9687 44.1771 23.5416 44.1771 24.1562 43.7292C24.4687 43.5 24.7708 43.2605 25.0937 43.0313C25.677 42.6146 26.2395 42.6146 26.8228 43.0209C27.177 43.2709 27.5103 43.5417 27.8541 43.7813C28.4062 44.1667 28.927 44.1667 29.4791 43.7813C29.802 43.5625 30.1041 43.323 30.4166 43.0834C31.052 42.5938 31.6666 42.5938 32.3124 43.0625C32.6353 43.3021 32.9478 43.5521 33.2812 43.7813C33.8437 44.1667 34.3958 44.1459 34.9478 43.75C35.2603 43.5209 35.5728 43.2813 35.8853 43.0521C36.4999 42.5938 37.0833 42.5938 37.7083 43.0521C38.0103 43.2709 38.3124 43.5 38.6145 43.7292C39.1978 44.1667 39.7395 44.1771 40.3333 43.7605C40.6666 43.5313 40.9791 43.2813 41.302 43.0417C41.8853 42.6042 42.5103 42.6042 43.1041 43.0313C43.4166 43.2605 43.7187 43.5 44.0416 43.7292C44.677 44.1771 45.1978 44.1771 45.8333 43.7188C46.1458 43.4896 46.4478 43.2396 46.7708 43.0209C47.3645 42.6042 47.9478 42.6146 48.5312 43.0521C48.8437 43.2813 49.1562 43.5209 49.4687 43.75C50.0312 44.1667 50.5833 44.1771 51.1666 43.7813C51.5833 43.4896 51.9791 43.1875 52.3853 42.8855C52.3853 44.323 52.3854 45.7605 52.3958 47.198C52.2708 46.4688 52.2708 46.4688 51.4999 46.4688C41.7083 46.4688 31.9166 46.4688 22.1249 46.4688C21.3541 46.4688 21.3541 46.4688 21.2291 47.198C21.2083 45.75 21.2083 44.3125 21.2083 42.875Z" fill="#F8E7AD"/>
<path d="M25.9688 31.5729C25.9584 30.1146 27.1042 28.8958 28.5626 28.8646C29.2709 28.8437 29.9897 28.8542 30.7084 28.8438C30.8751 28.8542 31.0417 28.8646 31.2084 28.8646C34.9272 28.8646 38.6563 28.8646 42.3751 28.8646C42.5417 28.8646 42.7084 28.8542 42.8751 28.8438C43.5938 28.8542 44.3022 28.8437 45.0209 28.8646C46.4792 28.9062 47.6251 30.1146 47.6147 31.5729C47.0209 32.0104 46.4272 32.4479 45.8334 32.8854C45.2084 33.3438 44.6355 33.3542 44.0105 32.9063C43.6876 32.6667 43.3751 32.4167 43.0417 32.1875C42.4897 31.8021 41.9272 31.7917 41.3751 32.1771C41.0209 32.4167 40.6876 32.6875 40.3438 32.9375C39.7605 33.3438 39.2292 33.3542 38.6563 32.9479C38.323 32.7188 38.0105 32.4688 37.6876 32.2292C37.0834 31.7813 36.5001 31.7813 35.8959 32.2292C35.573 32.4688 35.2605 32.7188 34.9272 32.9479C34.3438 33.3542 33.8126 33.3438 33.2397 32.9375C32.8751 32.6875 32.5417 32.4063 32.1772 32.1563C31.6459 31.7917 31.0626 31.8125 30.5522 32.1875C30.2188 32.4271 29.8855 32.6875 29.5522 32.9271C28.9272 33.3646 28.3751 33.3438 27.7605 32.8854C27.1563 32.4479 26.5626 32.0104 25.9688 31.5729Z" fill="#FE5364"/>
<path d="M47.6354 39.6771C47.4896 39.6875 47.3542 39.698 47.2083 39.698C40.2604 39.698 33.3125 39.698 26.3646 39.698C26.2188 39.698 26.0833 39.6875 25.9375 39.6771C25.9479 38.5417 25.9583 37.4063 25.9688 36.2709C26.1458 36.2709 26.3333 36.2813 26.5104 36.2813C32.9583 36.2813 39.4062 36.2813 45.8542 36.2813C46.4375 36.2813 47.0208 36.2709 47.6042 36.2709C47.625 37.4063 47.625 38.5417 47.6354 39.6771Z" fill="#F2D25B"/>
<path d="M25.9688 31.5729C26.5626 32.0104 27.1563 32.4479 27.7501 32.8854C28.3647 33.3437 28.9167 33.3645 29.5417 32.927C29.8855 32.6875 30.2084 32.4375 30.5417 32.1875C31.0626 31.8125 31.6459 31.7916 32.1667 32.1562C32.5313 32.4062 32.8751 32.6875 33.2292 32.9375C33.8126 33.3437 34.3438 33.3541 34.9167 32.9479C35.2501 32.7187 35.5626 32.4687 35.8855 32.2291C36.4897 31.7812 37.073 31.7812 37.6772 32.2291C38.0001 32.4687 38.3126 32.7187 38.6459 32.9479C39.2292 33.3541 39.7605 33.3541 40.3334 32.9375C40.6876 32.6875 41.0209 32.4166 41.3647 32.177C41.9167 31.7916 42.4688 31.802 43.0313 32.1875C43.3647 32.4166 43.6772 32.6666 44.0001 32.9062C44.6251 33.3645 45.198 33.3541 45.823 32.8854C46.4167 32.4479 47.0105 32.0104 47.6042 31.5729C47.6042 32.6979 47.6042 33.8229 47.6042 34.9583C47.4897 34.9583 47.3751 34.9479 47.2501 34.9479C40.2709 34.9479 33.2813 34.9479 26.3022 34.9479C26.1876 34.9479 26.073 34.9583 25.948 34.9583C25.9688 33.8333 25.9688 32.7083 25.9688 31.5729Z" fill="#F8E8AF"/>
<path d="M21.2083 47.1875C21.3333 46.4584 21.3333 46.4584 22.1041 46.4584C31.8958 46.4584 41.6874 46.4584 51.4791 46.4584C52.2499 46.4584 52.2499 46.4584 52.3749 47.1875C52.3645 47.3855 52.3541 47.5938 52.3541 47.7917C52.2083 47.7917 52.0728 47.8021 51.927 47.8021C41.8437 47.8021 31.7499 47.8021 21.6666 47.8021C21.5208 47.8021 21.3853 47.7917 21.2395 47.7917C21.2187 47.5938 21.2187 47.3959 21.2083 47.1875Z" fill="#E54D3C"/>
<path d="M42.8749 28.8438C42.7083 28.8542 42.5416 28.8646 42.3749 28.8646C38.6562 28.8646 34.927 28.8646 31.2083 28.8646C31.0416 28.8646 30.8749 28.8542 30.7083 28.8438C30.7083 28.4167 30.7187 27.9896 30.7187 27.5625C30.7187 26.7396 31.302 26.1459 32.1353 26.1459C33.0208 26.1354 33.8958 26.1459 34.7812 26.1459C36.1353 26.1459 37.4791 26.1459 38.8333 26.1459C39.6978 26.1459 40.5728 26.1459 41.4374 26.1459C42.3124 26.1459 42.8853 26.7292 42.8853 27.6042C42.8749 28.0209 42.8749 28.4271 42.8749 28.8438Z" fill="#F8E8B0"/>
<path d="M25.9583 34.9583C26.0728 34.9583 26.1874 34.9479 26.3124 34.9479C33.2916 34.9479 40.2812 34.9479 47.2603 34.9479C47.3749 34.9479 47.4895 34.9583 47.6145 34.9583C47.6145 35.3958 47.6145 35.8333 47.6145 36.2708C47.0312 36.2708 46.4478 36.2812 45.8645 36.2812C39.4166 36.2812 32.9687 36.2812 26.5208 36.2812C26.3437 36.2812 26.1562 36.2708 25.9791 36.2708C25.9687 35.8333 25.9687 35.3958 25.9583 34.9583Z" fill="#E54C3C"/>
<path d="M38.8126 26.1354C37.4584 26.1354 36.1147 26.1354 34.7605 26.1354C34.7605 24.8646 34.7605 23.6042 34.7605 22.3333C34.7605 21.25 35.2397 20.7604 36.3022 20.7396C36.3542 20.7396 36.4063 20.7396 36.4584 20.7292C36.6563 20.7708 36.8438 20.75 37.0417 20.6875C37.1876 20.7812 37.3438 20.7292 37.5001 20.7396C38.2605 20.7708 38.8126 21.3229 38.823 22.0833C38.823 23.4479 38.8126 24.7917 38.8126 26.1354Z" fill="#FE5364"/>
<path d="M37.0418 20.6979C36.8543 20.7604 36.6563 20.7812 36.4584 20.7396C35.4167 20.2187 35.198 19.5833 35.7084 18.5208C35.9793 17.9583 36.3022 17.4271 36.6459 16.9062C36.7084 16.8021 36.7709 16.6458 36.9063 16.8542C37.3543 17.5521 37.823 18.25 38.073 19.0417C38.3126 19.8021 37.823 20.5625 37.0418 20.6979Z" fill="#EFC41B"/>
<path d="M27.9895 20.3854C27.9895 19.7187 28.2187 19.3749 28.677 19.3854C29.1249 19.3958 29.3541 19.7291 29.3541 20.3749C29.3541 20.5312 29.3541 20.6874 29.3332 20.8437C29.2707 21.1979 28.9999 21.427 28.6562 21.4166C28.302 21.4062 28.0312 21.1562 27.9895 20.7812C27.9791 20.6458 27.9895 20.5208 27.9895 20.3854Z" fill="#33A9CC"/>
<path d="M45.5938 20.4271C45.5938 20.5208 45.5938 20.6042 45.5938 20.6979C45.573 21.125 45.3126 21.4062 44.9272 21.4167C44.5417 21.4271 44.2605 21.1562 44.2292 20.7292C44.2084 20.5104 44.2084 20.2917 44.2292 20.0729C44.2605 19.6562 44.5626 19.375 44.9376 19.3854C45.3126 19.4062 45.573 19.6979 45.5938 20.1146C45.5938 20.2187 45.5938 20.3229 45.5938 20.4271Z" fill="#F0C521"/>
<path d="M27.0001 18.0312C27.698 18.0312 28.0001 18.25 27.9897 18.7188C27.9792 19.1771 27.6772 19.3854 27.0105 19.3854C26.8647 19.3854 26.7292 19.3854 26.5834 19.3646C26.2084 19.3125 25.9584 19.0312 25.9688 18.6875C25.9792 18.3333 26.2709 18.0521 26.6563 18.0312C26.7605 18.0312 26.8855 18.0312 27.0001 18.0312Z" fill="#33A9CC"/>
<path d="M52.0416 24.1146C52.1978 24.125 52.3957 24.0834 52.5832 24.1667C52.8749 24.2917 53.0312 24.5104 53.0103 24.8334C52.9895 25.1563 52.8124 25.3646 52.5103 25.4479C52.2291 25.5209 51.9374 25.5 51.6562 25.4792C51.2603 25.4479 50.9895 25.1667 50.9895 24.8021C50.9895 24.4375 51.2812 24.1459 51.6978 24.125C51.802 24.1146 51.9062 24.1146 52.0416 24.1146Z" fill="#FE5667"/>
<path d="M46.5938 19.4063C46.4376 19.3959 46.2813 19.3959 46.1355 19.3646C45.7813 19.2917 45.6042 19.0625 45.6042 18.7084C45.6042 18.3438 45.8022 18.1146 46.1459 18.0521C46.4376 18.0105 46.7397 18.0105 47.0313 18.0521C47.3751 18.0938 47.5834 18.3334 47.6147 18.6771C47.6459 19.0105 47.4063 19.3021 47.0626 19.3646C46.9063 19.3959 46.7501 19.3959 46.5938 19.4063Z" fill="#EFC41D"/>
<path d="M21.5728 24.1146C21.6353 24.1146 21.6978 24.1146 21.7708 24.1146C22.2708 24.125 22.5937 24.3959 22.5937 24.7917C22.5937 25.1875 22.2916 25.4584 21.8124 25.4792C21.6041 25.4896 21.3958 25.4896 21.1874 25.4688C20.7812 25.4167 20.552 25.1355 20.5728 24.7605C20.5937 24.4063 20.8437 24.1563 21.2291 24.125C21.3333 24.1146 21.4583 24.125 21.5728 24.1146Z" fill="#965EA6"/>
<path d="M24.9792 24.1145C25.0729 24.1145 25.1562 24.1145 25.25 24.1145C25.6771 24.1354 25.9583 24.4062 25.9583 24.7812C25.9583 25.1562 25.7187 25.4375 25.3125 25.4687C25.0729 25.4895 24.8229 25.4895 24.5729 25.4583C24.1667 25.4166 23.9167 25.125 23.9271 24.7604C23.9479 24.4062 24.2292 24.1354 24.6146 24.1041C24.7396 24.1145 24.8646 24.1145 24.9792 24.1145Z" fill="#965EA6"/>
<path d="M48.6146 24.1146C48.7083 24.1146 48.7916 24.1146 48.8854 24.1146C49.3229 24.125 49.6354 24.4063 49.6354 24.7917C49.6458 25.1667 49.3646 25.448 48.9375 25.4792C48.7187 25.5 48.5 25.5 48.2812 25.4792C47.8542 25.448 47.6042 25.1563 47.6146 24.7709C47.625 24.4063 47.8958 24.1459 48.3021 24.125C48.4062 24.1146 48.5104 24.1146 48.6146 24.1146Z" fill="#FE5667"/>
<path d="M30.3645 19.4063C30.2082 19.3959 30.052 19.3959 29.9062 19.3646C29.552 19.3021 29.3749 19.0625 29.3541 18.7188C29.3437 18.3855 29.5937 18.0834 29.927 18.0521C30.2082 18.0209 30.4999 18.0209 30.7812 18.0521C31.1145 18.0834 31.3749 18.3855 31.3749 18.7084C31.3853 19.0313 31.1249 19.3125 30.7812 19.375C30.6562 19.3959 30.5103 19.3959 30.3645 19.4063Z" fill="#33A9CC"/>
<path d="M43.2188 18.0312C43.2708 18.0312 43.3229 18.0312 43.375 18.0312C43.9167 18.0312 44.2292 18.2813 44.2292 18.7083C44.2292 19.1146 43.9271 19.375 43.4063 19.3958C43.2083 19.4063 43.0208 19.3958 42.8229 19.375C42.4479 19.3333 42.1875 19.0417 42.1875 18.7083C42.1875 18.3438 42.4688 18.0625 42.8542 18.0312C42.9792 18.0312 43.0938 18.0312 43.2188 18.0312Z" fill="#EFC41D"/>
<path d="M23.9271 23.1146C23.9271 23.2604 23.9375 23.3958 23.9271 23.5417C23.8854 23.8854 23.6042 24.125 23.2604 24.1146C22.9167 24.1146 22.6354 23.875 22.6042 23.5313C22.5833 23.2708 22.5833 23.0104 22.5938 22.7604C22.6146 22.375 22.8958 22.0938 23.2604 22.0938C23.625 22.0938 23.9063 22.375 23.9271 22.7604C23.9375 22.875 23.9271 23 23.9271 23.1146Z" fill="#965EA6"/>
<path d="M50.9792 23.1146C50.9792 23.2396 50.9896 23.375 50.9792 23.5C50.948 23.875 50.6667 24.1146 50.3126 24.1146C49.948 24.1146 49.6771 23.8646 49.6563 23.4896C49.6355 23.25 49.6459 23 49.6563 22.75C49.6771 22.3646 49.9688 22.0834 50.3334 22.0938C50.698 22.0938 50.9688 22.375 50.9896 22.7709C50.9896 22.8855 50.9896 23 50.9792 23.1146Z" fill="#FE5667"/>
<path d="M50.9792 26.4895C50.9792 26.6354 50.9896 26.7708 50.9792 26.9166C50.9479 27.25 50.6563 27.5104 50.3229 27.5104C50 27.5104 49.6875 27.2604 49.6563 26.927C49.6354 26.6562 49.6354 26.3854 49.6563 26.1145C49.6771 25.75 49.9688 25.4791 50.3125 25.4791C50.6771 25.4791 50.9583 25.75 50.9896 26.1458C50.9896 26.25 50.9896 26.3645 50.9792 26.4895Z" fill="#FE5667"/>
<path d="M23.9271 26.5C23.9271 26.6458 23.9375 26.7812 23.9271 26.9271C23.8854 27.2604 23.5833 27.5208 23.2604 27.5104C22.9375 27.5104 22.6354 27.25 22.6042 26.9062C22.5833 26.6458 22.5833 26.3854 22.5938 26.1354C22.6146 25.75 22.9063 25.4687 23.2604 25.4792C23.6354 25.4896 23.8958 25.7604 23.9271 26.1458C23.9375 26.2604 23.9271 26.3854 23.9271 26.5Z" fill="#965EA6"/>
</g>
<defs>
<clipPath id="clip0_13516_78860">
<rect width="40" height="40" fill="white" transform="translate(16.75 16)"/>
</clipPath>
</defs>
</svg>
