<svg width="72" height="48" viewBox="0 0 72 48" fill="none" xmlns="http://www.w3.org/2000/svg">
<path d="M39.1933 38.9816H20.1971C19.5406 38.9816 19.0071 38.451 19.0071 37.798V10.1835C19.0071 9.53054 19.5406 9 20.1971 9H39.1933C39.8499 9 40.3833 9.53054 40.3833 10.1835V37.798C40.3833 38.451 39.8499 38.9816 39.1933 38.9816Z" fill="#86A7FF"/>
<path d="M33.4608 10.3204H25.9275V11.5784H33.4608V10.3204Z" fill="#D3DFFF"/>
<path d="M38.252 13.4963H21.1409V17.2701H38.252V13.4963Z" fill="#DADADA"/>
<path d="M37.5037 14.0125H21.8892V16.754H37.5037V14.0125Z" fill="white"/>
<path d="M33.7891 20.5447H32.6257C32.2757 20.5447 31.9933 20.2638 31.9933 19.9157V19.6492C31.9933 19.3011 32.2757 19.0203 32.6257 19.0203H33.7891C34.1391 19.0203 34.4215 19.3011 34.4215 19.6492V19.9157C34.4191 20.2638 34.1367 20.5447 33.7891 20.5447Z" fill="#1F3C88"/>
<path d="M37.62 20.5447H36.4566C36.1066 20.5447 35.8242 20.2638 35.8242 19.9157V19.6492C35.8242 19.3011 36.1066 19.0203 36.4566 19.0203H37.62C37.97 19.0203 38.2524 19.3011 38.2524 19.6492V19.9157C38.25 20.2638 37.9676 20.5447 37.62 20.5447Z" fill="#1F3C88"/>
<path d="M37.9507 24.3761H35.6166C35.4501 24.3761 35.3149 24.2416 35.3149 24.076V22.6836C35.3149 22.518 35.4501 22.3835 35.6166 22.3835H37.9507C38.1172 22.3835 38.2524 22.518 38.2524 22.6836V24.076C38.25 24.2416 38.1148 24.3761 37.9507 24.3761Z" fill="#1F3C88"/>
<path d="M33.2631 24.3761H30.929C30.7625 24.3761 30.6273 24.2416 30.6273 24.076V22.6836C30.6273 22.518 30.7625 22.3835 30.929 22.3835H33.2631C33.4297 22.3835 33.5649 22.518 33.5649 22.6836V24.076C33.5649 24.2416 33.4297 24.3761 33.2631 24.3761Z" fill="#1F3C88"/>
<path d="M28.5779 24.3761H26.2438C26.0772 24.3761 25.9421 24.2416 25.9421 24.076V22.6836C25.9421 22.518 26.0772 22.3835 26.2438 22.3835H28.5779C28.7444 22.3835 28.8796 22.518 28.8796 22.6836V24.076C28.8796 24.2416 28.7444 24.3761 28.5779 24.3761Z" fill="#1F3C88"/>
<path d="M23.893 24.3761H21.5589C21.3923 24.3761 21.2571 24.2416 21.2571 24.076V22.6836C21.2571 22.518 21.3923 22.3835 21.5589 22.3835H23.893C24.0595 22.3835 24.1947 22.518 24.1947 22.6836V24.076C24.1947 24.2416 24.0595 24.3761 23.893 24.3761Z" fill="#1F3C88"/>
<path d="M37.9507 27.9747H35.6166C35.4501 27.9747 35.3149 27.8403 35.3149 27.6746V26.2823C35.3149 26.1166 35.4501 25.9822 35.6166 25.9822H37.9507C38.1172 25.9822 38.2524 26.1166 38.2524 26.2823V27.6746C38.25 27.8403 38.1148 27.9747 37.9507 27.9747Z" fill="#1F3C88"/>
<path d="M33.2631 27.9747H30.929C30.7625 27.9747 30.6273 27.8403 30.6273 27.6746V26.2823C30.6273 26.1166 30.7625 25.9822 30.929 25.9822H33.2631C33.4297 25.9822 33.5649 26.1166 33.5649 26.2823V27.6746C33.5649 27.8403 33.4297 27.9747 33.2631 27.9747Z" fill="#D3DFFF"/>
<path d="M28.5779 27.9747H26.2438C26.0772 27.9747 25.9421 27.8403 25.9421 27.6746V26.2823C25.9421 26.1166 26.0772 25.9822 26.2438 25.9822H28.5779C28.7444 25.9822 28.8796 26.1166 28.8796 26.2823V27.6746C28.8796 27.8403 28.7444 27.9747 28.5779 27.9747Z" fill="#D3DFFF"/>
<path d="M23.893 27.9747H21.5589C21.3923 27.9747 21.2571 27.8403 21.2571 27.6746V26.2823C21.2571 26.1166 21.3923 25.9822 21.5589 25.9822H23.893C24.0595 25.9822 24.1947 26.1166 24.1947 26.2823V27.6746C24.1947 27.8403 24.0595 27.9747 23.893 27.9747Z" fill="#D3DFFF"/>
<path d="M37.9507 31.5732H35.6166C35.4501 31.5732 35.3149 31.4388 35.3149 31.2731V29.8808C35.3149 29.7151 35.4501 29.5807 35.6166 29.5807H37.9507C38.1172 29.5807 38.2524 29.7151 38.2524 29.8808V31.2731C38.25 31.4388 38.1148 31.5732 37.9507 31.5732Z" fill="#1F3C88"/>
<path d="M33.2631 31.5732H30.929C30.7625 31.5732 30.6273 31.4388 30.6273 31.2731V29.8808C30.6273 29.7151 30.7625 29.5807 30.929 29.5807H33.2631C33.4297 29.5807 33.5649 29.7151 33.5649 29.8808V31.2731C33.5649 31.4388 33.4297 31.5732 33.2631 31.5732Z" fill="#D3DFFF"/>
<path d="M28.5779 31.5732H26.2438C26.0772 31.5732 25.9421 31.4388 25.9421 31.2731V29.8808C25.9421 29.7151 26.0772 29.5807 26.2438 29.5807H28.5779C28.7444 29.5807 28.8796 29.7151 28.8796 29.8808V31.2731C28.8796 31.4388 28.7444 31.5732 28.5779 31.5732Z" fill="#D3DFFF"/>
<path d="M23.893 31.5732H21.5589C21.3923 31.5732 21.2571 31.4388 21.2571 31.2731V29.8808C21.2571 29.7151 21.3923 29.5807 21.5589 29.5807H23.893C24.0595 29.5807 24.1947 29.7151 24.1947 29.8808V31.2731C24.1947 31.4388 24.0595 31.5732 23.893 31.5732Z" fill="#D3DFFF"/>
<path d="M37.9507 35.299H35.6166C35.4501 35.299 35.3149 35.1646 35.3149 34.999V33.6066C35.3149 33.441 35.4501 33.3065 35.6166 33.3065H37.9507C38.1172 33.3065 38.2524 33.441 38.2524 33.6066V34.999C38.25 35.1646 38.1148 35.299 37.9507 35.299Z" fill="#FBC343"/>
<path d="M33.2631 35.299H30.929C30.7625 35.299 30.6273 35.1646 30.6273 34.999V33.6066C30.6273 33.441 30.7625 33.3065 30.929 33.3065H33.2631C33.4297 33.3065 33.5649 33.441 33.5649 33.6066V34.999C33.5649 35.1646 33.4297 35.299 33.2631 35.299Z" fill="#D3DFFF"/>
<path d="M28.5779 35.299H26.2438C26.0772 35.299 25.9421 35.1646 25.9421 34.999V33.6066C25.9421 33.441 26.0772 33.3065 26.2438 33.3065H28.5779C28.7444 33.3065 28.8796 33.441 28.8796 33.6066V34.999C28.8796 35.1646 28.7444 35.299 28.5779 35.299Z" fill="#D3DFFF"/>
<path d="M23.893 35.299H21.5589C21.3923 35.299 21.2571 35.1646 21.2571 34.999V33.6066C21.2571 33.441 21.3923 33.3065 21.5589 33.3065H23.893C24.0595 33.3065 24.1947 33.441 24.1947 33.6066V34.999C24.1947 35.1646 24.0595 35.299 23.893 35.299Z" fill="#D3DFFF"/>
<path d="M34.103 16.005C34.1488 16.0098 34.1995 16.005 34.2719 15.9978C34.3926 15.981 34.5061 15.9306 34.5954 15.849C34.6967 15.7578 34.7716 15.6233 34.8005 15.4409H34.7933C34.7088 15.5441 34.5833 15.6065 34.4312 15.6065C34.1537 15.6065 33.975 15.3977 33.975 15.136C33.975 14.8455 34.1874 14.5911 34.5012 14.5911C34.8174 14.5911 35.0105 14.8455 35.0105 15.2368C35.0105 15.5753 34.8971 15.8106 34.745 15.957C34.6267 16.0723 34.4626 16.1443 34.2961 16.1635C34.2212 16.1755 34.1537 16.1779 34.103 16.1755V16.005ZM34.1778 15.1216C34.1778 15.3137 34.2937 15.4481 34.4747 15.4481C34.6147 15.4481 34.7233 15.3785 34.7788 15.2872C34.7909 15.268 34.7981 15.244 34.7981 15.2128C34.7981 14.9512 34.7016 14.7495 34.4819 14.7495C34.3033 14.7471 34.1778 14.9031 34.1778 15.1216Z" fill="#3A6BEA"/>
<path d="M35.3218 16.005C35.3677 16.0098 35.4184 16.005 35.4908 15.9978C35.6115 15.981 35.7249 15.9306 35.8142 15.849C35.9156 15.7578 35.9904 15.6233 36.0194 15.4409H36.0122C35.9277 15.5441 35.8022 15.6065 35.6501 15.6065C35.3725 15.6065 35.1939 15.3977 35.1939 15.136C35.1939 14.8455 35.4063 14.5911 35.7201 14.5911C36.0339 14.5911 36.2294 14.8455 36.2294 15.2368C36.2294 15.5753 36.116 15.8106 35.9639 15.957C35.8456 16.0723 35.6815 16.1443 35.5149 16.1635C35.4401 16.1755 35.3725 16.1779 35.3218 16.1755V16.005ZM35.3967 15.1216C35.3967 15.3137 35.5125 15.4481 35.6936 15.4481C35.8336 15.4481 35.9422 15.3785 35.9977 15.2872C36.0098 15.268 36.017 15.244 36.017 15.2128C36.017 14.9512 35.9204 14.7495 35.7008 14.7495C35.5222 14.7471 35.3967 14.9031 35.3967 15.1216Z" fill="#3A6BEA"/>
<path d="M57.6635 30.5361H46.0003V39.044H57.6635V30.5361Z" fill="#FBC343"/>
<path d="M57.6613 32.4639H54.5548V32.5911H57.6613V32.4639Z" fill="#E49B31"/>
<path d="M57.6637 37.121H52.2569V37.2482H57.6637V37.121Z" fill="#E49B31"/>
<path d="M51.8151 33.6209C51.8151 34.6003 51.6678 35.5846 51.3661 36.54C50.9075 37.9924 49.5558 38.9815 48.0255 38.9815H46.0004V30.5385H51.313C51.6437 31.5299 51.8151 32.5718 51.8151 33.6209Z" fill="#E49B31"/>
<path d="M41.1488 37.5627V38.4702C41.1488 38.7895 40.8905 39.0463 40.5695 39.0463H30.9555C30.6345 39.0463 30.3762 38.7895 30.3762 38.4702V37.5627C30.3762 37.2435 30.6345 36.9866 30.9555 36.9866H40.5695C40.8881 36.9842 41.1488 37.2435 41.1488 37.5627Z" fill="#FBC343"/>
<path d="M39.9563 35.5006V36.408C39.9563 36.7273 39.6957 36.9842 39.377 36.9842H29.7631C29.442 36.9842 29.1838 36.7273 29.1838 36.408V35.5006C29.1838 35.1837 29.442 34.9244 29.7631 34.9244H39.377C39.6957 34.9244 39.9563 35.1837 39.9563 35.5006Z" fill="#FBC343"/>
<path d="M41.1488 37.5627V38.4702C41.1488 38.7895 40.8905 39.0463 40.5695 39.0463H33.6758C33.2003 38.463 32.9082 37.7092 32.7344 36.9866C32.5317 36.1584 32.481 35.3734 32.4689 34.9244H39.3795C39.6981 34.9244 39.9588 35.1837 39.9588 35.5006V36.408C39.9588 36.7273 39.6981 36.9842 39.3795 36.9842H40.5719C40.8881 36.9842 41.1488 37.2435 41.1488 37.5627Z" fill="#E49B31"/>
<path d="M46.2007 20.6671L45.4235 23.039L45.3656 23.2142L45.0059 24.3161L45.0035 24.3233L43.8425 24.2969L39.3891 24.1961L39.0633 23.2694L39.0078 23.1134L38.1461 20.6647C40.8205 21.589 43.0242 19.5748 46.2007 20.6671Z" fill="#FBC343"/>
<path d="M45.3654 23.2142L45.0058 24.3161L43.8423 24.2993L39.389 24.1984L39.0631 23.2718C40.5934 23.243 43.2292 23.207 45.3654 23.2142Z" fill="#E49B31"/>
<path d="M50.3427 36.6049C50.1133 37.3323 49.6596 37.9421 49.0754 38.3694C48.4889 38.7991 47.7672 39.0439 47.002 39.0439H36.915C35.4571 39.0439 34.1778 38.0741 33.7892 36.6745C33.5647 35.8655 33.4464 35.0445 33.4271 34.2283C33.4247 34.149 33.4247 34.0698 33.4247 33.993C33.4247 33.8994 33.4271 33.8058 33.4295 33.7145C33.5116 30.7545 34.9671 27.9986 37.3012 26.1597L39.7149 24.2584L45.2376 24.3857L48.2741 27.276C48.7013 27.6817 49.0827 28.1379 49.3868 28.6396C49.7537 29.2421 50.0482 29.8807 50.2727 30.5385C50.9316 32.4758 50.9751 34.6004 50.3427 36.6049Z" fill="#FBC343"/>
<path d="M41.3612 36.3912V35.3301C40.6081 35.2965 39.8767 35.0949 39.4495 34.85L39.7874 33.5417C40.2605 33.7985 40.9219 34.0338 41.6532 34.0338C42.2929 34.0338 42.7322 33.7889 42.7322 33.34C42.7322 32.9151 42.3725 32.6462 41.5398 32.3678C40.3377 31.9644 39.517 31.4075 39.517 30.3224C39.517 29.3381 40.2146 28.5675 41.4167 28.3323V27.2688H42.5173V28.2531C43.2704 28.2867 43.7773 28.4427 44.1466 28.6228L43.8208 29.8855C43.5287 29.7631 43.0122 29.5038 42.2011 29.5038C41.4698 29.5038 41.2356 29.8159 41.2356 30.1304C41.2356 30.5001 41.6291 30.7329 42.5849 31.0906C43.9221 31.5611 44.4628 32.1757 44.4628 33.1816C44.4628 34.1754 43.7556 35.0253 42.4618 35.2509V36.3912H41.3612Z" fill="white"/>
<path d="M46.1476 25.286H38.3343C38.0108 25.286 37.7477 25.0219 37.7477 24.7027V24.453C37.7477 24.1313 38.0133 23.8696 38.3343 23.8696H46.1476C46.471 23.8696 46.7341 24.1337 46.7341 24.453V24.7027C46.7341 25.0219 46.471 25.286 46.1476 25.286Z" fill="#ED7545"/>
<path opacity="0.4" d="M50.3426 36.6049C50.1133 37.3323 49.6595 37.9421 49.0753 38.3694C48.4888 38.7991 47.7671 39.044 47.0019 39.044H36.9149C35.457 39.044 34.1777 38.0741 33.7891 36.6746C33.5646 35.8655 33.4463 35.0445 33.427 34.2283C35.0949 35.8103 37.0621 37.8797 41.6603 37.9445C47.3688 38.0237 49.8284 35.3614 50.2701 30.5361C50.9315 32.4758 50.975 34.6004 50.3426 36.6049Z" fill="#E49B31"/>
<path d="M11.1605 37.2889L10.1394 36.9072L7.76672 38.9814H10.5739L11.1605 37.2889Z" fill="#102048"/>
<path d="M11.1603 37.2891H13.4172L13.1613 38.8975L10.5738 38.9815L11.1603 37.2891Z" fill="#F9B384"/>
<path d="M20.2168 28.2698L20.1348 28.8315L20.0841 29.17L19.7269 31.6067L19.5893 32.5381L19.4686 33.3687L19.15 35.5341L18.9279 37.0345C18.7614 38.1628 17.7886 39.0006 16.6421 39.0006H11.6505L11.6577 38.9382L11.8194 37.2866L11.8436 37.0537L15.3242 36.3863L15.7924 33.011C15.5631 32.0292 15.6187 31.0833 15.7176 30.4207C15.8021 29.8566 15.9204 29.4965 15.9204 29.4965L17.4724 29.0524L20.2168 28.2698Z" fill="#1F3C88"/>
<path d="M19.1501 35.5341L18.928 37.0345C18.7615 38.1628 17.7887 39.0006 16.6422 39.0006H16.3864C18.6746 38.5949 18.2256 35.6901 19.1501 35.5341Z" fill="#102048"/>
<path d="M9.87434 38.1667L9.38495 38.9496L9.4936 39.0168L9.98299 38.2338L9.87434 38.1667Z" fill="white"/>
<path d="M19.7268 31.609L19.4686 33.3711C18.7493 33.167 17.8007 32.1443 17.8007 32.1443L19.7268 31.609Z" fill="#102048"/>
<path d="M25.0155 36.1031C25.0155 36.1031 23.8014 36.7224 21.6315 36.3263L23.4345 35.1356L25.0155 36.1031Z" fill="#102048"/>
<path d="M24.3468 36.9554L22.4086 36.9986L22.3965 36.5833L22.3651 35.4406L24.0885 35.5678L24.1706 36.0095L24.3468 36.9554Z" fill="#F9B384"/>
<path d="M24.1706 36.0095L22.3965 36.5833L22.3651 35.4406L24.0885 35.5678L24.1706 36.0095Z" fill="#E28B6D"/>
<path d="M26.5482 38.9982L24.4072 37.2817L24.3468 36.9576L22.4062 36.9985L22.4617 38.9982H26.5482Z" fill="#102048"/>
<path d="M25.0881 37.7643L24.3224 38.2399L24.3902 38.3478L25.1559 37.8722L25.0881 37.7643Z" fill="white"/>
<path d="M15.9156 29.4989L22.8575 28.4018C23.181 28.3514 23.5141 28.3946 23.8158 28.5266C24.412 28.7907 24.8054 29.3717 24.8247 30.0198L25.0154 36.103C25.0154 36.103 23.0361 35.6901 21.6313 36.3263L21.5034 32.166C20.6538 32.5501 19.1838 32.6317 17.6945 32.4829L15.9156 29.4989Z" fill="#1F3C88"/>
<path d="M24.038 35.9135H23.9101C23.9101 34.862 23.9366 33.9882 23.9584 33.2176C24.0139 31.3403 24.0428 30.3056 23.5625 29.8687C23.1739 29.5134 22.3967 29.5254 21.267 29.6574C20.0577 29.7967 19.575 28.5171 19.5726 28.5051L19.6933 28.4619C19.7102 28.5099 20.1446 29.6646 21.255 29.5326C22.4498 29.3934 23.2246 29.3862 23.6518 29.7751C24.1756 30.2528 24.1466 31.2443 24.0887 33.22C24.0621 33.9882 24.038 34.862 24.038 35.9135Z" fill="#3A6BEA"/>
<path d="M21.6336 35.5581L21.5878 35.4405C21.6047 35.4332 23.2219 34.8355 25.0105 35.2796L24.9791 35.402C23.2315 34.9675 21.6481 35.5533 21.6336 35.5581Z" fill="#3A6BEA"/>
<path d="M12.3601 39.0198C12.1621 38.6237 12.4687 36.9841 12.4832 36.9169L12.6087 36.9409C12.5218 37.4042 12.3263 38.6669 12.4759 38.9646L12.3601 39.0198Z" fill="#3A6BEA"/>
<path d="M19.5265 28.99C19.5265 28.99 19.0365 30.0271 17.931 30.7256C17.5545 30.9609 17.1876 31.0689 16.8569 31.0713C16.3572 31.0737 15.9421 30.8313 15.7176 30.4232C15.8021 29.859 15.9203 29.4989 15.9203 29.4989L17.4724 29.0548L19.0389 29.0044L19.5265 28.99Z" fill="#102048"/>
<path d="M18.2783 22.7363V24.2055H19.7265V22.9356L18.2783 22.7363Z" fill="#ED7545"/>
<path d="M19.7265 22.0258H18.2783V22.7363L19.7265 22.9356V22.0258Z" fill="#F9B384"/>
<path d="M18.7057 22.2275C18.7371 22.2275 19.0557 22.722 19.7267 22.9356L19.717 22.165L18.7057 22.2275Z" fill="#102048"/>
<path d="M19.8956 20.2685C19.8956 20.2685 20.6945 22.4075 19.6615 22.5443C18.6284 22.6811 18.4691 22.2154 18.4691 22.2154L18.1505 21.0823L18.8625 20.1293L19.8956 20.2685Z" fill="#F9B384"/>
<path d="M20.3863 21.3013C20.3886 21.178 20.29 21.0762 20.166 21.0739C20.0421 21.0717 19.9397 21.1697 19.9374 21.293C19.9351 21.4163 20.0338 21.5181 20.1577 21.5204C20.2817 21.5226 20.384 21.4246 20.3863 21.3013Z" fill="#F9B384"/>
<path d="M18.812 21.284C18.812 21.284 18.8651 20.1413 19.8981 20.2685C19.8981 20.2685 19.203 19.3803 18.2882 19.726C17.8223 19.9012 17.5134 20.343 17.4675 20.8351C17.4096 21.4713 17.7813 22.1963 18.3027 22.3235C18.3027 22.3235 18.474 21.9322 18.7589 21.4353L18.812 21.284Z" fill="#102048"/>
<path d="M18.9304 21.6948C19.0872 21.6215 19.1445 21.4142 19.0583 21.2318C18.9721 21.0494 18.775 20.961 18.6182 21.0344C18.4614 21.1077 18.4041 21.315 18.4903 21.4973C18.5765 21.6797 18.7735 21.7681 18.9304 21.6948Z" fill="#F9B384"/>
<path opacity="0.4" d="M19.8385 21.4271C19.8408 21.2667 19.712 21.1348 19.5507 21.1325C19.3894 21.1302 19.2568 21.2584 19.2545 21.4188C19.2522 21.5792 19.3811 21.7111 19.5423 21.7134C19.7036 21.7157 19.8362 21.5875 19.8385 21.4271Z" fill="#EB5D60"/>
<path d="M18.8385 21.4856C18.8216 21.4856 18.8071 21.4712 18.8071 21.4544C18.8071 21.4472 18.8023 21.2695 18.6068 21.2431C18.5899 21.2407 18.5778 21.2239 18.5802 21.2071C18.5826 21.1903 18.5995 21.1783 18.6164 21.1807C18.8699 21.2167 18.8723 21.4544 18.8723 21.4568C18.8699 21.4712 18.8554 21.4856 18.8385 21.4856Z" fill="#102048"/>
<path d="M23.6733 20.6406C23.6733 20.6406 24.7884 20.7246 25.3967 21.4352L24.0136 21.7737L23.6733 20.6406Z" fill="#BA5C36"/>
<path d="M25.6523 20.0309C25.6572 20.1317 25.3772 20.6383 25.1696 20.9984C25.0489 21.2048 24.9548 21.3633 24.9548 21.3633L24.2113 21.5793L23.6803 20.7823L23.6537 20.7439C23.6537 20.7439 23.661 20.7103 23.6755 20.6479V20.6455C23.6779 20.6431 23.6779 20.6407 23.6779 20.6383C23.7672 20.2614 24.0834 18.9746 24.2668 18.9314C24.4286 18.8954 24.3344 19.5988 24.3344 19.5988C24.3344 19.5988 24.7327 18.4537 24.9668 18.5017C25.1551 18.5377 24.7858 19.6348 24.7858 19.6348C24.7858 19.6348 24.9161 19.498 25.0513 19.5412C25.1937 19.5892 25.2106 19.7212 25.2106 19.7212C25.2106 19.7212 25.3048 19.654 25.3989 19.7116C25.493 19.7692 25.4834 19.9469 25.4834 19.9469C25.4834 19.9469 25.6427 19.8725 25.6523 20.0309Z" fill="#F9B384"/>
<path d="M17.9406 23.6895L17.4362 25.6556L16.6517 28.7044C16.1182 28.9396 15.5583 29.0261 15.1117 28.9516C14.5952 28.8676 14.2331 28.5675 14.2572 28.037C14.32 26.6086 17.9406 23.6895 17.9406 23.6895Z" fill="#ED7545"/>
<path d="M17.8439 24.2488L17.436 25.6556L16.6515 28.7044C16.1181 28.9396 15.5581 29.026 15.1116 28.9516C16.246 25.7084 17.8439 24.2488 17.8439 24.2488Z" fill="#BA5C36"/>
<path d="M21.0037 28.6971C19.9513 28.7691 16.6299 31.4986 15.831 29.7366C15.831 29.7366 15.942 23.166 19.3527 23.286C19.9561 23.3077 20.4871 23.7086 20.6681 24.2799C20.7502 24.5392 20.8323 24.8777 20.895 25.3122C20.9602 25.7539 21.0085 26.294 21.0254 26.9542C21.0423 27.4632 21.035 28.0393 21.0037 28.6971Z" fill="#ED7545"/>
<path d="M21.0276 26.9543C20.5014 26.6158 19.9511 25.5932 19.9511 25.5932L20.8997 25.3147C20.9625 25.754 21.0107 26.2942 21.0276 26.9543Z" fill="#BA5C36"/>
<path d="M25.1697 20.9983C25.049 21.2048 24.9549 21.3632 24.9549 21.3632L24.2115 21.5793L23.6804 20.7823L23.6756 20.6478V20.6406H23.678L25.1697 20.9983Z" fill="#E28B6D"/>
<path d="M19.3549 23.2885C19.3549 23.2885 20.9938 23.4038 21.9834 23.5934L23.6755 20.6406C24.192 21.0511 24.7665 21.3176 25.3989 21.4352L23.9168 24.9042C23.591 25.5643 22.9248 25.9892 22.1886 26.0157L19.6517 26.1021L19.3549 23.2885Z" fill="#ED7545"/>
<path d="M21.981 23.639C21.9786 23.639 21.9762 23.639 21.9714 23.639C21.94 23.6342 18.848 23.0701 18.3194 23.5334C18.3001 23.5502 18.2687 23.5478 18.2518 23.5286C18.2349 23.5094 18.2373 23.4782 18.2566 23.4614C18.819 22.9669 21.8603 23.5214 21.9883 23.5454C22.0148 23.5502 22.0317 23.5742 22.0269 23.6006C22.0245 23.6246 22.0052 23.639 21.981 23.639Z" fill="#BA5C36"/>
<path d="M55.8747 36.2712L56.0871 38.9815H52.5438L54.3324 37.7548L54.301 36.0599L55.8747 36.2712Z" fill="#102048"/>
<path d="M61.1007 35.1189L62.0566 37.4355L59.6307 39.4689L59.9831 37.1834L59.5028 35.659L61.1007 35.1189Z" fill="#102048"/>
<path d="M56.8114 22.0474C56.78 22.1363 56.7511 22.2515 56.7221 22.3859C56.6738 22.6212 56.6352 22.9213 56.599 23.2742C56.4856 24.4265 56.4397 26.1405 56.4276 27.9602C56.4011 32.0581 56.5556 36.6961 56.5556 36.6961L55.9063 36.6865L54.3108 36.6625L53.746 36.6529C52.8915 30.1592 53.1353 24.6761 53.2632 22.7676C53.268 22.7004 53.2729 22.6404 53.2753 22.5828C53.3018 22.2323 53.3211 22.045 53.3211 22.045H56.8114V22.0474Z" fill="#1F3C88"/>
<path d="M61.7066 35.7214L61.3832 35.8006L59.6815 36.2231L58.6412 36.4824C58.6412 36.4824 57.4101 31.9404 56.4277 27.9577C55.9546 26.0372 55.5395 24.2488 55.3464 23.1613C55.2788 22.7772 55.2402 22.4819 55.2354 22.2994L56.7222 22.3835L58.6001 22.4891C58.6001 22.4891 58.646 22.758 58.7353 23.2381C59.0925 25.1586 60.1401 30.4736 61.7066 35.7214Z" fill="#1F3C88"/>
<path d="M58.7351 23.2406C57.9796 23.303 57.2578 23.3054 56.5989 23.2718C56.1499 23.2478 55.7299 23.2094 55.3462 23.1637C54.3951 23.0461 53.6638 22.8733 53.2631 22.7676C53.0459 22.71 52.9252 22.6716 52.9252 22.6716L53.2727 22.5828L55.4234 22.045H56.8089C56.7775 22.1339 56.7485 22.2491 56.7196 22.3835L58.5975 22.4892C58.5999 22.4916 58.6458 22.7604 58.7351 23.2406Z" fill="#102048"/>
<path d="M56.4927 28.4546C56.3889 28.0249 55.9013 25.9844 55.8385 25.6387L54.8513 25.2714L54.8972 25.1514L55.9592 25.5475V25.5907C55.9665 25.6843 56.3575 27.3359 56.6182 28.4234L56.4927 28.4546Z" fill="#3A6BEA"/>
<path d="M53.9873 30.3127C53.5239 30.3127 53.227 30.1975 53.2125 30.1927L53.2608 30.0751C53.2656 30.0775 53.787 30.2767 54.5232 30.1351L54.5473 30.2599C54.3422 30.2983 54.1539 30.3127 53.9873 30.3127Z" fill="#3A6BEA"/>
<path d="M57.685 30.224C57.3881 30.224 57.1371 30.1784 57.1178 30.1736L57.1419 30.0488C57.1516 30.0512 58.0133 30.2096 58.414 29.9312L58.4864 30.0344C58.274 30.1856 57.9602 30.224 57.685 30.224Z" fill="#3A6BEA"/>
<path d="M54.3736 37.7063L54.2958 37.8073L54.7959 38.1883L54.8737 38.0873L54.3736 37.7063Z" fill="white"/>
<path d="M60.0075 37.1248L59.9594 37.2427L60.6414 37.5182L60.6896 37.4003L60.0075 37.1248Z" fill="white"/>
<path d="M54.9385 15.1049C54.9385 15.1049 52.7468 15.3809 52.194 17.8344L52.853 20.756L52.5561 22.7029C52.5561 22.7029 55.5347 22.9982 58.6001 22.4916L57.6684 17.5271L54.9385 15.1049Z" fill="#ED7545"/>
<path d="M56.2998 21.3272C56.2998 21.3272 55.6409 20.8447 56.5026 18.7345L57.077 20.8134L56.2998 21.3272Z" fill="#6E3620"/>
<path d="M53.7293 18.6745L53.5699 18.3745L56.0223 17.0829C56.0899 17.0469 56.1768 17.0733 56.213 17.1405L56.242 17.1933C56.2782 17.2606 56.2516 17.347 56.184 17.383L53.7293 18.6745Z" fill="#102048"/>
<path d="M56.8551 20.6407L56.79 20.6046L55.9427 20.1509L54.5235 19.3875C54.4969 19.2171 54.5162 19.073 54.62 18.9746L54.55 18.9458C54.4341 18.8978 54.3497 18.7946 54.3279 18.6721L54.3255 18.6577C54.2893 18.5353 54.3062 18.4201 54.3183 18.3577L54.3521 18.3144C54.4341 18.2064 54.4728 18.1512 54.579 18.0672L54.3979 18.0768C54.3979 18.0768 53.9514 18.1992 54.159 17.9135C54.3014 17.7143 54.6224 17.5486 54.8059 17.4646C54.8831 17.4286 54.9748 17.4454 55.0352 17.5054C55.6483 18.1392 56.7296 18.8978 56.7296 18.8978L56.7417 19.0538L56.8455 20.4798L56.8551 20.6407Z" fill="#F9B384"/>
<path d="M55.1801 18.2136L54.7939 18.0264C54.7528 18.0072 54.7094 17.9999 54.6635 18.0072L54.2508 18.0792L54.2387 18.0168L54.6515 17.9447C54.7094 17.9351 54.7673 17.9423 54.8204 17.9687L55.2066 18.156L55.1801 18.2136Z" fill="#E28B6D"/>
<path d="M55.1076 18.5737L54.6442 18.3961C54.6225 18.3889 54.6007 18.3841 54.579 18.3841H54.3159V18.3217H54.579C54.608 18.3217 54.6394 18.3265 54.6659 18.3385L55.1294 18.5161L55.1076 18.5737Z" fill="#E28B6D"/>
<path d="M55.0448 18.9338L54.6248 18.7754C54.591 18.7634 54.5548 18.7586 54.521 18.7634L54.3496 18.7826L54.3424 18.7202L54.5138 18.701C54.5596 18.6962 54.6055 18.701 54.649 18.7178L55.0689 18.8762L55.0448 18.9338Z" fill="#E28B6D"/>
<path d="M56.843 20.475L56.7899 20.6046L55.9427 20.1485L56.5027 18.7345L56.7368 19.049L56.843 20.475Z" fill="#E28B6D"/>
<path d="M56.2999 21.3272C56.2999 21.3272 57.5671 22.5227 58.5978 22.4915L58.3009 21.0847L56.2999 21.3272Z" fill="#BA5C36"/>
<path d="M54.9386 15.1048C54.9386 15.1048 55.0955 15.088 55.3538 15.0976C57.9099 15.184 59.8675 17.371 59.7444 19.9132C59.6937 20.9647 59.4185 22.0066 58.5351 22.0282L56.3 21.3296C56.51 20.5446 56.6693 19.7284 56.5027 18.7369L57.5406 19.2291L54.9386 15.1048Z" fill="#ED7545"/>
<path d="M55.6675 21.2312L52.5442 21.3057L52.4597 21.044L52.1459 20.0837L51.2359 17.3062L54.3593 17.2294L55.6675 21.2312Z" fill="#D3DFFF"/>
<path opacity="0.3" d="M52.8071 19.75C52.8071 19.75 52.8022 20.6094 52.4595 21.0439L52.1457 20.0837L52.8071 19.75Z" fill="#1F3C88"/>
<path d="M51.2938 19.6827C51.3927 19.3658 51.5714 19.0754 51.7693 18.8113C51.832 18.7273 51.9696 18.5208 52.1 18.552C52.3655 18.6144 52.1 19.0802 52.1 19.0802C52.1 19.0802 52.3558 18.6985 52.45 18.8905C52.5465 19.0802 52.4065 19.2938 52.4065 19.2938C52.4065 19.2938 52.812 19.0297 52.6624 19.5579C52.6624 19.5579 52.9931 19.5147 52.7903 19.8748C52.6455 20.1316 52.5538 20.4173 52.3727 20.655C52.1917 20.8926 51.8489 21.0271 51.5641 20.8902C51.231 20.7318 51.1876 20.3069 51.2286 19.9828C51.2383 19.882 51.2624 19.7811 51.2938 19.6827Z" fill="#F9B384"/>
<path d="M51.866 19.5987C51.8612 19.5987 51.8563 19.5987 51.8539 19.5963C51.837 19.5891 51.8298 19.5699 51.837 19.5555L52.1412 18.8737C52.1484 18.8569 52.1677 18.8497 52.1822 18.8569C52.1991 18.8641 52.2063 18.8833 52.1991 18.8977L51.895 19.5795C51.8901 19.5915 51.8781 19.5987 51.866 19.5987Z" fill="#E28B6D"/>
<path d="M52.1773 19.8532C52.1725 19.8532 52.1676 19.8532 52.1628 19.8508C52.1459 19.8436 52.1411 19.8243 52.1483 19.8075L52.4356 19.1954C52.4428 19.1786 52.4621 19.1738 52.479 19.181C52.4959 19.1882 52.5007 19.2074 52.4935 19.2242L52.2063 19.8363C52.2014 19.846 52.1894 19.8532 52.1773 19.8532Z" fill="#E28B6D"/>
<path d="M52.4163 20.0596C52.4114 20.0596 52.4066 20.0596 52.4018 20.0548C52.3873 20.0476 52.3801 20.0284 52.3873 20.0116L52.6359 19.5435C52.6432 19.5291 52.6625 19.5219 52.6794 19.5291C52.6938 19.5363 52.7011 19.5555 52.6938 19.5723L52.4452 20.0404C52.4404 20.0548 52.4283 20.0596 52.4163 20.0596Z" fill="#E28B6D"/>
<path d="M53.4493 17.5054H52.3317L52.1411 17.1261H53.2562L53.4493 17.5054Z" fill="#102048"/>
<path d="M54.9095 16.3435C54.5789 16.3435 54.3592 16.1802 54.3568 16.1778C54.3351 16.161 54.3327 16.1322 54.3471 16.1106C54.364 16.089 54.393 16.0866 54.4147 16.101C54.434 16.1154 54.8661 16.4347 55.4454 16.0866C55.4671 16.0722 55.4985 16.0794 55.5106 16.1034C55.525 16.125 55.5178 16.1562 55.4937 16.1682C55.2788 16.3003 55.0785 16.3435 54.9095 16.3435Z" fill="#BA5C36"/>
<path d="M56.3 21.3752C56.2952 21.3752 56.2903 21.3752 56.2855 21.3728C56.2614 21.3656 56.2469 21.3392 56.2541 21.3128C56.7127 19.7668 56.4593 18.7561 56.4569 18.7441L56.4376 18.6721L58.4144 19.001C58.441 19.0058 58.4579 19.0298 58.4531 19.0562C58.4482 19.0826 58.4217 19.0994 58.3975 19.0946L56.5631 18.7898C56.6114 19.049 56.7441 19.9997 56.3459 21.3368C56.341 21.3608 56.3217 21.3752 56.3 21.3752Z" fill="#BA5C36"/>
<path d="M57.7482 18.9723H57.7458C57.7192 18.9699 57.6999 18.9483 57.6999 18.9219C57.6999 18.9123 57.753 17.8872 57.0386 16.8357C57.0241 16.8141 57.0289 16.7853 57.0506 16.7685C57.0723 16.7541 57.1013 16.7589 57.1182 16.7805C57.852 17.8608 57.7965 18.9171 57.7965 18.9267C57.7941 18.9531 57.7723 18.9723 57.7482 18.9723Z" fill="#BA5C36"/>
<path d="M55.8171 13.9357V15.1624C55.8171 15.5585 55.5081 15.8778 55.1243 15.8778C54.743 15.8778 54.4316 15.5585 54.4316 15.1624V13.9357H55.8171Z" fill="#F9B384"/>
<path d="M55.1629 14.0989C55.1629 14.0989 55.0905 14.8551 54.4316 15.076V14.0005L55.1629 14.0989Z" fill="#102048"/>
<path d="M53.9077 12.5384C53.9077 12.5384 53.6928 14.2573 54.3663 14.4613C55.0397 14.6654 55.6552 14.0724 55.6552 14.0724L55.5273 12.6537L54.5304 12.0703L53.9077 12.5384Z" fill="#F9B384"/>
<path d="M57.7431 15.8802L56.4132 15.969C56.2442 15.7841 56.1501 15.5249 56.0873 15.2344C56.0318 15.5345 56.0752 15.7841 56.2249 15.9834L55.8652 16.0074C55.5466 15.5321 55.2787 14.4806 55.5949 13.5804L55.6311 13.3691C55.6311 13.3691 55.4042 12.6849 55.0735 12.6561C55.0735 12.6561 53.9439 13.4147 53.4394 12.5673C53.0629 11.9383 53.3815 11.1101 54.2842 11.7199C54.2842 11.7199 56.4542 10.7068 56.4494 12.7833C56.447 13.1554 56.5894 13.5203 56.8645 13.77C56.8887 13.794 56.9128 13.8156 56.9394 13.8348C57.4269 14.2141 57.9531 14.9799 57.7431 15.8802Z" fill="#102048"/>
<path d="M55.9657 13.4751C56.0298 13.277 55.944 13.0722 55.774 13.0178C55.604 12.9633 55.4141 13.0797 55.35 13.2779C55.2858 13.476 55.3716 13.6808 55.5416 13.7352C55.7116 13.7897 55.9015 13.6732 55.9657 13.4751Z" fill="#F9B384"/>
<path d="M55.619 13.494C55.6021 13.494 55.5876 13.4796 55.5876 13.4628C55.5876 13.326 55.6963 13.2035 55.8242 13.1987C55.8242 13.1987 55.8242 13.1987 55.8266 13.1987C55.8435 13.1987 55.858 13.2107 55.858 13.2299C55.858 13.2467 55.8459 13.2635 55.8266 13.2635C55.7421 13.2683 55.6504 13.35 55.6504 13.4652C55.6504 13.482 55.6383 13.494 55.619 13.494Z" fill="#102048"/>
<path d="M54.1466 13.1938C54.1466 13.2371 54.1104 13.2731 54.067 13.2731C54.0235 13.2731 53.9873 13.2371 53.9873 13.1938C53.9873 13.1506 54.0235 13.1146 54.067 13.1146C54.1104 13.1146 54.1466 13.1506 54.1466 13.1938Z" fill="#102048"/>
<path d="M54.627 13.1531C54.627 13.1963 54.5908 13.2323 54.5473 13.2323C54.5039 13.2323 54.4677 13.1963 54.4677 13.1531C54.4677 13.1099 54.5039 13.0739 54.5473 13.0739C54.5908 13.0739 54.627 13.1099 54.627 13.1531Z" fill="#102048"/>
<path d="M54.26 13.7244C54.2528 13.7244 54.2431 13.722 54.2383 13.7148C54.1731 13.6524 54.1466 13.5924 54.1587 13.5371C54.1707 13.4819 54.2214 13.4483 54.2504 13.4339L54.2431 13.2779C54.2431 13.2611 54.2552 13.2467 54.2745 13.2443C54.2914 13.2443 54.3059 13.2563 54.3083 13.2755L54.318 13.4771L54.2962 13.4843C54.2793 13.4915 54.2311 13.5131 54.2238 13.5515C54.2142 13.5924 54.2528 13.638 54.2842 13.6692C54.2962 13.6812 54.2962 13.7004 54.2842 13.7148C54.2769 13.722 54.2673 13.7244 54.26 13.7244Z" fill="#102048"/>
<path d="M54.3252 13.9549C54.2987 13.9549 54.2818 13.9525 54.2794 13.9525C54.2625 13.9501 54.2504 13.9333 54.2528 13.9165C54.2552 13.8997 54.2721 13.8877 54.289 13.8901C54.2914 13.8901 54.4532 13.9141 54.5956 13.7893C54.6076 13.7773 54.6294 13.7797 54.6414 13.7917C54.6535 13.8061 54.6511 13.8253 54.639 13.8373C54.5183 13.9381 54.3904 13.9549 54.3252 13.9549Z" fill="#102048"/>
<path opacity="0.4" d="M54.9458 13.7268C55.0618 13.7268 55.1558 13.6333 55.1558 13.5179C55.1558 13.4026 55.0618 13.3091 54.9458 13.3091C54.8299 13.3091 54.7358 13.4026 54.7358 13.5179C54.7358 13.6333 54.8299 13.7268 54.9458 13.7268Z" fill="#EB5D60"/>
<path d="M70.1425 38.9192H1.99994V39.0464H70.1425V38.9192Z" fill="#102048"/>
</svg>
