<svg width="73" height="72" viewBox="0 0 73 72" fill="none" xmlns="http://www.w3.org/2000/svg">
<rect x="0.75" width="72" height="72" rx="36" fill="#F8F9FB"/>
<path d="M40.6288 38.9151L33.6106 37.2666H27.7258L20.7137 38.9151C19.0955 39.3454 17.9622 40.8181 17.9622 42.503V53.109H43.3864V42.503C43.3864 40.8181 42.2591 39.3454 40.6288 38.9151Z" fill="#1877F1"/>
<path d="M35.4045 37.6848L30.6711 40.9878L34.053 43.9575L37.9681 38.2848L35.4045 37.6848Z" fill="#8CBAFA"/>
<path d="M23.5015 38.2606L27.2954 43.9575L30.6712 40.9878L25.9439 37.6848L23.5015 38.2606Z" fill="#8CBAFA"/>
<path d="M33.2167 53.109H28.1318L29.4652 45.406L28.7682 44.8L28.2712 43.0909L30.6773 40.9939L33.0773 43.0909L32.5803 44.8L31.8834 45.406L33.2167 53.109Z" fill="#DDEBFB"/>
<path d="M50.8107 29.9211H44.2592C43.9319 29.9211 43.6653 30.1878 43.6653 30.5151V32.3636C43.6653 32.6908 43.9319 32.9575 44.2592 32.9575H50.8107C51.138 32.9575 51.4047 32.6908 51.4047 32.3636V30.5151C51.4047 30.1878 51.1441 29.9211 50.8107 29.9211Z" fill="#4D4472"/>
<path d="M54.3499 31.4363H51.4045V32.3636C51.4045 32.6908 51.1378 32.9575 50.8105 32.9575H44.259C43.9317 32.9575 43.6651 32.6908 43.6651 32.3636V31.4423H40.7196C40.0651 31.4423 39.5317 31.9757 39.5317 32.6302V51.9272C39.5317 52.5817 40.0651 53.1151 40.7196 53.1151H54.3499C55.0045 53.1151 55.5378 52.5817 55.5378 51.9272V32.6242C55.5378 31.9696 55.0045 31.4363 54.3499 31.4363Z" fill="#BFD8FB"/>
<path d="M37.3803 27.9757C37.3379 27.9757 37.2954 27.9879 37.253 27.9879C36.9924 27.3636 36.4712 26.0909 35.9924 24.8606C35.3863 23.3091 33.4469 22.7151 31.9257 23.4C31.4833 23.6 31.0712 23.8667 30.7136 24.1939C28.3439 26.9394 25.4166 24.1939 25.4166 24.1939L25.5015 24.4363C25.9803 25.7576 25.55 27.2121 24.4894 28.0727C24.3197 28.0182 24.1439 27.9818 23.9621 27.9818C23.0045 27.9818 22.2288 28.7576 22.2288 29.7151C22.2288 30.6727 23.0045 31.4485 23.9621 31.4485C23.9803 31.4485 23.9924 31.4424 24.0045 31.4424C24.3742 34.7454 27.1439 37.6242 30.4894 37.7091C34.1257 37.8 37.1197 35 37.35 31.4424H37.3742C38.3318 31.4424 39.1075 30.6667 39.1075 29.7091C39.1075 28.7515 38.3379 27.9757 37.3803 27.9757Z" fill="#F3D297"/>
<path d="M34.3986 36.5636C33.2895 37.309 31.9441 37.7393 30.4956 37.703C29.1926 37.6666 27.9805 37.2121 26.9623 36.4727C26.9138 37.0484 26.5259 37.5514 25.9441 37.6848L30.6774 40.9878L35.4108 37.6848C34.8532 37.5575 34.4835 37.103 34.3986 36.5636Z" fill="#EEC28B"/>
<path d="M33.35 20.0302C32.4652 18.7696 27.7561 18.2424 25.4894 20.1333C21.2591 23.6666 24.0106 28.3999 24.0106 28.3999C25.4167 27.6302 26.0531 25.9515 25.5076 24.4424L25.4228 24.1999C25.4228 24.1999 28.35 26.9454 30.7197 24.1999C31.0773 23.8787 31.4894 23.606 31.9318 23.406C33.4531 22.7272 35.3925 23.3212 35.9985 24.8666C36.6652 26.5757 37.4288 28.3939 37.4288 28.3939C40.9985 18.7999 33.35 20.0302 33.35 20.0302Z" fill="#4D4472"/>
<path opacity="0.1" d="M34.4046 36.5636C33.2955 37.3091 31.9501 37.7394 30.5016 37.703C29.1925 37.6666 27.9804 37.206 26.9561 36.4606C26.9198 36.8969 26.7016 37.2848 26.344 37.5091C27.5501 38.3575 28.9682 38.8727 30.4652 38.9091H30.6713C32.3016 38.9091 33.8167 38.406 35.0834 37.5515C34.7137 37.3575 34.4652 36.9878 34.4046 36.5636Z" fill="black"/>
<path d="M47.345 43.19C49.3305 43.19 50.94 41.5805 50.94 39.595C50.94 37.6095 49.3305 36 47.345 36C45.3595 36 43.75 37.6095 43.75 39.595C43.75 41.5805 45.3595 43.19 47.345 43.19Z" fill="#1B79F1"/>
<path d="M48.815 39.2393H47.7005V38.1247C47.7005 37.9303 47.5392 37.769 47.3448 37.769C47.1503 37.769 46.989 37.9303 46.989 38.1247V39.2393H45.8745C45.6801 39.2393 45.5188 39.4005 45.5188 39.595C45.5188 39.7895 45.6801 39.9507 45.8745 39.9507H46.989V41.0653C46.989 41.2597 47.1503 41.421 47.3448 41.421C47.5392 41.421 47.7005 41.2597 47.7005 41.0653V39.9507H48.815C49.0095 39.9507 49.1707 39.7895 49.1707 39.595C49.1707 39.4005 49.0142 39.2393 48.815 39.2393Z" fill="white"/>
<path d="M52.7137 46.1211H42.3562C42.1077 46.1211 41.9016 45.9151 41.9016 45.6666C41.9016 45.4181 42.1077 45.212 42.3562 45.212H52.7137C52.9622 45.212 53.1683 45.4181 53.1683 45.6666C53.1683 45.9151 52.9622 46.1211 52.7137 46.1211Z" fill="#FEFDFF"/>
<path d="M52.7137 47.9817H42.3562C42.1077 47.9817 41.9016 47.7757 41.9016 47.5272C41.9016 47.2787 42.1077 47.0726 42.3562 47.0726H52.7137C52.9622 47.0726 53.1683 47.2787 53.1683 47.5272C53.1683 47.7757 52.9622 47.9817 52.7137 47.9817Z" fill="#FEFDFF"/>
<path d="M47.3743 49.8423H42.3562C42.1077 49.8423 41.9016 49.6363 41.9016 49.3878C41.9016 49.1393 42.1077 48.9332 42.3562 48.9332H47.3743C47.6228 48.9332 47.8289 49.1393 47.8289 49.3878C47.8289 49.6363 47.6228 49.8423 47.3743 49.8423Z" fill="#FEFDFF"/>
<path opacity="0.1" d="M28.2712 43.0909L28.647 44.3818L30.6712 42.6L32.7015 44.3818L33.0773 43.0909L30.6773 40.9939L28.2712 43.0909Z" fill="black"/>
<path opacity="0.1" d="M39.5319 51.9211V38.6545L38.3198 38.3696V51.9211C38.3198 52.3514 38.4471 52.7575 38.6471 53.103H40.7077C40.0592 53.103 39.5319 52.5757 39.5319 51.9211Z" fill="black"/>
</svg>
