<svg width="150" height="150" viewBox="0 0 150 150" fill="none" xmlns="http://www.w3.org/2000/svg">
<g clip-path="url(#clip0_13516_79596)">
<path d="M76.6809 46.8597L73.8662 41.8013C73.4074 40.967 72.7322 40.271 71.9115 39.7861C71.0907 39.3011 70.1543 39.045 69.2003 39.0444H27.005C25.5927 39.0444 24.2383 39.604 23.2396 40.6001C22.2409 41.5962 21.6799 42.9471 21.6799 44.3558V124.785C21.6799 126.254 22.265 127.662 23.3065 128.701C24.3479 129.74 25.7604 130.324 27.2333 130.324H123.086C124.558 130.324 125.971 129.74 127.012 128.701C128.054 127.662 128.639 126.254 128.639 124.785V54.5485C128.639 53.1398 128.078 51.7889 127.079 50.7928C126.081 49.7967 124.726 49.2371 123.314 49.2371H80.7381C79.9102 49.2403 79.0967 49.0212 78.3829 48.6029C77.669 48.1846 77.0812 47.5825 76.6809 46.8597Z" fill="white"/>
<path opacity="0.3" d="M75.0246 46.8597L72.2099 41.8013C71.7511 40.967 71.076 40.271 70.2552 39.7861C69.4344 39.3011 68.4981 39.045 67.5441 39.0444H25.3488C23.9365 39.0444 22.582 39.604 21.5834 40.6001C20.5847 41.5962 20.0237 42.9471 20.0237 44.3558V124.785C20.0237 126.254 20.6088 127.662 21.6502 128.701C22.6917 129.74 24.1042 130.324 25.577 130.324H121.429C122.902 130.324 124.315 129.74 125.356 128.701C126.398 127.662 126.983 126.254 126.983 124.785V54.5485C126.983 53.1398 126.422 51.7889 125.423 50.7928C124.424 49.7967 123.07 49.2371 121.658 49.2371H79.0819C78.254 49.2403 77.4405 49.0212 76.7266 48.6029C76.0128 48.1846 75.4249 47.5825 75.0246 46.8597Z" fill="#B8C0CF"/>
<g filter="url(#filter0_d_13516_79596)">
<path d="M86.3127 24.398L43.2557 28.1763C42.495 28.2412 41.755 28.461 41.0782 28.8231C40.4014 29.1852 39.801 29.6825 39.3114 30.2864C38.8218 30.8904 38.4525 31.5892 38.2248 32.3429C37.9971 33.0966 37.9154 33.8904 37.9844 34.6788L45.2284 117.166C45.2965 117.955 45.5142 118.723 45.8689 119.427C46.2236 120.13 46.7084 120.755 47.2955 121.266C47.8826 121.776 48.5605 122.163 49.2903 122.402C50.0201 122.642 50.7875 122.73 51.5485 122.663L106.656 117.826C107.416 117.761 108.155 117.54 108.831 117.178C109.506 116.815 110.106 116.318 110.594 115.714C111.082 115.11 111.45 114.411 111.676 113.658C111.903 112.905 111.983 112.112 111.912 111.324L105.786 41.3226L86.3127 24.398Z" fill="white"/>
<path d="M86.3198 24.4009L87.4175 36.892C87.4862 37.6796 87.704 38.4464 88.0583 39.1487C88.4127 39.8509 88.8966 40.4749 89.4826 40.9849C90.0686 41.4949 90.745 41.8809 91.4734 42.1209C92.2017 42.361 92.9677 42.4503 93.7275 42.3839L105.793 41.3255L86.3198 24.4009Z" fill="#B8C0CF"/>
<path opacity="0.7" d="M86.3198 24.4009L87.4175 36.892C87.4862 37.6796 87.704 38.4464 88.0583 39.1487C88.4127 39.8509 88.8966 40.4749 89.4826 40.9849C90.0686 41.4949 90.745 41.8809 91.4734 42.1209C92.2017 42.361 92.9677 42.4503 93.7275 42.3839L105.793 41.3255L86.3198 24.4009Z" fill="url(#paint0_linear_13516_79596)" fill-opacity="0.9"/>
<rect width="37.0425" height="1.65746" rx="0.828729" transform="matrix(0.996113 -0.0880837 0.0884344 0.996082 43.3235 37.0671)" fill="#E8EDF8"/>
<rect width="55.6159" height="1.65746" rx="0.828728" transform="matrix(0.996113 -0.0880836 0.0884345 0.996082 45.6184 61.0312)" fill="#E8EDF8"/>
<rect width="37.5336" height="1.65746" rx="0.828729" transform="matrix(0.996113 -0.0880837 0.0884343 0.996082 43.8098 45.0586)" fill="#E8EDF8"/>
<rect width="55.6159" height="1.65746" rx="0.828729" transform="matrix(0.996113 -0.0880837 0.0884344 0.996082 46.3906 69.0173)" fill="#E8EDF8"/>
<rect width="55.6159" height="1.65746" rx="0.828729" transform="matrix(0.996108 -0.0881417 0.0883824 0.996087 44.6157 53.0503)" fill="#E8EDF8"/>
<rect width="55.6159" height="1.65746" rx="0.828728" transform="matrix(0.996108 -0.0881416 0.0883825 0.996087 46.7114 77.0037)" fill="#E8EDF8"/>
</g>
<path d="M137.705 59.7705H81.6306C80.4862 59.7154 79.343 59.9 78.2733 60.3128C77.2037 60.7255 76.231 61.3573 75.417 62.1681L71.765 66.6061C71.0999 67.3115 70.2907 67.8637 69.3933 68.2248C68.4958 68.5858 67.5312 68.7471 66.5659 68.6976H11.7852C7.98103 68.6976 5.44487 70.7636 6.10427 73.3142C11.4555 94.2037 14.1438 104.636 19.4951 125.5C19.9761 126.907 20.8824 128.129 22.0874 128.993C23.2924 129.857 24.7358 130.321 26.2159 130.32H121.27C122.751 130.321 124.194 129.857 125.399 128.993C126.604 128.129 127.51 126.907 127.991 125.5L143.665 64.4126C144.299 61.862 141.661 59.7705 137.705 59.7705Z" fill="white"/>
<g opacity="0.6" filter="url(#filter1_d_13516_79596)">
<path opacity="0.1" d="M137.946 60.2568H81.8691C80.7247 60.202 79.5814 60.3856 78.5117 60.796C77.442 61.2064 76.4693 61.8346 75.6553 62.6409L72.0031 67.0539C71.3379 67.7554 70.5288 68.3045 69.6312 68.6635C68.7337 69.0225 67.7691 69.1829 66.8037 69.1337H12.0206C8.21623 69.1337 5.67996 71.188 6.33938 73.7243C11.6909 94.4962 14.3793 104.87 19.7308 125.616C20.2119 127.016 21.1182 128.23 22.3233 129.09C23.5283 129.949 24.9718 130.411 26.4519 130.41H121.511C122.991 130.411 124.434 129.949 125.639 129.09C126.844 128.23 127.751 127.016 128.232 125.616L143.906 64.8728C144.54 62.3365 141.902 60.2568 137.946 60.2568Z" fill="url(#paint1_linear_13516_79596)"/>
</g>
<path d="M91.1532 119.802L93.7166 117.052L79.7571 104.04L77.1937 106.789L91.1532 119.802Z" fill="url(#paint2_linear_13516_79596)"/>
<path d="M98.9304 128.379C99.3763 128.795 100.075 128.771 100.49 128.325L102.866 125.78C103.282 125.334 103.258 124.635 102.812 124.219L93.2144 115.271C92.7686 114.855 92.0703 114.88 91.6544 115.325L89.279 117.871C88.8629 118.317 88.8872 119.016 89.3333 119.432L98.9304 128.379Z" fill="#075CDF"/>
<path d="M49.7492 92.2524C49.9777 90.0822 50.6335 87.9787 51.679 86.0632C52.7245 84.1477 54.1388 82.4582 55.8405 81.0921C56.0729 80.9037 56.3085 80.7247 56.5471 80.5551C58.6244 79.0573 61.0198 78.0602 63.5462 77.6415C66.0727 77.2228 68.6617 77.3939 71.111 78.1415C73.5604 78.8891 75.8037 80.1928 77.6657 81.951C79.5278 83.7091 80.9581 85.8739 81.845 88.2763C83.3146 92.2799 83.1983 96.6937 81.5199 100.614C79.947 104.268 77.1153 107.236 73.5396 108.978C69.9639 110.721 65.8817 111.122 62.035 110.11C58.1884 109.097 54.8327 106.738 52.5781 103.461C50.3236 100.184 49.3198 96.2068 49.7492 92.2524Z" fill="white"/>
<path d="M49.7517 92.2517C50.9577 80.4743 63.8846 73.7423 74.2487 79.3861C87.2792 86.5891 85.2205 105.767 70.951 110.05C59.6023 113.347 48.4138 104.015 49.7517 92.2517ZM49.7517 92.2517C48.4845 103.963 59.6447 113.239 70.9227 109.908C84.9708 105.668 87.0107 86.6551 74.2204 79.5133C63.9128 73.8601 51.0237 80.5402 49.7753 92.2328L49.7517 92.2517Z" fill="#075CDF"/>
<path d="M64.192 113.335C60.3736 112.923 56.7629 111.389 53.8166 108.925C50.8703 106.462 48.7207 103.18 47.6396 99.4944C46.5584 95.8092 46.5943 91.8861 47.7427 88.2213C48.8912 84.5565 51.1005 81.3145 54.0914 78.9053C57.0823 76.4961 60.7205 75.0279 64.5458 74.6863C68.3711 74.3448 72.2118 75.1452 75.5822 76.9864C78.9527 78.8276 81.7014 81.6269 83.481 85.0302C85.2605 88.4336 85.9909 92.2883 85.5798 96.1067C85.0236 101.226 82.4591 105.915 78.4493 109.145C74.4394 112.374 69.3119 113.881 64.192 113.335ZM64.4323 111.125C67.8138 111.492 71.2282 110.848 74.2437 109.275C77.2591 107.701 79.7401 105.268 81.3728 102.284C83.0055 99.3005 83.7165 95.8994 83.416 92.5114C83.1154 89.1233 81.8168 85.9005 79.6843 83.2505C77.5519 80.6006 74.6814 78.6427 71.436 77.6244C68.1907 76.6061 64.7162 76.5732 61.4521 77.5298C58.188 78.4865 55.281 80.3897 53.0987 82.9988C50.9165 85.6078 49.557 88.8054 49.1924 92.1872C48.7088 96.7182 50.0414 101.256 52.8982 104.806C55.755 108.356 59.9028 110.628 64.4323 111.125Z" fill="url(#paint3_linear_13516_79596)"/>
<path d="M83.1075 88.2961C82.4323 86.3331 81.42 84.503 80.116 82.8879C77.3363 79.4587 73.3729 77.1951 69.007 76.5432C64.6411 75.8914 60.1893 76.8986 56.5292 79.3663C52.8691 81.834 50.266 85.5832 49.2332 89.875C48.2003 94.1668 48.8125 98.6898 50.9492 102.553C53.0858 106.415 56.5919 109.338 60.7763 110.744C64.9608 112.149 69.5201 111.937 73.5556 110.148C77.5912 108.359 80.8102 105.123 82.5782 101.078C84.3463 97.0335 84.5351 92.4732 83.1075 88.2961ZM82.8013 95.8336C82.3936 99.6625 80.6705 103.232 77.9257 105.932C75.181 108.633 71.5846 110.298 67.7496 110.644C63.9145 110.989 60.0783 109.994 56.8949 107.828C53.7114 105.662 51.3779 102.458 50.292 98.764C49.2061 95.0697 49.4351 91.1132 50.94 87.5688C52.4449 84.0245 55.1325 81.1118 58.5446 79.3273C61.9567 77.5428 65.8821 76.997 69.6516 77.7828C73.4212 78.5687 76.8015 80.6376 79.2163 83.6369C81.9679 87.0636 83.2516 91.4399 82.7872 95.81L82.8013 95.8336ZM83.1075 88.2961C82.4323 86.3331 81.42 84.503 80.116 82.8879C77.3363 79.4587 73.3729 77.1951 69.007 76.5432C64.6411 75.8914 60.1893 76.8986 56.5292 79.3663C52.8691 81.834 50.266 85.5832 49.2332 89.875C48.2003 94.1668 48.8125 98.6898 50.9492 102.553C53.0858 106.415 56.5919 109.338 60.7763 110.744C64.9608 112.149 69.5201 111.937 73.5556 110.148C77.5912 108.359 80.8102 105.123 82.5782 101.078C84.3463 97.0335 84.5351 92.4732 83.1075 88.2961ZM82.8013 95.8336C82.3936 99.6625 80.6705 103.232 77.9257 105.932C75.181 108.633 71.5846 110.298 67.7496 110.644C63.9145 110.989 60.0783 109.994 56.8949 107.828C53.7114 105.662 51.3779 102.458 50.292 98.764C49.2061 95.0697 49.4351 91.1132 50.94 87.5688C52.4449 84.0245 55.1325 81.1118 58.5446 79.3273C61.9567 77.5428 65.8821 76.997 69.6516 77.7828C73.4212 78.5687 76.8015 80.6376 79.2163 83.6369C81.9679 87.0636 83.2516 91.4399 82.7872 95.81L82.8013 95.8336ZM85.2133 87.6035C84.0568 84.2117 82.01 81.193 79.2869 78.8633C76.5639 76.5337 73.2647 74.9788 69.7347 74.3613C66.2047 73.7438 62.5736 74.0865 59.2214 75.3534C55.8693 76.6203 52.9192 78.7649 50.68 81.5628C48.4408 84.3607 46.9947 87.709 46.4932 91.2573C45.9916 94.8056 46.453 98.4235 47.829 101.732C49.205 105.041 51.4451 107.92 54.3148 110.066C57.1845 112.212 60.5784 113.548 64.1412 113.933C67.483 114.293 70.8617 113.805 73.965 112.514C77.0682 111.223 79.796 109.17 81.8962 106.546C83.9964 103.922 85.4013 100.81 85.9811 97.4996C86.5609 94.1888 86.2968 90.7853 85.2133 87.6035ZM85.0154 96.0833C84.5201 100.7 82.3377 104.971 78.8867 108.078C75.4357 111.185 70.9592 112.908 66.316 112.917C61.6727 112.926 57.1895 111.22 53.7264 108.127C50.2633 105.034 48.0642 100.771 47.5509 96.1564C47.0375 91.5416 48.2461 86.8997 50.9447 83.1212C53.6434 79.3426 57.6421 76.6935 62.1739 75.6819C66.7057 74.6703 71.4514 75.3675 75.5007 77.6398C79.55 79.9121 82.6178 83.5995 84.1157 87.9946C84.9918 90.5821 85.2909 93.3301 84.9919 96.0456L85.0154 96.0833ZM80.116 82.9256C77.3285 79.5009 73.3589 77.245 68.9901 76.6028C64.6213 75.9605 60.1704 76.9787 56.5152 79.4563C52.86 81.9339 50.2659 85.6913 49.2444 89.9873C48.223 94.2832 48.8483 98.8061 50.9971 102.664C53.1459 106.521 56.6622 109.434 60.8525 110.827C65.0428 112.22 69.6029 111.992 73.6336 110.189C77.6643 108.385 80.8729 105.137 82.6266 101.084C84.3804 97.0315 84.5519 92.4689 83.1075 88.2961C82.428 86.3322 81.4109 84.502 80.1019 82.8879L80.116 82.9256ZM82.8013 95.8477C82.3936 99.6767 80.6705 103.246 77.9257 105.946C75.181 108.647 71.5846 110.312 67.7496 110.658C63.9145 111.003 60.0783 110.008 56.8949 107.842C53.7114 105.676 51.3779 102.472 50.292 98.7782C49.2061 95.0839 49.4351 91.1273 50.94 87.583C52.4449 84.0386 55.1325 81.1259 58.5446 79.3414C61.9567 77.5569 65.8821 77.0111 69.6516 77.797C73.4212 78.5828 76.8015 80.6518 79.2163 83.6511C81.9642 87.0741 83.2478 91.4446 82.7872 95.81L82.8013 95.8477Z" fill="url(#paint4_linear_13516_79596)"/>
<path d="M55.1246 102.06C54.0556 100.637 53.2951 99.0066 52.8916 97.2733C52.6743 96.3949 52.5465 95.4969 52.51 94.5928C52.4772 93.6771 52.534 92.7604 52.6796 91.8557C52.9888 90.0338 53.6773 88.2972 54.7006 86.7585C55.7045 85.2428 56.9827 83.9279 58.4693 82.8813C57.3238 84.2169 56.3153 85.6642 55.459 87.2013C55.0541 87.9576 54.7106 88.7453 54.432 89.5568C54.1446 90.3548 53.9333 91.1781 53.8008 92.0159C53.5257 93.6901 53.5114 95.3968 53.7584 97.0755C54.0127 98.7855 54.4714 100.459 55.1246 102.06Z" fill="url(#paint5_linear_13516_79596)"/>
<path d="M78.8716 90.1021C79.5116 91.763 79.7988 93.539 79.7149 95.3171C79.6812 96.2301 79.5565 97.1376 79.3427 98.0259C79.1225 98.9149 78.818 99.7809 78.4335 100.612C77.6362 102.278 76.5003 103.759 75.0982 104.96C73.7078 106.143 72.1106 107.058 70.3872 107.66C71.8542 106.688 73.2194 105.57 74.4622 104.324C75.0583 103.709 75.6049 103.047 76.0969 102.346C76.5907 101.656 77.0181 100.921 77.3736 100.151C78.0954 98.6136 78.5722 96.9732 78.7868 95.2888C79.0244 93.5697 79.0529 91.8281 78.8716 90.1021Z" fill="url(#paint6_linear_13516_79596)"/>
<path d="M61.183 91.9667C61.2199 91.3325 61.4589 90.7024 61.8998 90.0764C62.3408 89.4504 62.9635 88.9452 63.7678 88.5607C64.5703 88.1782 65.4913 88.0155 66.531 88.0725C67.4978 88.1257 68.3408 88.3513 69.0598 88.7491C69.7364 89.1053 70.3016 89.6412 70.6934 90.2979C71.0534 90.9096 71.2229 91.6148 71.1801 92.3233C71.1634 92.8413 71.0166 93.3467 70.7531 93.793C70.5151 94.1888 70.2181 94.5459 69.8723 94.8521C69.5391 95.145 68.9426 95.6346 68.0826 96.321C67.8819 96.4823 67.6899 96.6542 67.5074 96.8358C67.3819 96.9597 67.2718 97.0983 67.1796 97.2486C67.1079 97.3693 67.0486 97.497 67.0027 97.6296C66.9588 97.7583 66.8912 97.9827 66.7999 98.3055C66.6345 98.9914 66.219 99.316 65.5531 99.279C65.3919 99.2741 65.2333 99.2372 65.0865 99.1706C64.9396 99.1039 64.8074 99.0088 64.6975 98.8908C64.4742 98.6511 64.3747 98.3081 64.3991 97.8619C64.4192 96.9231 64.8109 96.0307 65.4884 95.3806C65.8789 95.0153 66.2876 94.67 66.7129 94.3459C67.1594 93.9957 67.4837 93.7319 67.6836 93.5521C67.8828 93.3744 68.0561 93.1697 68.1984 92.9438C68.3413 92.7195 68.4231 92.4617 68.4357 92.1961C68.4536 91.9418 68.4165 91.6866 68.3268 91.4479C68.237 91.2093 68.0969 90.9929 67.9158 90.8134C67.5381 90.4242 67.0379 90.2116 66.4152 90.1756C65.6819 90.1354 65.132 90.2907 64.7658 90.6415C64.3996 90.9924 64.0758 91.5223 63.7944 92.2313C63.527 92.9714 63.0776 93.3249 62.4463 93.2918C62.2699 93.2857 62.0968 93.2428 61.9379 93.1659C61.7791 93.089 61.638 92.9798 61.5238 92.8453C61.4116 92.7288 61.3237 92.5911 61.2651 92.4402C61.2066 92.2894 61.1787 92.1284 61.183 91.9667ZM65.4503 103.185C65.0583 103.169 64.6865 103.007 64.4078 102.731C64.1197 102.452 63.9883 102.075 64.0137 101.602C64.0214 101.405 64.07 101.211 64.1564 101.033C64.2428 100.856 64.3651 100.698 64.5156 100.57C64.6652 100.437 64.84 100.336 65.0295 100.273C65.219 100.209 65.4193 100.184 65.6186 100.2C65.8152 100.208 66.0082 100.255 66.1861 100.339C66.3641 100.423 66.5234 100.542 66.6546 100.688C66.7858 100.835 66.8862 101.006 66.9498 101.192C67.0134 101.379 67.039 101.576 67.025 101.772C66.9991 102.238 66.8294 102.595 66.5159 102.845C66.2167 103.089 65.8359 103.211 65.4503 103.185Z" fill="url(#paint7_linear_13516_79596)"/>
</g>
<defs>
<filter id="filter0_d_13516_79596" x="27.9607" y="18.3979" width="93.9766" height="118.287" filterUnits="userSpaceOnUse" color-interpolation-filters="sRGB">
<feFlood flood-opacity="0" result="BackgroundImageFix"/>
<feColorMatrix in="SourceAlpha" type="matrix" values="0 0 0 0 0 0 0 0 0 0 0 0 0 0 0 0 0 0 127 0" result="hardAlpha"/>
<feOffset dy="4"/>
<feGaussianBlur stdDeviation="5"/>
<feComposite in2="hardAlpha" operator="out"/>
<feColorMatrix type="matrix" values="0 0 0 0 0 0 0 0 0 0 0 0 0 0 0 0 0 0 0.2 0"/>
<feBlend mode="normal" in2="BackgroundImageFix" result="effect1_dropShadow_13516_79596"/>
<feBlend mode="normal" in="SourceGraphic" in2="effect1_dropShadow_13516_79596" result="shape"/>
</filter>
<filter id="filter1_d_13516_79596" x="-8.76489" y="49.2473" width="167.765" height="100.162" filterUnits="userSpaceOnUse" color-interpolation-filters="sRGB">
<feFlood flood-opacity="0" result="BackgroundImageFix"/>
<feColorMatrix in="SourceAlpha" type="matrix" values="0 0 0 0 0 0 0 0 0 0 0 0 0 0 0 0 0 0 127 0" result="hardAlpha"/>
<feOffset dy="4"/>
<feGaussianBlur stdDeviation="7.5"/>
<feComposite in2="hardAlpha" operator="out"/>
<feColorMatrix type="matrix" values="0 0 0 0 0 0 0 0 0 0 0 0 0 0 0 0 0 0 0.2 0"/>
<feBlend mode="normal" in2="BackgroundImageFix" result="effect1_dropShadow_13516_79596"/>
<feBlend mode="normal" in="SourceGraphic" in2="effect1_dropShadow_13516_79596" result="shape"/>
</filter>
<linearGradient id="paint0_linear_13516_79596" x1="90.4461" y1="29.5689" x2="118.836" y2="36.6392" gradientUnits="userSpaceOnUse">
<stop stop-color="white"/>
<stop offset="1" stop-color="white" stop-opacity="0"/>
</linearGradient>
<linearGradient id="paint1_linear_13516_79596" x1="23.1708" y1="126.505" x2="71.1046" y2="42.3301" gradientUnits="userSpaceOnUse">
<stop offset="0.0977" stop-color="#C1C7D0"/>
<stop offset="1" stop-color="#EBECF0" stop-opacity="0.5"/>
</linearGradient>
<linearGradient id="paint2_linear_13516_79596" x1="91.1532" y1="119.802" x2="94.2128" y2="114.506" gradientUnits="userSpaceOnUse">
<stop stop-color="#BEC7CF"/>
<stop offset="1" stop-color="#8D9293"/>
</linearGradient>
<linearGradient id="paint3_linear_13516_79596" x1="58.0573" y1="83.1046" x2="87.8563" y2="93.3527" gradientUnits="userSpaceOnUse">
<stop stop-color="#7FC0FB"/>
<stop offset="1" stop-color="#4088F4"/>
</linearGradient>
<linearGradient id="paint4_linear_13516_79596" x1="57.8304" y1="82.8092" x2="88.5103" y2="93.3594" gradientUnits="userSpaceOnUse">
<stop stop-color="#7FC0FB"/>
<stop offset="1" stop-color="#4088F4"/>
</linearGradient>
<linearGradient id="paint5_linear_13516_79596" x1="53.2347" y1="100.992" x2="61.1055" y2="98.8018" gradientUnits="userSpaceOnUse">
<stop offset="0.0977" stop-color="#C1C7D0"/>
<stop offset="1" stop-color="#EBECF0" stop-opacity="0.5"/>
</linearGradient>
<linearGradient id="paint6_linear_13516_79596" x1="71.5356" y1="106.683" x2="82.3589" y2="101.532" gradientUnits="userSpaceOnUse">
<stop offset="0.0977" stop-color="#C1C7D0"/>
<stop offset="1" stop-color="#EBECF0" stop-opacity="0.5"/>
</linearGradient>
<linearGradient id="paint7_linear_13516_79596" x1="61.4217" y1="94.2938" x2="71.1929" y2="89.8187" gradientUnits="userSpaceOnUse">
<stop stop-color="#7FC0FB"/>
<stop offset="1" stop-color="#4088F4"/>
</linearGradient>
<clipPath id="clip0_13516_79596">
<rect width="150" height="150" fill="white"/>
</clipPath>
</defs>
</svg>
