<svg width="73" height="72" viewBox="0 0 73 72" fill="none" xmlns="http://www.w3.org/2000/svg">
<rect x="0.25" width="72" height="72" rx="36" fill="#F8F9FB"/>
<g clip-path="url(#clip0_13516_78818)">
<path fill-rule="evenodd" clip-rule="evenodd" d="M50.8 55.2556V37.4831L36.4709 35.3208L21.7051 37.4831V55.2556H50.8Z" fill="#1877F1"/>
<path fill-rule="evenodd" clip-rule="evenodd" d="M21.7051 40.5076H47.5202C47.653 40.5076 47.7608 40.6153 47.7608 40.7481V55.2557H50.7999V37.4831L36.4709 35.3208L21.7051 37.4831V40.5076Z" fill="#1956CA"/>
<path fill-rule="evenodd" clip-rule="evenodd" d="M26.9895 23.5701L25.8157 18.7417C25.4768 17.344 24.055 16.4796 22.6561 16.8176C21.2548 17.1557 20.3881 18.5738 20.727 19.9715L23.4636 31.2412L27.9404 32.26L26.9895 23.5701Z" fill="#FEC165"/>
<path fill-rule="evenodd" clip-rule="evenodd" d="M24.1367 19.6697L25.6517 25.9094C26.7755 25.873 27.0576 24.8929 26.9893 23.5701L25.8156 18.7417C25.4766 17.344 24.0549 16.4796 22.6559 16.8176C22.0849 16.9561 21.6027 17.2714 21.2546 17.6957C22.5603 17.5256 23.8206 18.3673 24.1367 19.6697Z" fill="#FDB441"/>
<path fill-rule="evenodd" clip-rule="evenodd" d="M35.2697 23.6699L35.2493 32.0399H36.2525H41.9941L42.7152 26.7919L41.9941 22.6057C41.9418 22.3062 41.7439 22.0521 41.439 22.0521H35.8248C35.52 22.0521 35.2697 22.3017 35.2697 22.6057V23.6699Z" fill="#EFF4FB"/>
<path fill-rule="evenodd" clip-rule="evenodd" d="M36.7257 27.4431C36.7257 25.991 36.1753 24.6681 35.2699 23.6699C34.2371 22.5309 32.7448 21.8138 31.0843 21.8138C29.4714 21.8138 28.0178 22.4877 26.9896 23.57C26.3686 24.2212 25.9045 25.0199 25.652 25.9093C25.5132 26.3971 25.4404 26.9122 25.4404 27.4431C25.4404 28.9066 26 30.2385 26.919 31.2413H35.2494C36.1661 30.2384 36.7257 28.9065 36.7257 27.4431Z" fill="#EFF4FB"/>
<path fill-rule="evenodd" clip-rule="evenodd" d="M32.8925 23.9444C33.7979 24.9427 34.3484 26.2677 34.3484 27.7199C34.3484 29.0517 33.8843 30.277 33.1086 31.2413H35.2493C36.166 30.2384 36.7256 28.9065 36.7256 27.4431C36.7256 25.991 36.1751 24.6681 35.2697 23.6699C34.237 22.5309 32.7447 21.8138 31.0841 21.8138C30.4426 21.8138 29.8284 21.9205 29.2551 22.1179C29.9011 22.1792 30.5176 22.3516 31.0841 22.6125C31.7733 22.9325 32.3875 23.3885 32.8925 23.9444Z" fill="#1956CA"/>
<path fill-rule="evenodd" clip-rule="evenodd" d="M40.2538 22.6057V32.0399H41.994L42.6833 26.9848L41.994 22.6057C41.9463 22.3039 41.7438 22.0521 41.439 22.0521H39.6987C40.0036 22.0521 40.2538 22.3017 40.2538 22.6057Z" fill="#BFD8FB"/>
<path fill-rule="evenodd" clip-rule="evenodd" d="M41.9941 22.6056V32.0399H48.7162V20.4048C48.7162 20.0985 48.4683 19.8512 48.1634 19.8512H42.5492C42.2421 19.8512 41.9941 20.0985 41.9941 20.4048V22.6056Z" fill="#4D4472"/>
<path fill-rule="evenodd" clip-rule="evenodd" d="M43.9709 24.3551C43.9709 25.1174 44.5897 25.7369 45.3563 25.7369C46.1207 25.7369 46.7417 25.1174 46.7417 24.3551C46.7417 23.5927 46.1207 22.9733 45.3563 22.9733C44.5897 22.9733 43.9709 23.5927 43.9709 24.3551Z" fill="#F4EAFA"/>
<path fill-rule="evenodd" clip-rule="evenodd" d="M47.399 20.4048V32.0399H48.7161V20.4048C48.7161 20.0985 48.4682 19.8512 48.1633 19.8512H46.844C46.5391 19.8512 47.399 20.1008 47.399 20.4048Z" fill="#3F3664"/>
<path fill-rule="evenodd" clip-rule="evenodd" d="M43.8025 44.7029H28.7023C28.3065 44.7029 27.9812 45.0273 27.9812 45.4221V49.6491C27.9812 50.0439 28.3065 50.3684 28.7023 50.3684H43.8025C44.2007 50.3684 44.5259 50.0439 44.5259 49.6491V45.4221C44.5259 45.0273 44.2006 44.7029 43.8025 44.7029Z" fill="#F4EAFA"/>
<path fill-rule="evenodd" clip-rule="evenodd" d="M42.4423 45.4222V49.6493C42.4423 50.044 42.117 50.3685 41.7212 50.3685H43.8027C44.2008 50.3685 44.526 50.044 44.526 49.6493V45.4222C44.526 45.0275 44.2007 44.703 43.8027 44.703H41.7212C42.1171 44.7029 42.4423 45.0274 42.4423 45.4222Z" fill="#D2CFE9"/>
<path d="M30.4827 21.8139C30.4827 21.4818 30.7519 21.7286 31.084 21.7286C31.4161 21.7286 31.6853 21.4818 31.6853 21.8139" fill="black"/>
<path d="M31.0842 21.2125C27.6406 21.2125 24.8391 24.0075 24.8391 27.4431C24.8391 29.0028 25.4204 30.4959 26.4758 31.6475C26.7001 31.8923 27.0805 31.9089 27.3254 31.6846C27.5702 31.4602 27.5868 31.0798 27.3624 30.8349C26.6477 30.055 26.2037 29.081 26.0791 28.0444H26.3413C26.6734 28.0444 26.9426 27.7752 26.9426 27.4431C26.9426 27.111 26.6734 26.8417 26.3413 26.8417H26.0791C26.3546 24.5487 28.183 22.7261 30.4829 22.4522V22.7146C30.4829 23.0467 30.7522 23.316 31.0843 23.316C31.4164 23.316 31.6856 23.0467 31.6856 22.7146V22.4523C33.9668 22.7242 35.7839 24.5213 36.0805 26.7896H35.7931C35.461 26.7896 35.1918 27.0589 35.1918 27.391C35.1918 27.7231 35.461 27.9923 35.7931 27.9923H36.0933C35.9776 29.0479 35.5314 30.0417 34.8056 30.8356C34.5815 31.0807 34.5986 31.461 34.8437 31.6851C34.9591 31.7906 35.1044 31.8426 35.2493 31.8426C35.4122 31.8426 35.5747 31.7767 35.6933 31.647C36.7468 30.4944 37.3272 29.0014 37.3272 27.4431C37.3271 24.0075 34.5265 21.2125 31.0842 21.2125Z" fill="#1877F1"/>
<path d="M30.6587 24.796C30.5338 24.4882 30.1831 24.3401 29.8753 24.4649C29.5676 24.5899 29.4194 24.9406 29.5443 25.2483L30.3767 27.2989L29.5135 28.1582C29.2781 28.3925 29.2773 28.7732 29.5116 29.0086C29.6291 29.1267 29.7834 29.1857 29.9378 29.1857C30.0912 29.1857 30.2447 29.1274 30.362 29.0106L31.5085 27.8693C31.6801 27.6985 31.7325 27.4413 31.6414 27.217L30.6587 24.796Z" fill="#FDB441"/>
<path d="M41.2458 48.1381H31.2593C30.9272 48.1381 30.658 47.8689 30.658 47.5368C30.658 47.2046 30.9272 46.9354 31.2593 46.9354H41.2458C41.5779 46.9354 41.8471 47.2046 41.8471 47.5368C41.8471 47.8689 41.5779 48.1381 41.2458 48.1381Z" fill="#FDB441"/>
<path d="M16.8514 37.8063C17.0049 37.8063 17.1585 37.7479 17.2758 37.6309L22.6535 32.2717C22.8888 32.0372 22.8894 31.6565 22.655 31.4212C22.4206 31.1861 22.0399 31.1853 21.8046 31.4197L16.4269 36.779C16.1916 37.0135 16.191 37.3942 16.4254 37.6295C16.5428 37.7473 16.6971 37.8063 16.8514 37.8063Z" fill="#1877F1"/>
<path d="M55.6487 37.8047C55.4952 37.8047 55.3416 37.7463 55.2242 37.6293L49.8466 32.2701C49.6113 32.0357 49.6106 31.655 49.8451 31.4196C50.0795 31.1845 50.4602 31.1837 50.6955 31.4182L56.0731 36.7774C56.3085 37.0118 56.3091 37.3925 56.0746 37.6278C55.9572 37.7457 55.8029 37.8047 55.6487 37.8047Z" fill="#1877F1"/>
<path fill-rule="evenodd" clip-rule="evenodd" d="M50.8462 31.4218C50.8189 31.3155 50.723 31.2412 50.6133 31.2412H21.8914C21.7816 31.2412 21.6858 31.3155 21.6584 31.4218L20.1762 37.1826C20.137 37.3348 20.2519 37.4831 20.4091 37.4831H52.0955C52.2527 37.4831 52.3676 37.3348 52.3285 37.1826L50.8462 31.4218Z" fill="#DDEBFB"/>
<path fill-rule="evenodd" clip-rule="evenodd" d="M47.1147 31.2413L48.7208 37.4832H50.8H52.0958C52.253 37.4832 52.3679 37.3349 52.3287 37.1827L50.8465 31.422C50.8191 31.3156 50.7233 31.2413 50.6135 31.2413H48.7162H47.1147Z" fill="#BFD8FB"/>
</g>
<defs>
<clipPath id="clip0_13516_78818">
<rect width="40" height="40" fill="white" transform="translate(16.25 16)"/>
</clipPath>
</defs>
</svg>
