<svg width="73" height="72" viewBox="0 0 73 72" fill="none" xmlns="http://www.w3.org/2000/svg">
<rect x="0.25" width="72" height="72" rx="36" fill="#F8F9FB"/>
<path d="M16.3592 49.1538C16.25 48.9765 16.25 48.7719 16.25 48.5674C16.25 38.2844 16.25 28.0014 16.25 17.732C16.25 16.7228 16.9049 16 17.86 16C23.5907 16 29.3214 16 35.0521 16C35.0521 16.9274 35.0657 17.8548 35.0384 18.7821C35.0111 19.4777 35.1476 20.0914 35.6661 20.5823C35.7889 21.1415 36.2528 21.4824 36.9486 21.4961C37.9447 21.5097 38.9544 21.4961 39.9504 21.4961C39.9504 23.4736 39.9504 25.4511 39.9504 27.4149C38.9544 27.4149 38.0402 27.6604 37.2079 28.2196C35.4341 29.3924 34.1242 31.1245 32.3095 32.2564C31.9957 32.4473 32.023 32.7883 32.214 33.1156C32.5415 33.6884 33.1418 33.9475 33.6194 34.343C29.335 34.343 25.0507 34.343 20.7663 34.3566C20.6162 34.3566 20.4525 34.343 20.3024 34.3703C20.0977 34.3976 19.9613 34.5339 19.9476 34.7385C19.934 34.984 20.0841 35.1204 20.3024 35.1613C20.4525 35.1886 20.6026 35.1749 20.7663 35.1749C25.2553 35.1749 29.7444 35.1749 34.2334 35.1749C34.2334 35.9523 34.3971 36.7296 34.3425 37.5206C34.0833 37.7388 33.8241 37.9434 33.5785 38.1616C33.0054 38.6935 32.446 39.2527 31.8865 39.7982C31.4636 39.5663 31.0952 39.6754 30.7131 39.9345C28.8848 41.1756 27.0291 42.403 25.1871 43.6168C24.9961 43.7395 24.8187 43.9168 24.5595 43.9168C24.3002 43.3713 23.8772 42.9213 23.5361 42.4167C23.3315 42.103 23.0586 41.953 22.6765 42.0075C22.1717 41.6257 21.7896 41.5847 21.4485 41.8984C21.0938 42.2257 21.0938 42.6485 21.4758 43.1804C22.0489 43.9714 22.581 44.8169 23.2223 45.5534C23.2223 45.717 23.0995 45.7716 22.9767 45.8398C22.3491 46.1807 21.7487 46.5489 21.1074 46.8763C19.5247 47.6809 17.9692 48.4855 16.3592 49.1538ZM25.6647 30.2789C26.8927 30.2789 28.107 30.2789 29.335 30.2789C29.8672 30.2789 30.3856 30.2789 30.9178 30.2789C31.177 30.2789 31.3544 30.1425 31.3544 29.8834C31.3544 29.6243 31.1907 29.4879 30.9314 29.4743C30.8496 29.4606 30.7677 29.4743 30.6722 29.4743C27.3293 29.4743 23.9728 29.4743 20.6299 29.4743C20.5344 29.4743 20.4252 29.4743 20.3297 29.4743C20.0977 29.5015 19.9476 29.6379 19.934 29.8698C19.9204 30.1016 20.0704 30.2516 20.3024 30.2789C20.4388 30.2925 20.5753 30.2925 20.7117 30.2925C22.3764 30.2789 24.0137 30.2789 25.6647 30.2789ZM23.6044 24.5646C22.581 24.5646 21.5713 24.5646 20.548 24.5646C20.2478 24.5646 19.9613 24.6055 19.9476 24.9601C19.934 25.3556 20.2342 25.3965 20.5616 25.3965C22.5947 25.3965 24.6413 25.3965 26.6744 25.3965C26.9745 25.3965 27.2611 25.3693 27.2747 25.0147C27.2884 24.6192 26.9882 24.5783 26.6744 24.5783C25.6374 24.5646 24.6277 24.5646 23.6044 24.5646Z" fill="#EFF4FB"/>
<path d="M53.7314 55.9727C53.5677 55.9727 53.3903 55.9863 53.2266 55.9863C45.6812 55.9863 38.1222 55.9863 30.5768 55.9863C29.5807 55.9863 29.3215 55.7136 29.4443 54.7317C29.6353 53.2178 30.0719 51.7859 30.6859 50.3948C30.7678 50.2448 30.8497 50.1084 30.9315 49.9584C31.4364 49.0856 32.0094 48.2536 32.9918 47.8445C34.6838 47.1353 36.3211 46.3034 37.9175 45.4033C38.4906 46.6307 39.0773 47.8581 39.623 49.0992C39.855 49.6174 40.1961 49.822 40.7419 49.7402C40.7692 49.7947 40.8101 49.8629 40.8374 49.9175C41.2604 50.7357 41.7379 50.8312 42.3656 50.163C42.8431 49.6447 43.2798 49.0856 43.7437 48.54C44.1666 48.9219 44.4395 49.4538 44.958 49.7402C45.0126 49.9311 45.1763 50.0402 45.3128 50.163C45.9268 50.7903 46.4316 50.7085 46.8137 49.9175C47.1275 49.2765 47.414 48.6219 47.6869 47.9673C47.8097 47.6945 47.9189 47.5718 48.26 47.6945C49.0787 47.9809 49.8837 48.3082 50.6341 48.7173C51.4528 49.1674 52.2442 49.6447 52.6262 50.5857C53.3221 52.3177 53.6359 54.118 53.7314 55.9727Z" fill="#1877F1"/>
<path d="M16.3594 49.1538C17.9694 48.4855 19.5249 47.6809 21.0804 46.8899C21.708 46.5626 22.322 46.208 22.9496 45.8534C23.0724 45.7852 23.1952 45.7307 23.1952 45.567C23.5364 45.7716 23.9048 45.908 24.3141 45.908C24.7098 46.2762 25.3647 46.3171 25.9378 45.9352C28.1345 44.476 30.3313 43.0031 32.528 41.5302C32.8828 41.2847 33.0738 40.9574 32.951 40.5346C32.8282 40.0982 32.5008 39.9209 32.0368 39.9891C31.9823 39.9209 31.914 39.8664 31.8595 39.7982C32.4189 39.2526 32.9783 38.6935 33.5514 38.1616C33.797 37.9298 34.0562 37.7252 34.3155 37.5206C34.3428 37.5752 34.3973 37.6297 34.411 37.6979C34.6975 39.4845 35.0386 41.2438 36.4986 42.5257C36.7442 42.744 36.7851 43.7804 36.5532 44.0123C35.9664 44.5987 35.4616 45.2806 34.7384 45.717C33.5787 46.4126 32.378 47.0672 31.109 47.5445C29.7036 48.0627 28.6257 48.9083 27.9981 50.2857C24.6279 50.2857 21.2441 50.2994 17.8739 50.2857C17.1371 50.2721 16.5913 49.8629 16.3594 49.1538Z" fill="#DDEBFB"/>
<path d="M40.0459 28.0423C41.4513 27.1967 42.9795 27.1285 44.5349 27.4422C45.9949 27.7422 46.8545 28.7787 47.4548 30.0607C47.6049 30.388 47.6459 30.7562 48.1916 30.6608C48.5055 30.6062 48.7374 30.8926 48.9148 31.1517C49.1604 31.52 49.3105 31.9291 49.3105 32.3519C49.3105 33.852 49.1331 35.3249 48.5873 36.7433C48.369 36.5796 48.3963 36.3205 48.3144 36.1023C48.1507 35.6659 47.9733 35.2022 47.5504 34.9976C46.7863 34.643 46.4588 33.9748 46.145 33.2792C45.8175 32.5428 45.8175 32.5292 45.2444 33.1292C44.8488 33.3747 44.4667 33.6611 44.0301 33.852C41.7788 34.8067 39.4728 35.0385 37.0851 34.4657C36.3756 34.1657 35.707 33.8111 35.1885 33.2111C34.6973 32.6519 34.7519 32.2973 35.3795 31.8882C36.28 31.3017 37.1124 30.6335 37.8764 29.8834C38.5587 29.2151 39.2545 28.5742 40.0459 28.0423Z" fill="#4D4472"/>
<path d="M40.0461 28.0423C39.2547 28.5742 38.5589 29.2152 37.8766 29.8834C37.1125 30.6335 36.2802 31.3154 35.3797 31.8882C34.7521 32.2973 34.7111 32.6519 35.1887 33.2111C35.7072 33.8112 36.3621 34.1657 37.0853 34.4658C37.058 35.625 37.0716 36.7979 37.2763 37.9434C37.6037 39.7164 38.054 41.4075 39.5413 42.6213C39.5413 43.0168 39.5549 43.4123 39.5549 43.8078C38.8863 44.2032 38.4088 44.817 37.8903 45.3897C36.2939 46.2899 34.6565 47.1218 32.9646 47.8309C31.9822 48.2401 31.4092 49.072 30.9043 49.9448C30.8224 50.0948 30.7406 50.2312 30.6587 50.3812C30.4677 50.163 30.2084 50.2721 29.9901 50.2721C29.3216 50.2585 28.6666 50.2585 27.998 50.2585C28.6393 48.8947 29.7036 48.0491 31.109 47.5173C32.3779 47.0399 33.5786 46.3853 34.7384 45.6898C35.4616 45.2534 35.9664 44.5715 36.5531 43.985C36.7851 43.7532 36.7441 42.7167 36.4985 42.4985C35.0386 41.2165 34.6975 39.4573 34.4109 37.6707C34.3973 37.6161 34.3564 37.5616 34.3154 37.4934C34.3837 36.7024 34.2063 35.9387 34.2063 35.1477C34.4382 35.1477 34.6838 35.1477 34.9158 35.1477C35.1887 35.1477 35.407 35.0522 35.4206 34.7658C35.4343 34.4521 35.2023 34.3294 34.9158 34.3294C34.4792 34.3294 34.0289 34.3294 33.5923 34.3158C33.1147 33.9203 32.5144 33.6611 32.1869 33.0883C31.9959 32.761 31.9686 32.4337 32.2824 32.2292C34.0971 31.1108 35.407 29.3788 37.1808 28.1923C38.0131 27.6468 38.9273 27.3877 39.9233 27.3877C39.9779 27.6332 39.8687 27.865 40.0461 28.0423Z" fill="#BFD8FB"/>
<path d="M53.7314 55.9727C53.6358 54.118 53.322 52.3177 52.6125 50.5994C52.2305 49.6584 51.4391 49.181 50.6204 48.731C49.8563 48.3082 49.065 47.9945 48.2463 47.7081C47.9052 47.5854 47.796 47.7081 47.6732 47.9809C47.3867 48.6355 47.1002 49.2901 46.8 49.9311C46.4179 50.7221 45.9131 50.7903 45.2991 50.1766C45.1763 50.0402 45.0126 49.9311 44.9443 49.7538C45.4765 49.8084 45.7903 49.5629 46.0086 49.0856C46.5544 47.8581 47.1411 46.6307 47.7005 45.4033C49.3651 46.3171 51.057 47.1626 52.7899 47.9263C53.7177 48.3355 54.2635 49.1674 54.7274 50.0266C55.5734 51.5949 55.9963 53.2997 56.2419 55.059C56.3102 55.5772 55.9418 55.9864 55.4096 56C54.8502 56 54.2908 55.9727 53.7314 55.9727Z" fill="#1956CA"/>
<path d="M47.7005 45.3898C47.1275 46.6172 46.5544 47.8309 46.0086 49.072C45.7903 49.5493 45.4765 49.7948 44.9443 49.7403C44.4259 49.4539 44.153 48.922 43.73 48.5401C43.5117 48.281 43.2934 48.0219 43.0887 47.7491C42.8704 47.4491 42.7203 47.5173 42.502 47.7628C41.9153 48.4174 41.4104 49.1538 40.7282 49.7266C40.1824 49.8221 39.8277 49.6039 39.6094 49.0856C39.0499 47.8446 38.4769 46.6172 37.9038 45.3898C38.4087 44.817 38.8862 44.2169 39.5684 43.8078C39.8413 44.0942 40.1006 44.3806 40.3735 44.667C41.0966 45.4716 41.8198 46.2899 42.5429 47.0945C42.693 47.2582 42.8158 47.3945 43.0341 47.1491C43.5117 46.5899 44.0302 46.0853 44.4668 45.4989C45.0126 44.9261 45.5447 44.3533 46.0905 43.7668C46.6772 44.2578 47.182 44.8306 47.7005 45.3898Z" fill="#8CBAFA"/>
<path d="M45.2444 33.1292C45.8175 32.5292 45.8175 32.5428 46.145 33.2793C46.4588 33.9748 46.7863 34.643 47.5503 34.9976C47.9733 35.2022 48.1507 35.6659 48.3144 36.1023C48.3963 36.3205 48.369 36.5796 48.5873 36.7433C48.3008 37.2343 48.369 37.7934 48.2735 38.3253C47.946 40.0164 47.332 41.5438 46.0495 42.7303C45.722 42.7985 45.49 43.1122 45.1489 43.1395C45.7902 41.9803 46.3633 40.8074 46.6089 39.4982C46.8272 38.3253 46.9227 37.1661 46.4588 36.0205C46.1177 35.1613 45.7493 34.3021 45.4764 33.4156C45.4627 33.2793 45.4355 33.1292 45.2444 33.1292Z" fill="#EEC28A"/>
<path d="M35.6524 20.5823C35.1339 20.0914 34.9975 19.4777 35.0248 18.7821C35.0657 17.8548 35.0384 16.9274 35.0384 16C36.6758 17.5547 38.2722 19.1504 39.8276 20.7869C39.6912 20.9506 39.5138 20.8824 39.3501 20.8824C38.545 20.8824 37.7537 20.8687 36.9486 20.896C36.4984 20.9097 36.0618 20.8142 35.6524 20.5823Z" fill="#C0D9FB"/>
<path d="M45.1491 43.1395C45.5039 43.1122 45.7222 42.8122 46.0497 42.7303C46.0497 43.0849 46.0497 43.4395 46.0633 43.7941C45.5175 44.3669 44.9854 44.9397 44.4396 45.5261C44.3714 45.3352 44.5624 45.0215 44.1667 44.9806C43.8938 44.9533 43.6346 44.926 43.3617 44.8715C42.2974 44.6397 41.3833 44.1487 40.6328 43.3441C40.9057 43.4259 41.1786 43.4941 41.4651 43.5759C42.7613 43.8896 43.9893 43.8077 45.1491 43.1395Z" fill="#ECB171"/>
<path d="M35.6523 20.5823C36.0617 20.8141 36.4983 20.9096 36.9622 20.8959C37.7536 20.8687 38.5586 20.8959 39.3636 20.8823C39.5274 20.8823 39.7047 20.9369 39.8412 20.7868C40.0322 21.005 39.9094 21.2642 39.9367 21.496C38.9407 21.496 37.931 21.5097 36.9349 21.496C36.2527 21.4824 35.7751 21.1414 35.6523 20.5823Z" fill="#DDEBFB"/>
<path d="M31.8731 39.7981C31.9277 39.8663 31.9959 39.9209 32.0505 39.9891C32.2824 40.6573 32.2142 40.9028 31.6002 41.312C29.499 42.7167 27.3977 44.1077 25.2965 45.5124C24.9963 45.717 24.6688 45.8534 24.3141 45.9079C23.9047 45.9079 23.55 45.7716 23.1952 45.567C22.5539 44.8169 22.0218 43.985 21.4487 43.194C21.0667 42.6621 21.0667 42.2393 21.4214 41.912C21.7626 41.5984 22.1582 41.6393 22.6494 42.0211C23.0178 42.5394 23.3726 43.0712 23.741 43.5895C23.932 43.8486 24.1913 43.9986 24.5187 43.9168C24.778 43.9168 24.9554 43.7531 25.1464 43.6168C26.9884 42.3894 28.844 41.1756 30.6724 39.9345C31.0817 39.689 31.4365 39.5663 31.8731 39.7981Z" fill="#1B79F1"/>
<path d="M33.6058 34.343C34.0424 34.343 34.4927 34.3567 34.9293 34.3567C35.2295 34.3567 35.4478 34.4658 35.4341 34.7931C35.4205 35.0795 35.2022 35.1886 34.9293 35.1749C34.6973 35.1749 34.4517 35.1749 34.2198 35.1749C29.7308 35.1749 25.2417 35.1749 20.7527 35.1749C20.6026 35.1749 20.4389 35.1886 20.2888 35.1613C20.0568 35.1204 19.9204 34.984 19.934 34.7385C19.9477 34.5203 20.0841 34.3976 20.2888 34.3703C20.4389 34.343 20.589 34.3567 20.7527 34.3567C25.0371 34.3567 29.3214 34.3567 33.6058 34.343Z" fill="#8DBAFB"/>
<path d="M25.6647 30.2789C24.0137 30.2789 22.3627 30.2789 20.7254 30.2789C20.5889 30.2789 20.4525 30.2926 20.316 30.2653C20.0841 30.238 19.934 30.1016 19.9476 29.8562C19.9613 29.6243 20.1114 29.4879 20.3433 29.4607C20.4388 29.447 20.548 29.4607 20.6435 29.4607C23.9864 29.4607 27.3429 29.4607 30.6858 29.4607C30.7677 29.4607 30.8496 29.4607 30.9451 29.4607C31.2043 29.4879 31.368 29.6107 31.368 29.8698C31.368 30.1289 31.177 30.2653 30.9314 30.2653C30.3993 30.2653 29.8808 30.2653 29.3487 30.2653C28.107 30.2789 26.8927 30.2789 25.6647 30.2789Z" fill="#8DBAFB"/>
<path d="M23.6044 24.5647C24.6277 24.5647 25.6374 24.5647 26.6607 24.5647C26.9746 24.5647 27.2747 24.6056 27.2611 25.0011C27.2474 25.3557 26.9609 25.3966 26.6607 25.3829C24.6277 25.3829 22.581 25.3829 20.548 25.3829C20.2342 25.3829 19.9204 25.342 19.934 24.9465C19.9477 24.5919 20.2342 24.551 20.5344 24.551C21.5714 24.5647 22.581 24.5647 23.6044 24.5647Z" fill="#8DBAFB"/>
<path d="M24.5307 43.9297C24.1899 43.9978 23.9309 43.8615 23.7537 43.6025C23.3856 43.0844 23.0312 42.5664 22.6631 42.0348C23.0448 41.9802 23.3038 42.1166 23.5219 42.4437C23.8491 42.9345 24.2717 43.3707 24.5307 43.9297Z" fill="#BDD7FB"/>
<path d="M40.728 49.7257C41.3963 49.1531 41.9146 48.417 42.5011 47.7626C42.7193 47.5172 42.8693 47.4491 43.0876 47.749C43.2921 48.0216 43.5104 48.2806 43.7286 48.5397C43.2785 49.0849 42.8421 49.6439 42.3511 50.1619C41.7373 50.8162 41.2599 50.7345 40.8235 49.9165C40.7962 49.8484 40.7689 49.7802 40.728 49.7257Z" fill="#1956CA"/>
<path d="M24.314 45.908C24.6687 45.8398 24.9962 45.7034 25.2964 45.5125C27.3976 44.1078 29.4989 42.7167 31.6001 41.312C32.2141 40.9028 32.2823 40.6574 32.0504 39.9891C32.5006 39.9209 32.8281 40.1118 32.9645 40.5346C33.0873 40.9574 32.8963 41.2983 32.5416 41.5302C30.3448 43.0031 28.1481 44.476 25.9513 45.9352C25.3646 46.3171 24.7097 46.2898 24.314 45.908Z" fill="#BDD7FB"/>
<path d="M45.1491 43.1394C43.9893 43.8076 42.7613 43.8895 41.4787 43.5622C41.2058 43.494 40.9193 43.4121 40.6464 43.3303C40.278 43.0985 39.9096 42.8666 39.5275 42.6211C38.0539 41.4074 37.59 39.7163 37.2626 37.9433C37.0579 36.7841 37.0443 35.6249 37.0715 34.4657C39.4593 35.0248 41.7652 34.8066 44.0166 33.852C44.4532 33.661 44.8352 33.3883 45.2309 33.1292C45.4083 33.1292 45.4356 33.2792 45.4765 33.4019C45.7494 34.2884 46.1042 35.1476 46.4589 36.0068C46.9228 37.1523 46.8273 38.3116 46.609 39.4844C46.3771 40.8073 45.7903 41.9802 45.1491 43.1394Z" fill="#F3D297"/>
<path d="M39.541 42.6212C39.9094 42.8531 40.2778 43.0849 40.6599 43.3304C41.3967 44.135 42.3245 44.6396 43.3887 44.8578C43.648 44.9124 43.9209 44.9397 44.1938 44.9669C44.5895 45.0078 44.3984 45.3215 44.4667 45.5125C44.0437 46.1125 43.5115 46.6171 43.034 47.1626C42.8293 47.4081 42.6929 47.2717 42.5428 47.1081C41.8196 46.2898 41.0965 45.4852 40.3733 44.6805C40.1141 44.3941 39.8412 44.1077 39.5683 43.8214C39.5547 43.4259 39.5547 43.0304 39.541 42.6212Z" fill="#EEC28B"/>
</svg>
